<svg xmlns="http://www.w3.org/2000/svg" xmlns:xlink="http://www.w3.org/1999/xlink" width="438" height="440.501" viewBox="0 0 438 440.501">
  <defs>
    <linearGradient id="linear-gradient" x1="1.06" y1="1.13" x2="0.324" y2="0.337" gradientUnits="objectBoundingBox">
      <stop offset="0" stop-color="#f6f9ff"/>
      <stop offset="1" stop-color="#e9effd"/>
    </linearGradient>
    <linearGradient id="linear-gradient-2" x1="3.169" y1="-1.686" x2="2.611" y2="-1.229" gradientUnits="objectBoundingBox">
      <stop offset="0" stop-color="#012e40"/>
      <stop offset="1" stop-color="#025373"/>
    </linearGradient>
    <linearGradient id="linear-gradient-3" x1="0.551" y1="-7.221" x2="0.424" y2="12.6" gradientUnits="objectBoundingBox">
      <stop offset="0" stop-color="#025373"/>
      <stop offset="1" stop-color="#012e40"/>
    </linearGradient>
    <linearGradient id="linear-gradient-4" x1="0.812" y1="-1.059" x2="0.623" y2="-0.131" xlink:href="#linear-gradient-2"/>
    <linearGradient id="linear-gradient-5" x1="0.777" y1="-3.581" x2="0.276" y2="3.86" xlink:href="#linear-gradient-3"/>
    <linearGradient id="linear-gradient-6" y1="0.5" x2="1" y2="0.5" gradientUnits="objectBoundingBox">
      <stop offset="0" stop-color="#dae3fe"/>
      <stop offset="1" stop-color="#e9effd"/>
    </linearGradient>
    <linearGradient id="linear-gradient-7" x1="-0.126" y1="-1.117" x2="0.659" y2="0.896" xlink:href="#linear-gradient-2"/>
    <linearGradient id="linear-gradient-9" x1="0.852" y1="-15.474" x2="0.682" y2="-7.661" xlink:href="#linear-gradient-3"/>
    <linearGradient id="linear-gradient-10" x1="0.566" y1="-0.144" x2="0.666" y2="-1.671" xlink:href="#linear-gradient-2"/>
    <linearGradient id="linear-gradient-12" x1="0.482" y1="-10.531" x2="0.512" y2="8.107" gradientUnits="objectBoundingBox">
      <stop offset="0" stop-color="#012e40"/>
      <stop offset="1" stop-color="#052d3d"/>
    </linearGradient>
    <linearGradient id="linear-gradient-13" x1="0.995" y1="-7.398" x2="0.138" y2="6.215" xlink:href="#linear-gradient-3"/>
    <linearGradient id="linear-gradient-16" x1="-7.846" y1="-26.528" x2="-1.419" y2="-19.588" xlink:href="#linear-gradient-3"/>
    <linearGradient id="linear-gradient-17" x1="1.458" y1="-7.863" x2="0.914" y2="-3.11" gradientUnits="objectBoundingBox">
      <stop offset="0" stop-color="#012e40"/>
      <stop offset="1" stop-color="#043041"/>
    </linearGradient>
    <linearGradient id="linear-gradient-18" x1="0.266" y1="0.252" x2="0.781" y2="0.798" xlink:href="#linear-gradient-3"/>
    <linearGradient id="linear-gradient-22" x1="0.684" y1="-0.014" x2="0.388" y2="0.814" xlink:href="#linear-gradient-3"/>
    <linearGradient id="linear-gradient-24" x1="1.665" y1="-0.134" x2="1.4" y2="0.01" gradientUnits="objectBoundingBox">
      <stop offset="0" stop-color="#012e40"/>
      <stop offset="1" stop-color="#042a39"/>
    </linearGradient>
    <linearGradient id="linear-gradient-25" x1="0.739" y1="-0.262" x2="1.454" y2="-2.545" gradientUnits="objectBoundingBox">
      <stop offset="0" stop-color="#012e40"/>
      <stop offset="1" stop-color="#031b24"/>
    </linearGradient>
    <linearGradient id="linear-gradient-28" x1="1.546" y1="0.143" x2="1.177" y2="0.269" gradientUnits="objectBoundingBox">
      <stop offset="0" stop-color="#012e40"/>
      <stop offset="1" stop-color="#052b3a"/>
    </linearGradient>
    <linearGradient id="linear-gradient-30" x1="2.705" y1="0.092" x2="1.74" y2="0.717" gradientUnits="objectBoundingBox">
      <stop offset="0" stop-color="#febbba"/>
      <stop offset="1" stop-color="#ff928e"/>
    </linearGradient>
    <linearGradient id="linear-gradient-31" x1="14.147" y1="-0.083" x2="7.29" y2="3.035" xlink:href="#linear-gradient-30"/>
    <linearGradient id="linear-gradient-32" x1="3.138" y1="-1.001" x2="2.394" y2="-0.573" gradientUnits="objectBoundingBox">
      <stop offset="0" stop-color="#027368"/>
      <stop offset="1" stop-color="#08806a"/>
    </linearGradient>
    <linearGradient id="linear-gradient-33" x1="96.268" y1="0.02" x2="96.028" y2="1.02" xlink:href="#linear-gradient-30"/>
    <linearGradient id="linear-gradient-34" x1="-21.415" y1="0.968" x2="-19.171" y2="-0.531" gradientUnits="objectBoundingBox">
      <stop offset="0" stop-color="#021a24"/>
      <stop offset="1" stop-color="#012e40"/>
    </linearGradient>
    <linearGradient id="linear-gradient-35" x1="-81.298" y1="-0.843" x2="-81.805" y2="2.39" xlink:href="#linear-gradient-30"/>
    <linearGradient id="linear-gradient-36" x1="-21.407" y1="0.794" x2="-19.324" y2="-0.625" gradientUnits="objectBoundingBox">
      <stop offset="0" stop-color="#021923"/>
      <stop offset="1" stop-color="#012e40"/>
    </linearGradient>
    <linearGradient id="linear-gradient-37" x1="-82.7" y1="-0.224" x2="-83.214" y2="2.539" xlink:href="#linear-gradient-30"/>
    <linearGradient id="linear-gradient-38" x1="3.397" y1="-0.047" x2="2.9" y2="1.702" gradientUnits="objectBoundingBox">
      <stop offset="0" stop-color="#011b26"/>
      <stop offset="1" stop-color="#012e40"/>
    </linearGradient>
    <linearGradient id="linear-gradient-39" x1="-170.656" y1="0.429" x2="-166.945" y2="-1.257" gradientUnits="objectBoundingBox">
      <stop offset="0" stop-color="#4f52ff"/>
      <stop offset="1" stop-color="#4042e2"/>
    </linearGradient>
    <linearGradient id="linear-gradient-40" x1="2.802" y1="-1.572" x2="2.321" y2="-1.126" gradientUnits="objectBoundingBox">
      <stop offset="0" stop-color="#03a688"/>
      <stop offset="1" stop-color="#027368"/>
    </linearGradient>
    <linearGradient id="linear-gradient-41" x1="-18.284" y1="0.5" x2="-17.284" y2="0.5" xlink:href="#linear-gradient-30"/>
    <linearGradient id="linear-gradient-42" x1="-33.969" y1="-0.222" x2="-34.787" y2="2.966" xlink:href="#linear-gradient-30"/>
    <linearGradient id="linear-gradient-43" x1="-50.703" y1="-28.121" x2="-52.267" y2="-26.747" xlink:href="#linear-gradient-30"/>
    <linearGradient id="linear-gradient-44" x1="-29.845" y1="-16.732" x2="-28.762" y2="-16.732" gradientUnits="objectBoundingBox">
      <stop offset="0" stop-color="#011923"/>
      <stop offset="1" stop-color="#012e40"/>
    </linearGradient>
    <linearGradient id="linear-gradient-45" x1="-122.721" y1="-79.01" x2="-119.832" y2="-81.432" xlink:href="#linear-gradient-30"/>
    <linearGradient id="linear-gradient-46" x1="-0.184" y1="1.294" x2="0.486" y2="0.516" xlink:href="#linear-gradient-40"/>
    <linearGradient id="linear-gradient-47" x1="0.878" y1="-0.071" x2="-1.173" y2="3.028" gradientUnits="objectBoundingBox">
      <stop offset="0" stop-color="#04d99d"/>
      <stop offset="1" stop-color="#03a688"/>
    </linearGradient>
    <linearGradient id="linear-gradient-48" x1="1.132" y1="-0.422" x2="0.482" y2="0.52" gradientUnits="objectBoundingBox">
      <stop offset="0" stop-color="#04d99d"/>
      <stop offset="1" stop-color="#09c993"/>
    </linearGradient>
    <linearGradient id="linear-gradient-58" x1="35.858" y1="1.685" x2="36.639" y2="0.309" xlink:href="#linear-gradient-2"/>
    <linearGradient id="linear-gradient-59" x1="0.841" y1="0.155" x2="-0.561" y2="1.333" gradientUnits="objectBoundingBox">
      <stop offset="0" stop-color="#a22b25"/>
      <stop offset="1" stop-color="#c0423c"/>
    </linearGradient>
    <linearGradient id="linear-gradient-60" x1="4.431" y1="-1.544" x2="3.397" y2="-0.998" xlink:href="#linear-gradient-47"/>
    <linearGradient id="linear-gradient-61" x1="0.179" y1="1.902" x2="0.967" y2="-1.463" xlink:href="#linear-gradient-59"/>
    <linearGradient id="linear-gradient-62" x1="-47.597" y1="54.206" x2="-49.226" y2="55.65" xlink:href="#linear-gradient-59"/>
    <linearGradient id="linear-gradient-63" x1="148.463" y1="7.562" x2="151.742" y2="0.724" gradientUnits="objectBoundingBox">
      <stop offset="0" stop-color="#012e40"/>
      <stop offset="1" stop-color="#021e29"/>
    </linearGradient>
    <linearGradient id="linear-gradient-64" x1="-133.313" y1="199.272" x2="-137.828" y2="204.605" xlink:href="#linear-gradient-59"/>
    <linearGradient id="linear-gradient-65" x1="1.335" y1="0.455" x2="3.441" y2="0.35" xlink:href="#linear-gradient-59"/>
    <linearGradient id="linear-gradient-66" x1="-124.09" y1="1.733" x2="-123.085" y2="1.733" gradientUnits="objectBoundingBox">
      <stop offset="0" stop-color="#031b24"/>
      <stop offset="1" stop-color="#012e40"/>
    </linearGradient>
    <linearGradient id="linear-gradient-67" x1="4.531" y1="-0.695" x2="2.877" y2="-0.236" xlink:href="#linear-gradient-59"/>
    <linearGradient id="linear-gradient-69" x1="3.596" y1="-1.282" x2="2.266" y2="-0.496" xlink:href="#linear-gradient-2"/>
    <linearGradient id="linear-gradient-70" x1="-63.943" y1="-4.878" x2="-60.951" y2="-7.055" xlink:href="#linear-gradient-59"/>
    <linearGradient id="linear-gradient-71" x1="476.902" y1="0.5" x2="477.903" y2="0.5" xlink:href="#linear-gradient-59"/>
  </defs>
  <g id="_20945144_Converted_" data-name="20945144 [Converted]" transform="translate(-81.377 -76.189)">
    <g id="Illustration" transform="translate(81.377 76.189)">
      <g id="Group_47" data-name="Group 47">
        <path id="Path_13" data-name="Path 13" d="M921.123,765.912C877.068,868.756,760.779,912.929,669.663,905.4c-24.878-2.056-74.933-6.195-114.017-43.108-75.058-70.89-63.5-219.073,8.354-306.313,9.254-11.234,73.3-86.507,173.108-85.5,73.073.737,124.362,41.964,130.6,47.1a200.979,200.979,0,0,1,40.916,46.365C945.418,621.414,948.651,701.644,921.123,765.912Z" transform="translate(-501.543 -467.992)" fill="url(#linear-gradient)"/>
        <g id="Group_10" data-name="Group 10" transform="translate(6.145)">
          <g id="Group_8" data-name="Group 8" transform="translate(39.51)">
            <path id="Path_14" data-name="Path 14" d="M777.505,457.621c-6.876,37.243-38.19,255.638,157.9,322.357,0,0,56.983-138.377-152.742-324.192A3.135,3.135,0,0,0,777.505,457.621Z" transform="translate(-771.499 -454.998)" fill="#cdedfb"/>
            <path id="Path_15" data-name="Path 15" d="M911.263,681.852c2.542,11.836,5.321,23.6,8.2,35.349s5.9,23.455,9.055,35.128c6.3,23.347,13.12,46.555,20.636,69.537,7.532,22.972,15.726,45.743,25.134,68.019q7,16.729,15.211,32.918a307.034,307.034,0,0,0,18.144,31.407,1.267,1.267,0,0,0,1.779.344,1.317,1.317,0,0,0,.338-1.809l0,0,0,0a304.66,304.66,0,0,1-18.147-31.048Q983.359,905.656,976.3,889c-9.485-22.148-17.779-44.828-25.417-67.723-7.62-22.9-14.547-46.051-20.964-69.342q-4.811-17.468-9.225-35.049c-2.936-11.719-5.774-23.471-8.37-35.265l0,0a.541.541,0,0,0-.648-.418A.549.549,0,0,0,911.263,681.852Z" transform="translate(-888.892 -644.998)" fill="#fff" opacity="0.43"/>
          </g>
          <g id="Group_9" data-name="Group 9" transform="translate(0 123.451)">
            <path id="Path_16" data-name="Path 16" d="M637.777,1440.514s4.808-29.611-19.4-64.933c-22.462-32.773-78.411-109.322-87.5-147.681a1.612,1.612,0,0,0-3.155.05c-3.577,18.387-8.914,65.142,14.474,116.9C572.359,1411.6,637.777,1440.514,637.777,1440.514Z" transform="translate(-524.538 -1226.645)" fill="#cdedfb"/>
            <path id="Path_17" data-name="Path 17" d="M593.064,1452.821a69.16,69.16,0,0,0,.608,12.4c.063.515.115,1.03.187,1.544l.245,1.536.491,3.072.619,3.049c.216,1.014.389,2.04.667,3.04a146.841,146.841,0,0,0,7.843,23.609c.744,1.942,1.688,3.793,2.561,5.676l1.329,2.817c.227.466.429.947.678,1.4l.731,1.375,2.928,5.5c.467.928,1.032,1.8,1.56,2.694l1.6,2.669,1.606,2.668.806,1.333.867,1.293,3.469,5.172c.584.857,1.142,1.736,1.749,2.574l1.816,2.518,3.632,5.038,3.688,5c1.235,1.662,2.453,3.335,3.71,4.979q3.741,4.955,7.556,9.853c2.529,3.276,5.11,6.512,7.673,9.761l7.788,9.661c5.2,6.433,10.405,12.855,15.389,19.436,1.269,1.63,2.454,3.316,3.668,4.984.618.827,1.178,1.693,1.757,2.544s1.165,1.7,1.716,2.571c1.064,1.762,2.195,3.488,3.134,5.321l.739,1.357c.12.227.254.449.362.682l.322.7,1.289,2.806,0,.011a.224.224,0,0,0,.413-.174,73.33,73.33,0,0,0-5.593-11.119c-.536-.889-1.113-1.75-1.669-2.627s-1.109-1.755-1.709-2.6c-1.182-1.7-2.336-3.429-3.571-5.091l-1.827-2.515c-.616-.834-1.25-1.651-1.873-2.476l-1.88-2.474-1.9-2.452c-2.531-3.275-5.1-6.518-7.654-9.772-5.111-6.5-10.225-13-15.263-19.55s-9.986-13.168-14.874-19.83l-3.62-5.03-1.809-2.515c-.6-.839-1.163-1.7-1.747-2.55l-3.469-5.113-.867-1.278-.806-1.317-1.606-2.638a182.14,182.14,0,0,1-11.53-21.83,145.7,145.7,0,0,1-8.26-23.268c-.3-.989-.485-2-.738-3l-.712-3.009-.586-3.036-.293-1.52c-.088-.509-.157-1.019-.235-1.528-.146-1.021-.323-2.038-.443-3.062l-.336-3.078a60.512,60.512,0,0,1-.282-6.185.027.027,0,0,0-.026-.031A.036.036,0,0,0,593.064,1452.821Z" transform="translate(-582.04 -1416.61)" fill="#fff" opacity="0.45"/>
          </g>
        </g>
        <g id="Group_14" data-name="Group 14" transform="translate(265.245 3.477)">
          <g id="Group_12" data-name="Group 12">
            <g id="Group_11" data-name="Group 11">
              <path id="Path_18" data-name="Path 18" d="M2240.467,599.048a64.5,64.5,0,0,1-6.676-23.548c-1.491-21.224,10.845-40.767,19.91-59.039,8.33-16.794,14.521-41.818-13.586-39.591-22.393,1.774-48.718,24.09-51.723,47.36-3.554,27.541,9.853,62.272-6.042,87.291-22.24,35-38.28,26.978-38.28,86.038,0,25.236,13.978,39.156,29.989,46.824a67,67,0,0,0,75.539-12.274c17.786-17.214,28.363-41.961,24.788-66.806C2270.771,640.209,2251.09,621.179,2240.467,599.048Z" transform="translate(-2144.07 -476.731)" fill="#cdedfb"/>
              <path id="Path_19" data-name="Path 19" d="M2506.2,843.793a.784.784,0,0,1-.76-.593c-13.93-55.6-21.513-106.01-22.539-149.817-.821-35.078,2.539-66.033,9.985-92.008,12.716-44.363,32.661-58.612,33.5-59.2a.784.784,0,0,1,.894,1.288c-.2.141-20.41,14.626-32.95,58.549-11.591,40.6-18.807,115.328,12.627,240.8a.783.783,0,0,1-.569.95A.79.79,0,0,1,2506.2,843.793Z" transform="translate(-2428.595 -531.589)" fill="#fff"/>
            </g>
            <path id="Path_20" data-name="Path 20" d="M2788.649,850.5a9.372,9.372,0,0,0-3.539-.24c-7.006.8-9.883,8.193-11.94,13.968-1.763,4.947-3.84,10.949-2.8,16.309,1.125,5.793,7.277,10.519,11.743,4.638,5.074-6.686,12.688-16.952,12.735-25.812C2794.872,854.959,2792.4,851.518,2788.649,850.5Z" transform="translate(-2669.939 -790.446)" fill="#b4dcee"/>
          </g>
          <g id="Group_13" data-name="Group 13" transform="translate(85.51 131.113)">
            <path id="Path_21" data-name="Path 21" d="M2763.617,1433.2c2.865-18.876-4-40.546-7.42-60.507-1.812-10.554-2.648-21.028-.952-31.661,1.684-10.572,6.652-22.006,2.073-32.537-9.229-21.219-31.168-11.562-43.735,4.412-14.583,18.537-18.569,48.829-24.108,72.155-3.338,14.061-8.369,28.485-10.129,42.813-2.918,23.737,2.449,40.217,13.805,51.347a34.362,34.362,0,0,0,40.8,5.469C2745.986,1477.98,2758.994,1463.647,2763.617,1433.2Z" transform="translate(-2678.561 -1296.27)" fill="#cdedfb"/>
            <path id="Path_22" data-name="Path 22" d="M2866.43,1605.931a.792.792,0,0,1-.78-.659c-.047-.287-4.819-29.076-4.943-68.8-.115-36.679,3.817-90.466,23.208-138.41a.791.791,0,1,1,1.467.594c-19.294,47.706-23.207,101.275-23.092,137.813.125,39.6,4.875,68.262,4.922,68.547a.793.793,0,0,1-.648.912A1.26,1.26,0,0,1,2866.43,1605.931Z" transform="translate(-2831.565 -1381.359)" fill="#fff"/>
          </g>
        </g>
        <g id="Group_23" data-name="Group 23" transform="translate(3.195 103.874)">
          <rect id="Rectangle_16" data-name="Rectangle 16" width="21.249" height="34.6" transform="translate(358.218 31.869)" fill="url(#linear-gradient-2)"/>
          <path id="Path_23" data-name="Path 23" d="M2741.427,1282.736H2707.08v-9.65a.976.976,0,0,1,.976-.976h31.886a1.485,1.485,0,0,1,1.485,1.485Z" transform="translate(-2354.957 -1245.26)" fill="url(#linear-gradient-3)"/>
          <g id="Group_17" data-name="Group 17" transform="translate(321.798 59.759)">
            <path id="Path_128" data-name="Path 128" d="M0,0H89.182V171.994H0Z" transform="translate(7.298 69.723)" fill="#5ab3d6"/>
            <path id="Path_24" data-name="Path 24" d="M2625.956,1581.606H2520.582l-3.052-80.926,85.865,3.422,26.713,71A4.576,4.576,0,0,1,2625.956,1581.606Z" transform="translate(-2517.53 -1497.021)" fill="url(#linear-gradient-4)"/>
            <path id="Path_25" data-name="Path 25" d="M2643.865,1486.518l-78.676.856.367-8.486,73.53-1.078a5.15,5.15,0,0,1,4.923,5.368Z" transform="translate(-2557.565 -1477.81)" fill="url(#linear-gradient-5)"/>
            <g id="Group_16" data-name="Group 16" transform="translate(26.676 116.436)" opacity="0.89">
              <path id="Path_26" data-name="Path 26" d="M2735.05,2284.175h-50.6a.18.18,0,0,1-.179-.18v-78.206a.18.18,0,0,1,.179-.179h50.6a.179.179,0,0,1,.179.179V2284A.179.179,0,0,1,2735.05,2284.175Z" transform="translate(-2684.269 -2205.609)" fill="url(#linear-gradient-6)"/>
              <g id="Group_15" data-name="Group 15" transform="translate(3.715 4.249)">
                <path id="Path_27" data-name="Path 27" d="M2727.176,2302.24h-19.587a.1.1,0,0,1-.1-.1v-69.872a.1.1,0,0,1,.1-.1h19.587a.1.1,0,0,1,.1.1v69.872A.1.1,0,0,1,2727.176,2302.24Z" transform="translate(-2707.49 -2232.169)" fill="#7d97f4"/>
                <path id="Path_28" data-name="Path 28" d="M2875.586,2302.24H2856a.1.1,0,0,1-.1-.1v-69.872a.1.1,0,0,1,.1-.1h19.586a.1.1,0,0,1,.1.1v69.872A.1.1,0,0,1,2875.586,2302.24Z" transform="translate(-2832.157 -2232.169)" fill="#7d97f4"/>
              </g>
            </g>
          </g>
          <g id="Group_20" data-name="Group 20" transform="translate(0 60.916)">
            <rect id="Rectangle_18" data-name="Rectangle 18" width="89.182" height="171.994" transform="translate(16.526 68.566)" fill="#63b5da"/>
            <path id="Path_29" data-name="Path 29" d="M510.674,1599.583H616.048l4.3-75.85-87.111-1.653-26.712,71A4.576,4.576,0,0,0,510.674,1599.583Z" transform="translate(-506.093 -1516.154)" fill="url(#linear-gradient-7)"/>
            <g id="Group_19" data-name="Group 19" transform="translate(35.372 115.28)" opacity="0.89">
              <path id="Path_30" data-name="Path 30" d="M727.369,2284.175h50.6a.179.179,0,0,0,.179-.18v-78.206a.179.179,0,0,0-.179-.179h-50.6a.179.179,0,0,0-.179.179V2284A.179.179,0,0,0,727.369,2284.175Z" transform="translate(-727.19 -2205.609)" fill="url(#linear-gradient-6)"/>
              <g id="Group_18" data-name="Group 18" transform="translate(3.716 4.249)">
                <path id="Path_31" data-name="Path 31" d="M898.929,2302.24h19.587a.1.1,0,0,0,.1-.1v-69.872a.1.1,0,0,0-.1-.1H898.929a.1.1,0,0,0-.1.1v69.872A.1.1,0,0,0,898.929,2302.24Z" transform="translate(-875.087 -2232.169)" fill="#63b5da"/>
                <path id="Path_32" data-name="Path 32" d="M750.519,2302.24h19.587a.1.1,0,0,0,.1-.1v-69.872a.1.1,0,0,0-.1-.1H750.519a.1.1,0,0,0-.1.1v69.872A.1.1,0,0,0,750.519,2302.24Z" transform="translate(-750.42 -2232.169)" fill="#63b5da"/>
              </g>
            </g>
            <path id="Path_33" data-name="Path 33" d="M672.387,1494.454l83.734-.936-.525-8.478-78.263.6a5.323,5.323,0,0,0-5.153,5.479Z" transform="translate(-645.601 -1485.04)" fill="url(#linear-gradient-9)"/>
          </g>
          <rect id="Rectangle_19" data-name="Rectangle 19" width="247.803" height="195.883" transform="translate(93.917 105.593)" fill="#bdd0fb"/>
          <path id="Path_34" data-name="Path 34" d="M1191.967,1170.36H949.895l-26.82,92.162a7.589,7.589,0,0,0,.985,6.345l2.758,4.132a8.025,8.025,0,0,0,6.682,3.531H1207.57a7.986,7.986,0,0,0,7.245-4.526l2.653-5.633a7.57,7.57,0,0,0,.432-5.315Z" transform="translate(-856.111 -1159.788)" fill="url(#linear-gradient-10)"/>
          <path id="Path_35" data-name="Path 35" d="M1331.5,1114.85H1088.23v-4.177a2.929,2.929,0,0,1,2.925-2.891l237.328-3.5a2.932,2.932,0,0,1,3.014,2.891v7.681Z" transform="translate(-995.097 -1104.278)" fill="url(#linear-gradient-3)"/>
          <path id="Path_36" data-name="Path 36" d="M1667.821,2920.254H1590.99v-11.363a1.672,1.672,0,0,1,1.672-1.672h73.487a1.672,1.672,0,0,1,1.672,1.672Z" transform="translate(-1417.424 -2618.778)" fill="#5297b7"/>
          <path id="Path_37" data-name="Path 37" d="M1719.659,2370.072h-52.44V2269.646a1.876,1.876,0,0,1,1.877-1.876h48.687a1.876,1.876,0,0,1,1.876,1.876Z" transform="translate(-1481.458 -2081.63)" fill="#63b5da"/>
          <path id="Path_38" data-name="Path 38" d="M1715.966,2152.441h-45.034a3.7,3.7,0,0,1-3.7-3.7V2145.5a3.7,3.7,0,0,1,3.446-3.695l45.034-3.127a3.7,3.7,0,0,1,3.96,3.694v6.363A3.7,3.7,0,0,1,1715.966,2152.441Z" transform="translate(-1481.466 -1973.187)" fill="#fff" opacity="0.46"/>
          <g id="Group_21" data-name="Group 21" transform="translate(255.057 133.809)">
            <path id="Path_39" data-name="Path 39" d="M2125.148,1940.67h-.5c-12.953,0-24.291,9.169-24.291,22.121v23.324h24.788V1940.67Z" transform="translate(-2100.36 -1940.67)" fill="#5ab3d6" opacity="0.9"/>
            <path id="Path_40" data-name="Path 40" d="M2100.36,2267.77v68.62c0,2.311,2.712,5.893,5.024,5.893h19.766V2267.77Z" transform="translate(-2100.36 -2215.439)" fill="#5ab3d6" opacity="0.9"/>
            <path id="Path_41" data-name="Path 41" d="M2291,1940.67h-1.259v45.445h24.788v-23.324C2314.526,1949.84,2303.95,1940.67,2291,1940.67Z" transform="translate(-2259.442 -1940.67)" fill="#5ab3d6" opacity="0.9"/>
            <path id="Path_42" data-name="Path 42" d="M2289.73,2342.292h20.528c2.31,0,4.262-3.582,4.262-5.892V2267.78h-24.788v74.513Z" transform="translate(-2259.433 -2215.447)" fill="#5ab3d6" opacity="0.9"/>
          </g>
          <g id="Group_22" data-name="Group 22" transform="translate(118.524 133.809)">
            <path id="Path_43" data-name="Path 43" d="M1271.738,1940.67h-.5c-12.952,0-24.29,9.169-24.29,22.121v23.324h24.788Z" transform="translate(-1246.949 -1940.67)" fill="#63b5da" opacity="0.9"/>
            <path id="Path_44" data-name="Path 44" d="M1246.94,2267.77v68.62c0,2.311,2.712,5.893,5.024,5.893h19.766V2267.77Z" transform="translate(-1246.94 -2215.439)" fill="#63b5da" opacity="0.9"/>
            <path id="Path_45" data-name="Path 45" d="M1437.579,1940.67h-1.259v45.445h24.788v-23.324C1461.108,1949.84,1450.531,1940.67,1437.579,1940.67Z" transform="translate(-1406.022 -1940.67)" fill="#63b5da" opacity="0.9"/>
            <path id="Path_46" data-name="Path 46" d="M1436.32,2342.292h20.528c2.31,0,4.262-3.582,4.262-5.892V2267.78h-24.788v74.513Z" transform="translate(-1406.022 -2215.447)" fill="#63b5da" opacity="0.9"/>
          </g>
          <path id="Path_47" data-name="Path 47" d="M1084.983,1339.815h-75.757a5.876,5.876,0,0,1-5.635-7.535l21.641-73.445a.288.288,0,0,1,.552.162l-21.641,73.445a5.3,5.3,0,0,0,5.084,6.8h75.757a.288.288,0,1,1,0,.576Z" transform="translate(-923.795 -1233.934)" fill="#bdd0fb"/>
          <path id="Path_48" data-name="Path 48" d="M1718.9,2377.835h-7.914a4.792,4.792,0,0,1-4.787-4.787v-58.511a4.792,4.792,0,0,1,4.787-4.787h7.914a4.792,4.792,0,0,1,4.787,4.787v58.511A4.792,4.792,0,0,1,1718.9,2377.835Zm-7.914-67.509a4.217,4.217,0,0,0-4.213,4.211v58.511a4.217,4.217,0,0,0,4.213,4.212h7.914a4.217,4.217,0,0,0,4.212-4.212v-58.511a4.216,4.216,0,0,0-4.212-4.211Z" transform="translate(-1514.202 -2116.894)" fill="#fff"/>
          <path id="Path_49" data-name="Path 49" d="M1856.961,2377.835h-7.914a4.792,4.792,0,0,1-4.787-4.787v-58.511a4.792,4.792,0,0,1,4.787-4.787h7.914a4.792,4.792,0,0,1,4.786,4.787v58.511A4.793,4.793,0,0,1,1856.961,2377.835Zm-7.916-67.509a4.217,4.217,0,0,0-4.212,4.211v58.511a4.217,4.217,0,0,0,4.212,4.212h7.915a4.217,4.217,0,0,0,4.212-4.212v-58.511a4.217,4.217,0,0,0-4.212-4.211Z" transform="translate(-1630.175 -2116.894)" fill="#fff"/>
          <path id="Path_50" data-name="Path 50" d="M1718.9,2773.014h-7.914a4.792,4.792,0,0,1-4.787-4.787V2761.5a4.792,4.792,0,0,1,4.787-4.786h7.914a4.792,4.792,0,0,1,4.787,4.786v6.731A4.792,4.792,0,0,1,1718.9,2773.014Zm-7.914-15.727a4.217,4.217,0,0,0-4.213,4.211v6.731a4.218,4.218,0,0,0,4.213,4.212h7.914a4.216,4.216,0,0,0,4.212-4.212V2761.5a4.217,4.217,0,0,0-4.212-4.211Z" transform="translate(-1514.202 -2492.348)" fill="#fff"/>
          <path id="Path_51" data-name="Path 51" d="M1856.961,2773.014h-7.914a4.792,4.792,0,0,1-4.787-4.787V2761.5a4.792,4.792,0,0,1,4.787-4.786h7.914a4.791,4.791,0,0,1,4.786,4.786v6.731A4.793,4.793,0,0,1,1856.961,2773.014Zm-7.916-15.727a4.217,4.217,0,0,0-4.212,4.211v6.731a4.218,4.218,0,0,0,4.212,4.212h7.915a4.217,4.217,0,0,0,4.212-4.212V2761.5a4.217,4.217,0,0,0-4.212-4.211Z" transform="translate(-1630.175 -2492.348)" fill="#fff"/>
          <path id="Path_52" data-name="Path 52" d="M2112.187,2029.7h-59.671a6.212,6.212,0,0,1-6.206-6.206V1920.179a29.662,29.662,0,0,1,29.629-29.629h12.822a29.663,29.663,0,0,1,29.629,29.629v103.314A6.21,6.21,0,0,1,2112.187,2029.7Zm-36.246-138.574a29.088,29.088,0,0,0-29.055,29.055v103.314a5.638,5.638,0,0,0,5.63,5.632h59.671a5.637,5.637,0,0,0,5.63-5.632V1920.179a29.088,29.088,0,0,0-29.055-29.055Z" transform="translate(-1799.9 -1764.76)" fill="#fff"/>
          <path id="Path_53" data-name="Path 53" d="M1258.947,2029.7h-59.671a6.212,6.212,0,0,1-6.206-6.206V1920.179a29.662,29.662,0,0,1,29.629-29.629h12.823a29.664,29.664,0,0,1,29.631,29.629v103.314A6.214,6.214,0,0,1,1258.947,2029.7ZM1222.7,1891.125a29.087,29.087,0,0,0-29.055,29.055v103.314a5.638,5.638,0,0,0,5.63,5.632h59.671a5.636,5.636,0,0,0,5.63-5.632V1920.179a29.087,29.087,0,0,0-29.055-29.055Z" transform="translate(-1083.164 -1764.76)" fill="#fff"/>
          <path id="Path_54" data-name="Path 54" d="M2141.462,1300.648a.289.289,0,0,1-.275-.205l-16.83-55.622a8.977,8.977,0,0,0-8.558-6.407c-44.062-.347-71.042-.334-72.17.037a.293.293,0,0,1-.366-.171.282.282,0,0,1,.154-.363c1.35-.555,45.933-.288,72.388-.078a9.55,9.55,0,0,1,9.1,6.815l16.83,55.622a.286.286,0,0,1-.192.358A.21.21,0,0,1,2141.462,1300.648Z" transform="translate(-1797.324 -1216.259)" fill="#bdd0fb"/>
        </g>
        <g id="Group_26" data-name="Group 26" transform="translate(73.699 274.048)">
          <g id="Group_24" data-name="Group 24" transform="translate(0 119.072)">
            <rect id="Rectangle_20" data-name="Rectangle 20" width="138.199" height="32.208" transform="translate(2.878 0.902)" fill="url(#linear-gradient-12)"/>
            <path id="Path_55" data-name="Path 55" d="M1089.484,3041.377H948.037a1.236,1.236,0,0,1-1.237-1.237v-11.13h143.51v11.541A.828.828,0,0,1,1089.484,3041.377Z" transform="translate(-946.799 -3010.329)" fill="url(#linear-gradient-13)"/>
            <path id="Path_56" data-name="Path 56" d="M1089.075,2953.6H948.321a1.531,1.531,0,0,1-1.531-1.531V2941.23H1090.3v11.141A1.226,1.226,0,0,1,1089.075,2953.6Z" transform="translate(-946.79 -2936.592)" fill="url(#linear-gradient-13)"/>
            <path id="Path_57" data-name="Path 57" d="M1090.309,2916.878H946.8V2913.5a1.264,1.264,0,0,1,1.264-1.263h140.967a1.28,1.28,0,0,1,1.28,1.28v3.358Z" transform="translate(-946.799 -2912.24)" fill="url(#linear-gradient-12)"/>
          </g>
          <g id="Group_25" data-name="Group 25" transform="translate(39.698)">
            <path id="Path_58" data-name="Path 58" d="M2556.481,3003.736c4.65,2.26,6.29,8.475,3.664,13.876s-8.526,7.948-13.176,5.687-6.291-8.474-3.664-13.875S2551.83,3001.473,2556.481,3003.736Z" transform="translate(-2326.534 -2869.333)" fill="url(#linear-gradient-16)"/>
            <path id="Path_59" data-name="Path 59" d="M2522.22,3003.16l-4.507,9.268a1,1,0,0,1-1.337.462l-5.435-2.643a1,1,0,0,1-.462-1.338l4.507-9.268a1,1,0,0,1,1.337-.462l5.435,2.642A1,1,0,0,1,2522.22,3003.16Z" transform="translate(-2299.927 -2866.114)" fill="url(#linear-gradient-17)"/>
            <path id="Path_60" data-name="Path 60" d="M1800.584,2646.81a25.487,25.487,0,0,1-5.761,11.783,6.958,6.958,0,0,1-6.716,2.211c-24.4-4.9-75.524-36.5-125.177-64.1-3.291-1.83-5.564-3.905-4.014-7.094l3.424-7.042c1.541-3.17,5.228-1.385,8.69.037,52.521,21.579,108.228,40.388,127.352,57.792A6.915,6.915,0,0,1,1800.584,2646.81Z" transform="translate(-1584.267 -2514.751)" fill="url(#linear-gradient-18)"/>
            <path id="Path_61" data-name="Path 61" d="M1633.065,2526.811l-11.38,23.4a.961.961,0,0,1-1.283.444l-5.628-2.738a.959.959,0,0,1-.443-1.282l11.38-23.4a.959.959,0,0,1,1.283-.443l5.628,2.737A.96.96,0,0,1,1633.065,2526.811Z" transform="translate(-1547.151 -2465.943)" fill="url(#linear-gradient-17)"/>
            <path id="Path_62" data-name="Path 62" d="M1310.075,2377.641l-11.38,23.4a.96.96,0,0,1-1.283.444l-5.628-2.738a.959.959,0,0,1-.443-1.283l11.379-23.4a.96.96,0,0,1,1.284-.443l5.628,2.737A.962.962,0,0,1,1310.075,2377.641Z" transform="translate(-1275.834 -2340.638)" fill="url(#linear-gradient-17)"/>
            <path id="Path_63" data-name="Path 63" d="M1303,2270.255l-36.734,75.541-51.177-24.887,36.734-75.54Z" transform="translate(-1211.864 -2232.987)" fill="url(#linear-gradient-18)"/>
            <path id="Path_64" data-name="Path 64" d="M1254.118,2717.527l-4.619,9.5-51.179-24.887,4.62-9.5Z" transform="translate(-1197.777 -2608.7)" fill="url(#linear-gradient-22)"/>
            <path id="Path_65" data-name="Path 65" d="M1248.733,2750.087l-2.3,4.721a3.282,3.282,0,0,1-3.885,1.711A159.349,159.349,0,0,1,1196.3,2734a3.232,3.232,0,0,1-1.053-4.06l2.306-4.742Z" transform="translate(-1194.925 -2636.052)" fill="url(#linear-gradient-17)"/>
            <path id="Path_66" data-name="Path 66" d="M1265.333,2694.564l-1.765,3.628a.877.877,0,0,1-1.174.407l-53.275-25.906a.879.879,0,0,1-.406-1.175l1.765-3.628a.878.878,0,0,1,1.174-.407l53.275,25.907A.877.877,0,0,1,1265.333,2694.564Z" transform="translate(-1206.433 -2587.494)" fill="url(#linear-gradient-24)"/>
            <path id="Path_67" data-name="Path 67" d="M1266.453,2698.253l-1.3,2.669a.647.647,0,0,1-.864.3l-53.692-26.109a.647.647,0,0,1-.3-.864l1.3-2.668a.646.646,0,0,1,.864-.3l53.692,26.109A.646.646,0,0,1,1266.453,2698.253Z" transform="translate(-1207.786 -2590.704)" fill="url(#linear-gradient-25)"/>
            <path id="Path_68" data-name="Path 68" d="M1497.739,2216.537l4.619-9.5-51.177-24.887-4.62,9.5Z" transform="translate(-1406.303 -2179.881)" fill="url(#linear-gradient-22)"/>
            <path id="Path_69" data-name="Path 69" d="M1513.577,2199.415l2.3-4.721a3.281,3.281,0,0,0-1.052-4.111,159.415,159.415,0,0,0-46.271-22.475,3.233,3.233,0,0,0-3.844,1.68l-2.306,4.742Z" transform="translate(-1419.609 -2167.969)" fill="url(#linear-gradient-17)"/>
            <path id="Path_70" data-name="Path 70" d="M1479.208,2254.752l1.765-3.628a.878.878,0,0,0-.407-1.175l-53.275-25.906a.877.877,0,0,0-1.174.406l-1.765,3.629a.878.878,0,0,0,.407,1.175l53.275,25.906A.879.879,0,0,0,1479.208,2254.752Z" transform="translate(-1387.574 -2214.998)" fill="url(#linear-gradient-28)"/>
            <path id="Path_71" data-name="Path 71" d="M1480.792,2257.468l1.3-2.668a.646.646,0,0,0-.3-.864l-53.692-26.11a.645.645,0,0,0-.864.3l-1.3,2.668a.646.646,0,0,0,.3.864l53.692,26.11A.646.646,0,0,0,1480.792,2257.468Z" transform="translate(-1388.923 -2218.195)" fill="url(#linear-gradient-25)"/>
          </g>
        </g>
        <g id="Group_33" data-name="Group 33" transform="translate(0 224.021)">
          <path id="Path_72" data-name="Path 72" d="M804.241,2171.288c-3.828-2.061-9.62,5.486-9.62,5.486s-20.268,2.942-25.716,1.63-10.88-22.526-10.88-22.526-13.152-5.4-5.62,20.385c7.025,24.052,42.218,5.108,42.218,5.108s10.111.421,12.565-1.641S808.07,2173.348,804.241,2171.288Z" transform="translate(-707.848 -2107.389)" fill="url(#linear-gradient-30)"/>
          <path id="Path_73" data-name="Path 73" d="M1034.46,2250.143s1.208-4.619,4.858-5.676,3.613-.344,3.089.67S1035.937,2252.235,1034.46,2250.143Z" transform="translate(-946.735 -2181.762)" fill="url(#linear-gradient-31)"/>
          <path id="Path_74" data-name="Path 74" d="M794.223,2187.242c-7.4-1.385-8.207-18.729-8.207-18.729s-13.917-9.9-9.748,16.64c2.011,12.8,11.652,15.729,25.39,12.144a.4.4,0,0,0,.3-.373c.043-3.395-1.456-6.058-.659-9.435C800.5,2187.432,794.8,2187.35,794.223,2187.242Z" transform="translate(-729.195 -2116.881)" fill="url(#linear-gradient-32)"/>
          <g id="Group_28" data-name="Group 28" transform="translate(73.137 0)">
            <circle id="Ellipse_1" data-name="Ellipse 1" cx="22.814" cy="22.814" r="22.814" fill="#fff"/>
            <path id="Path_75" data-name="Path 75" d="M985.061,1916.252a19.2,19.2,0,1,1,19.2-19.2A19.223,19.223,0,0,1,985.061,1916.252Zm0-37.742a18.54,18.54,0,1,0,18.54,18.539A18.562,18.562,0,0,0,985.061,1878.51Z" transform="translate(-962.247 -1874.238)" fill="#027368"/>
            <path id="Path_76" data-name="Path 76" d="M1052.674,2121.106H1037.88v-6.456a.261.261,0,0,1,.261-.261h14.106a.428.428,0,0,1,.427.427v6.289Z" transform="translate(-1022.746 -2072.935)" fill="#027368"/>
            <path id="Path_77" data-name="Path 77" d="M1075.017,2179.21h-3.52a.227.227,0,0,1-.227-.227v-36.255a.227.227,0,0,1,.227-.227h3.52a.227.227,0,0,1,.227.227v36.255A.228.228,0,0,1,1075.017,2179.21Z" transform="translate(-1050.793 -2096.547)" fill="#027368"/>
            <path id="Path_78" data-name="Path 78" d="M1049.731,2143.285h-15.976a.146.146,0,0,1-.146-.146v-2.535a.146.146,0,0,1,.146-.145h15.976a.146.146,0,0,1,.146.145v2.535A.147.147,0,0,1,1049.731,2143.285Z" transform="translate(-1019.159 -2094.834)" fill="#025048"/>
            <g id="Group_27" data-name="Group 27" transform="translate(9.919 14.41)">
              <path id="Path_79" data-name="Path 79" d="M1005.28,1945.34h4.053a5.513,5.513,0,0,1,3.606.961,3.8,3.8,0,0,1,1.129,3.057,4.183,4.183,0,0,1-.6,2.309,2.413,2.413,0,0,1-1.629,1.125v.108a3.08,3.08,0,0,1,1.944,1.26,4.464,4.464,0,0,1,.6,2.454,4.722,4.722,0,0,1-1.157,3.384,4.15,4.15,0,0,1-3.166,1.222h-4.779V1945.34Zm2.781,6.386h1.358a1.551,1.551,0,0,0,1.313-.5,2.44,2.44,0,0,0,.381-1.488,1.937,1.937,0,0,0-.435-1.417,1.882,1.882,0,0,0-1.368-.429h-1.25Zm0,2.466v4.443h1.488a1.654,1.654,0,0,0,1.374-.565,2.783,2.783,0,0,0,.451-1.749q0-2.129-1.869-2.129Z" transform="translate(-1005.28 -1945.34)" fill="#027368"/>
              <path id="Path_80" data-name="Path 80" d="M1079.08,1961.22v-15.88h2.781v15.88Z" transform="translate(-1067.273 -1945.34)" fill="#027368"/>
              <path id="Path_81" data-name="Path 81" d="M1127.533,1953.128a9.7,9.7,0,0,1-1.6,6.012,5.47,5.47,0,0,1-4.611,2.08h-3.889v-15.88h4.248a5.089,5.089,0,0,1,4.311,2.048A9.355,9.355,0,0,1,1127.533,1953.128Zm-3.03.087q0-5.323-2.932-5.323h-1.184v10.743h.955a2.567,2.567,0,0,0,2.39-1.352A8.414,8.414,0,0,0,1124.5,1953.215Z" transform="translate(-1099.488 -1945.34)" fill="#027368"/>
            </g>
          </g>
          <path id="Path_82" data-name="Path 82" d="M1061.324,2258.956s-4.254-.262-4.188,2.421-.2,6.476,2.094,6.641,6.529.594,6.863-2.892S1061.718,2257.713,1061.324,2258.956Z" transform="translate(-965.783 -2194.175)" fill="url(#linear-gradient-33)"/>
          <g id="Group_29" data-name="Group 29" transform="translate(15.34 200.098)">
            <path id="Path_83" data-name="Path 83" d="M603.4,3108.692a3.677,3.677,0,0,0-3.656-2.682l-1.673.053a25.85,25.85,0,0,0-15.221,9.735.157.157,0,0,0,.115.248c2.782.225,9.245.672,14.717.519,3.649-.1,5.6-.245,6.574-.645A30.43,30.43,0,0,0,603.4,3108.692Z" transform="translate(-582.693 -3106.009)" fill="url(#linear-gradient-34)"/>
            <path id="Path_84" data-name="Path 84" d="M597.064,3165.911a19.7,19.7,0,0,0,6.513-.931c0,.364,0,.732-.011,1.115a.721.721,0,0,1-.688.732l-20.038-.129a.916.916,0,0,1-.736-1.333C584.731,3165.583,591.422,3166.069,597.064,3165.911Z" transform="translate(-582.011 -3155.545)" fill="#025373"/>
          </g>
          <path id="Path_85" data-name="Path 85" d="M660.57,3070.41l1.4,6.737a1.1,1.1,0,0,0,.941.907,9.31,9.31,0,0,0,2.168-.035,1.385,1.385,0,0,0,1.1-1.627l-.973-5.982Z" transform="translate(-632.662 -2876.007)" fill="url(#linear-gradient-35)"/>
          <g id="Group_30" data-name="Group 30" transform="translate(50.389 200.103)">
            <path id="Path_86" data-name="Path 86" d="M807.61,3165.911a19.7,19.7,0,0,1-6.513-.931c0,.364,0,.732.011,1.115a.721.721,0,0,0,.688.732l20.038-.129a.916.916,0,0,0,.736-1.333C819.943,3165.583,813.253,3166.069,807.61,3165.911Z" transform="translate(-801.096 -3155.551)" fill="#025373"/>
            <path id="Path_87" data-name="Path 87" d="M822.565,3115.857a.856.856,0,0,0-.08-.15c-1.77-2.473-6.276-7.4-15.182-9.532l-4.273-.134s-1.9,3.306-1.939,9.43a19.726,19.726,0,0,0,6.513.931C813.247,3116.559,819.938,3116.073,822.565,3115.857Z" transform="translate(-801.09 -3106.041)" fill="url(#linear-gradient-36)"/>
          </g>
          <path id="Path_88" data-name="Path 88" d="M808.27,3060.125c.048.318.634,5.158.859,7.036a.932.932,0,0,0,.784.84,9.785,9.785,0,0,0,2.934-.045,1.265,1.265,0,0,0,.958-1.269v-7.6Z" transform="translate(-756.732 -2866.498)" fill="url(#linear-gradient-37)"/>
          <path id="Path_89" data-name="Path 89" d="M644.307,2513.411s10.3,39.162,10.119,88.444a1.906,1.906,0,0,1-1.513,1.859,22.179,22.179,0,0,1-4.777.552,1.77,1.77,0,0,1-1.686-1.479c-1.445-8.473-9.737-56.208-14.461-63.958,0,0-3.109,42.515-2.115,64.572a1.048,1.048,0,0,1-.922,1.088,17.536,17.536,0,0,1-3.835-.011,1.4,1.4,0,0,1-1.246-1.187c-1.029-7.172-6.953-49.858-6.7-80.608.015-1.734,4.585-9.274,4.585-9.274h22.553Z" transform="translate(-596.198 -2408.117)" fill="url(#linear-gradient-38)"/>
          <path id="Path_90" data-name="Path 90" d="M575.744,2211.186c-2.8-7.667-1.786-16.923-1.774-17.016l.771.088c-.01.091-1,9.17,1.733,16.661Z" transform="translate(-559.758 -2139.951)" fill="url(#linear-gradient-39)"/>
          <path id="Path_91" data-name="Path 91" d="M497.789,2132.089a17.653,17.653,0,0,1,4.272-3.165c2.041-.993,4.508-1.24,6.739-1.632q3.852-.677,7.743-1.08a88.45,88.45,0,0,1,11.154-.064c1.256.024,5.582,1.282,8.812,2.234a9.821,9.821,0,0,1,7.057,8.8c.032.541.043,1.078.038,1.6a77.737,77.737,0,0,1-1.769,18.141c-.048-.048-7.543,23.948-6.2,33.651a1.514,1.514,0,0,1-1.267,1.717c-4.486.667-17.869,2.326-24.817-.46a1.058,1.058,0,0,1-.667-.992,117.249,117.249,0,0,0-5.55-33.857q-.29-.936-.488-1.9c-3.828,8.079-3.68,14.664-1.851,19.817a30.741,30.741,0,0,1-7.161,5.237c-6.383-7.891-9.191-17.749-6.934-27.728a43.65,43.65,0,0,1,4.544-11.349A37.1,37.1,0,0,1,497.789,2132.089Z" transform="translate(-486.125 -2082.686)" fill="url(#linear-gradient-40)"/>
          <path id="Path_92" data-name="Path 92" d="M553.006,2445.721c-1.907-1.07-9.3-5.663-12.276-14.042a30.8,30.8,0,0,1-7.161,5.235,59.514,59.514,0,0,0,13.087,11.639h0c.2,4.353,3.547,5.964,4.313,7.375s-.322,1.088.162,2.861,5.559-2.821,6.769-3.869.483-3.948.483-3.948a16.1,16.1,0,0,1,.4-1.812C559.108,2447.953,553.032,2445.731,553.006,2445.721Z" transform="translate(-525.98 -2339.464)" fill="url(#linear-gradient-41)"/>
          <g id="Group_32" data-name="Group 32" transform="translate(25.386 13.031)">
            <path id="Path_93" data-name="Path 93" d="M665.979,2055.284l-1.339,13.686s7.7,2.318,13.3-1.632L674,2054.9Z" transform="translate(-661.466 -2035.994)" fill="url(#linear-gradient-42)"/>
            <g id="Group_31" data-name="Group 31">
              <path id="Path_94" data-name="Path 94" d="M692.4,1976.5c.091.237.478,17.057.478,17.057l-9.609.016-2.736-15.886S690.865,1972.526,692.4,1976.5Z" transform="translate(-674.814 -1968.875)" fill="url(#linear-gradient-43)"/>
              <path id="Path_95" data-name="Path 95" d="M653.809,1947.524a1.388,1.388,0,0,0-.432,1.138l.774,8.353a1.327,1.327,0,0,0,.086.368c.256.653,1.238,2.668,3.283,1.551,1.744-.954,3.358-1.8,4.67-1.846a1.379,1.379,0,0,1,1.413,1.36,51.562,51.562,0,0,1-.373,7.594,1.376,1.376,0,0,1-1.451,1.173,38.321,38.321,0,0,1-8.518-1.411,1.381,1.381,0,0,1-.936-1.065c-.406-2.2-1.573-8.381-2.171-10.074-.555-1.573-2.713-2.116-3.721-2.288a1.388,1.388,0,0,1-.931-.608,3.04,3.04,0,0,1,.973-4.667,1.381,1.381,0,0,0,.427-1.877,3.053,3.053,0,0,1,.822-4.411,4.3,4.3,0,0,1,5.19-.036,1.435,1.435,0,0,0,1.718-.1.913.913,0,0,1,.885-.2,1.339,1.339,0,0,0,1.659-.948,3.534,3.534,0,0,1,3.534-2.795c4.254-.234,5.753,4.2,5.279,7.1s-5.1,2.9-7.612,2.058C656.535,1945.279,654.67,1946.717,653.809,1947.524Z" transform="translate(-644.801 -1936.725)" fill="url(#linear-gradient-44)"/>
              <path id="Path_96" data-name="Path 96" d="M655.235,2036.066s.171-4.96-1.822-5.72-4.417.424-3.075,3.71C652.01,2038.144,655.235,2036.066,655.235,2036.066Z" transform="translate(-649.127 -2015.182)" fill="url(#linear-gradient-45)"/>
            </g>
          </g>
        </g>
        <g id="Group_42" data-name="Group 42" transform="translate(67.878 7.49)">
          <g id="Group_41" data-name="Group 41" transform="translate(125.102 40.409)">
            <circle id="Ellipse_11" data-name="Ellipse 11" cx="27.41" cy="27.41" r="27.41" transform="translate(3.733 3.729)" fill="url(#linear-gradient-46)"/>
            <circle id="Ellipse_12" data-name="Ellipse 12" cx="26.5" cy="26.5" r="26.5" transform="translate(4.644 4.639)" fill="url(#linear-gradient-47)"/>
            <path id="Path_103" data-name="Path 103" d="M1746.016,805.991a.832.832,0,0,1-.381-.091.847.847,0,0,1-.374-1.139,25.2,25.2,0,0,1,22.607-13.92,25.477,25.477,0,0,1,4.566.411.848.848,0,1,1-.3,1.669,23.876,23.876,0,0,0-4.262-.384,23.518,23.518,0,0,0-21.094,12.988A.85.85,0,0,1,1746.016,805.991Z" transform="translate(-1736.724 -785.01)" fill="#fff" opacity="0.7"/>
            <circle id="Ellipse_13" data-name="Ellipse 13" cx="22.428" cy="22.428" r="22.428" transform="translate(0 31.718) rotate(-45)" fill="#fff" opacity="0.78"/>
            <g id="Group_40" data-name="Group 40" transform="translate(21.843 15.844)">
              <path id="Path_104" data-name="Path 104" d="M1836.584,885.986v-2.44a19.912,19.912,0,0,1-6.847-1.484,1.412,1.412,0,0,1-.781-1.667l.619-2.273a1.423,1.423,0,0,1,1.931-.931,16.534,16.534,0,0,0,6.321,1.331c2.449,0,4.277-.83,4.277-2.532,0-1.536-1.411-2.449-4.817-3.363-4.859-1.329-8.346-3.446-8.346-7.724,0-3.862,2.824-6.81,7.724-7.6v-2.44a1.422,1.422,0,0,1,1.422-1.422h1.433a1.422,1.422,0,0,1,1.423,1.422v2.19a18.127,18.127,0,0,1,5.426.974,1.417,1.417,0,0,1,.885,1.709l-.57,2.1a1.416,1.416,0,0,1-1.871.957,14.806,14.806,0,0,0-5.323-.966c-2.907,0-3.737,1.2-3.737,2.285,0,1.33,1.744,2.243,5.522,3.4,5.4,1.619,7.641,3.862,7.641,7.89,0,3.7-2.74,7.019-8.055,7.849v2.731a1.422,1.422,0,0,1-1.422,1.422H1838A1.424,1.424,0,0,1,1836.584,885.986Z" transform="translate(-1828.905 -853.44)" fill="url(#linear-gradient-48)"/>
            </g>
          </g>
          <g id="Group_48" data-name="Group 48" transform="translate(65.748 80.008)">
            <circle id="Ellipse_11-2" data-name="Ellipse 11" cx="37.411" cy="37.411" r="37.411" transform="translate(5.095 5.089)" fill="url(#linear-gradient-46)"/>
            <circle id="Ellipse_12-2" data-name="Ellipse 12" cx="36.169" cy="36.169" r="36.169" transform="translate(6.338 6.332)" fill="url(#linear-gradient-47)"/>
            <path id="Path_103-2" data-name="Path 103" d="M1746.325,811.518a1.138,1.138,0,0,1-.52-.125,1.157,1.157,0,0,1-.511-1.555,34.4,34.4,0,0,1,30.856-19,34.786,34.786,0,0,1,6.232.561,1.158,1.158,0,1,1-.415,2.278,32.584,32.584,0,0,0-5.817-.524,32.1,32.1,0,0,0-28.79,17.726A1.16,1.16,0,0,1,1746.325,811.518Z" transform="translate(-1733.641 -782.884)" fill="#fff" opacity="0.7"/>
            <circle id="Ellipse_13-2" data-name="Ellipse 13" cx="30.611" cy="30.611" r="30.611" transform="translate(0 43.291) rotate(-45)" fill="#fff" opacity="0.78"/>
            <g id="Group_40-2" data-name="Group 40" transform="translate(29.812 21.625)">
              <path id="Path_104-2" data-name="Path 104" d="M1839.385,897.86v-3.33a27.174,27.174,0,0,1-9.345-2.026,1.927,1.927,0,0,1-1.065-2.275l.845-3.1a1.941,1.941,0,0,1,2.635-1.271,22.567,22.567,0,0,0,8.627,1.817c3.343,0,5.837-1.133,5.837-3.457,0-2.1-1.926-3.343-6.575-4.59-6.631-1.814-11.392-4.7-11.392-10.542,0-5.271,3.854-9.3,10.542-10.372v-3.33a1.941,1.941,0,0,1,1.941-1.941h1.957a1.941,1.941,0,0,1,1.941,1.941v2.989a24.763,24.763,0,0,1,7.407,1.33,1.935,1.935,0,0,1,1.208,2.332l-.778,2.869a1.934,1.934,0,0,1-2.555,1.306,20.21,20.21,0,0,0-7.264-1.319c-3.968,0-5.1,1.644-5.1,3.118,0,1.815,2.38,3.061,7.537,4.647,7.367,2.21,10.429,5.271,10.429,10.769,0,5.044-3.741,9.579-10.994,10.713v3.727a1.942,1.942,0,0,1-1.941,1.941h-1.957A1.944,1.944,0,0,1,1839.385,897.86Z" transform="translate(-1828.905 -853.44)" fill="url(#linear-gradient-48)"/>
            </g>
          </g>
          <g id="Group_49" data-name="Group 49" transform="translate(40.651 0)">
            <circle id="Ellipse_11-3" data-name="Ellipse 11" cx="37.411" cy="37.411" r="37.411" transform="translate(5.095 5.089)" fill="url(#linear-gradient-46)"/>
            <circle id="Ellipse_12-3" data-name="Ellipse 12" cx="36.169" cy="36.169" r="36.169" transform="translate(6.338 6.332)" fill="url(#linear-gradient-47)"/>
            <path id="Path_103-3" data-name="Path 103" d="M1746.325,811.518a1.138,1.138,0,0,1-.52-.125,1.157,1.157,0,0,1-.511-1.555,34.4,34.4,0,0,1,30.856-19,34.786,34.786,0,0,1,6.232.561,1.158,1.158,0,1,1-.415,2.278,32.584,32.584,0,0,0-5.817-.524,32.1,32.1,0,0,0-28.79,17.726A1.16,1.16,0,0,1,1746.325,811.518Z" transform="translate(-1733.641 -782.884)" fill="#fff" opacity="0.7"/>
            <circle id="Ellipse_13-3" data-name="Ellipse 13" cx="30.611" cy="30.611" r="30.611" transform="translate(0 43.291) rotate(-45)" fill="#fff" opacity="0.78"/>
            <g id="Group_40-3" data-name="Group 40" transform="translate(29.812 21.625)">
              <path id="Path_104-3" data-name="Path 104" d="M1839.385,897.86v-3.33a27.174,27.174,0,0,1-9.345-2.026,1.927,1.927,0,0,1-1.065-2.275l.845-3.1a1.941,1.941,0,0,1,2.635-1.271,22.567,22.567,0,0,0,8.627,1.817c3.343,0,5.837-1.133,5.837-3.457,0-2.1-1.926-3.343-6.575-4.59-6.631-1.814-11.392-4.7-11.392-10.542,0-5.271,3.854-9.3,10.542-10.372v-3.33a1.941,1.941,0,0,1,1.941-1.941h1.957a1.941,1.941,0,0,1,1.941,1.941v2.989a24.763,24.763,0,0,1,7.407,1.33,1.935,1.935,0,0,1,1.208,2.332l-.778,2.869a1.934,1.934,0,0,1-2.555,1.306,20.21,20.21,0,0,0-7.264-1.319c-3.968,0-5.1,1.644-5.1,3.118,0,1.815,2.38,3.061,7.537,4.647,7.367,2.21,10.429,5.271,10.429,10.769,0,5.044-3.741,9.579-10.994,10.713v3.727a1.942,1.942,0,0,1-1.941,1.941h-1.957A1.944,1.944,0,0,1,1839.385,897.86Z" transform="translate(-1828.905 -853.44)" fill="url(#linear-gradient-48)"/>
            </g>
          </g>
          <g id="Group_50" data-name="Group 50" transform="translate(0 42.344)">
            <circle id="Ellipse_11-4" data-name="Ellipse 11" cx="20.885" cy="20.885" r="20.885" transform="translate(2.845 2.841)" fill="url(#linear-gradient-46)"/>
            <circle id="Ellipse_12-4" data-name="Ellipse 12" cx="20.192" cy="20.192" r="20.192" transform="translate(3.538 3.535)" fill="url(#linear-gradient-47)"/>
            <path id="Path_103-4" data-name="Path 103" d="M1745.815,802.384a.635.635,0,0,1-.29-.069.646.646,0,0,1-.285-.868,19.2,19.2,0,0,1,17.226-10.607,19.425,19.425,0,0,1,3.479.313.646.646,0,1,1-.232,1.272,18.183,18.183,0,0,0-3.247-.293,17.919,17.919,0,0,0-16.073,9.9A.648.648,0,0,1,1745.815,802.384Z" transform="translate(-1738.734 -786.398)" fill="#fff" opacity="0.7"/>
            <circle id="Ellipse_13-4" data-name="Ellipse 13" cx="17.089" cy="17.089" r="17.089" transform="translate(0 24.168) rotate(-45)" fill="#fff" opacity="0.78"/>
            <g id="Group_40-4" data-name="Group 40" transform="translate(16.643 12.073)">
              <path id="Path_104-4" data-name="Path 104" d="M1834.756,878.239V876.38a15.179,15.179,0,0,1-5.218-1.131,1.077,1.077,0,0,1-.595-1.27l.472-1.732a1.084,1.084,0,0,1,1.471-.71,12.6,12.6,0,0,0,4.816,1.014c1.866,0,3.258-.633,3.258-1.93,0-1.17-1.075-1.866-3.67-2.562-3.7-1.013-6.36-2.626-6.36-5.885,0-2.943,2.152-5.189,5.885-5.79v-1.859a1.084,1.084,0,0,1,1.084-1.084h1.093a1.084,1.084,0,0,1,1.083,1.084v1.669a13.817,13.817,0,0,1,4.135.742,1.08,1.08,0,0,1,.674,1.3l-.434,1.6a1.079,1.079,0,0,1-1.426.729,11.284,11.284,0,0,0-4.056-.736c-2.215,0-2.848.918-2.848,1.741,0,1.013,1.328,1.709,4.208,2.594,4.113,1.234,5.822,2.943,5.822,6.012,0,2.816-2.088,5.348-6.138,5.98v2.081a1.084,1.084,0,0,1-1.084,1.084h-1.092A1.085,1.085,0,0,1,1834.756,878.239Z" transform="translate(-1828.905 -853.44)" fill="url(#linear-gradient-48)"/>
            </g>
          </g>
        </g>
        <g id="Group_46" data-name="Group 46" transform="translate(320.574 221.076)">
          <g id="Group_43" data-name="Group 43" transform="translate(17.687 38.555)">
            <path id="Path_105" data-name="Path 105" d="M2805.017,2118.666c-3.044-11.261-12.451-20.512-22.934-22.849a3.53,3.53,0,0,1-2.588-4.312c0-.013.006-.028.01-.04,1.518-6.548-2.68-11.766-9.011-13.235s-12.4,1.368-13.915,7.918a14.5,14.5,0,0,0,3.195,12.61,3.522,3.522,0,0,1,.133,4.667c-6.388,7.484-8.986,18.906-6.223,29.122,4.068,15.048,18.219,21.771,32.394,17.937S2809.085,2133.714,2805.017,2118.666Z" transform="translate(-2728.25 -2077.852)" fill="url(#linear-gradient-58)"/>
            <path id="Path_106" data-name="Path 106" d="M2601.152,2217a1.146,1.146,0,0,1,.312-.1c.946-.15,1.319.92,2.147,1a.414.414,0,0,0,.414-.156c.224-.41-.068-.7-.181-1.064a1.982,1.982,0,0,1,.055-1.153,4.127,4.127,0,0,1,.728-1.331,3.721,3.721,0,0,0,1.258,2.371,3.573,3.573,0,0,1,.841,4.009c-1.289,5.43-3.236,12.615,4.976,17.682s19.353-10.221,19.353-10.221l-5.333,18.084s-8.631,6.625-18.985-2.265-3.863-22.215-3.854-22.235a12.171,12.171,0,0,1-1.5-.76,3.587,3.587,0,0,1-.894-2.3,2.053,2.053,0,0,1,.029-.832A1.215,1.215,0,0,1,2601.152,2217Z" transform="translate(-2600.464 -2192.378)" fill="url(#linear-gradient-59)"/>
            <path id="Path_107" data-name="Path 107" d="M2748.587,2284.4a16.574,16.574,0,0,1,16.293,3.824,4.168,4.168,0,0,1,1.279,4.125c-1.68,6.681-6.073,26.407-1.736,34.825,0,0-7.208,8.252-15.36,1.865,0,0-3.9-15.633-8.748-22.437-3.348-4.7,4.858-17.97,6.937-21.177A2.5,2.5,0,0,1,2748.587,2284.4Z" transform="translate(-2717.274 -2250.737)" fill="url(#linear-gradient-60)"/>
            <path id="Path_108" data-name="Path 108" d="M2811.429,2204.94s3.781,10.086,4.136,14.558a7.68,7.68,0,0,1-7.729-1.1s-.584-10.133-1.185-11.938Z" transform="translate(-2773.664 -2184.608)" fill="url(#linear-gradient-61)"/>
            <path id="Path_109" data-name="Path 109" d="M2775.8,2118.412s-9.139,13.316-3.455,17.026,12.19-5.753,12.19-5.753,2.043-7.233-.282-9.629S2775.8,2118.412,2775.8,2118.412Z" transform="translate(-2743.278 -2111.829)" fill="url(#linear-gradient-62)"/>
            <path id="Path_110" data-name="Path 110" d="M2804.8,2097.752s-4.294,1.1-4.862,3.067,6.187,3.646,8.071,3.7l1.665,7.845s4.346-7.492,2.488-11.736S2804.8,2097.752,2804.8,2097.752Z" transform="translate(-2768.001 -2094.391)" fill="url(#linear-gradient-63)"/>
            <path id="Path_111" data-name="Path 111" d="M2846.83,2170.622s3.574-4.3,5.079-1.569-3.2,4.893-4.865,3.569Z" transform="translate(-2807.415 -2153.699)" fill="url(#linear-gradient-64)"/>
            <path id="Path_112" data-name="Path 112" d="M2734.85,2774.48c.042.712-1.1,6.389-1.728,9.419a4.969,4.969,0,0,0,.6,3.552l24.339,39.256a5.411,5.411,0,0,1,.648,1.532,34.077,34.077,0,0,1,1.061,10.567l-1.173,2.558,5.255-1.3.88-14.194-1.512-.883a7.11,7.11,0,0,1-2.934-3.307c-2.23-5.14-7.777-18.23-9.264-24.631-1.689-7.276-9.914-13.055-9.914-13.055l1.361-3.4Z" transform="translate(-2711.812 -2663.031)" fill="url(#linear-gradient-65)"/>
            <path id="Path_113" data-name="Path 113" d="M2895.642,3099.316s-2.936-4.465-3.3-6.217-1.36-4.841-3.1-3.873c0,0-.667,8.559-.319,11.893s-3.713,3.3-3.713,3.3a3.783,3.783,0,0,0-1.919,1.012.951.951,0,0,0,.667,1.587,22.812,22.812,0,0,0,5.647-.427,1.73,1.73,0,0,0,1.365-1.622l.4-9.844,3.682,4.471Z" transform="translate(-2837.828 -2927.269)" fill="url(#linear-gradient-66)"/>
            <path id="Path_114" data-name="Path 114" d="M2813.482,2807.02s1.5,35.5,1.71,40.538-.49,16.237-5.483,19.673l2.23,1.587a29.407,29.407,0,0,0,5.307-6.937c2.923-5.111,3.817-6.049,3.817-6.049l-1.04-2.031a4.511,4.511,0,0,1-.421-2.885c.992-5.309,4.3-22.968,5.227-26.773,1.089-4.494,1.061-10.466-3.118-15.387S2813.482,2807.02,2813.482,2807.02Z" transform="translate(-2776.234 -2689.512)" fill="url(#linear-gradient-67)"/>
            <path id="Path_115" data-name="Path 115" d="M2806.551,3127.463a.311.311,0,0,0,.307-.272c.146-1.187.757-5.947,1.307-7.186.63-1.421,2.663-7.385-.149-7.834,0,0-6.776,10.311-8.088,11.707a2.619,2.619,0,0,1-3.016.536,5.04,5.04,0,0,0-2.254,1.685.923.923,0,0,0,.755,1.468l4.694-.043a3.3,3.3,0,0,0,3.056-2.139c.787-2.078,2.149-5.132,3.777-6.506l-.7,8.246a.312.312,0,0,0,.313.339Z" transform="translate(-2763.437 -2946.696)" fill="url(#linear-gradient-66)"/>
            <path id="Path_116" data-name="Path 116" d="M2740.06,2529.741s1.121,3.35-.4,8.933l-9.414,35.384a1.091,1.091,0,0,0,.707,1.313,67.254,67.254,0,0,0,26.513,2.708,1.537,1.537,0,0,0,1.378-1.223c.816-4.028,3.6-17.776,4.171-20.6,2.183-10.761,4.63-22.37-7.223-29.138C2750.435,2529.534,2745.424,2530.992,2740.06,2529.741Z" transform="translate(-2709.454 -2455.245)" fill="url(#linear-gradient-69)"/>
            <path id="Path_117" data-name="Path 117" d="M2857.149,2316.294s11.647,9.313,14.738,22.281S2855.4,2353.3,2855.4,2353.3s-2.717-2.921-5.858-1.8-.342-5.182,3.354-5.235,2.04,2.9,7.223.436c5.051-2.4,8.063-9.6-5.137-20.169a5.893,5.893,0,0,1-1.76-2.305C2850.583,2317.914,2852.508,2313.709,2857.149,2316.294Z" transform="translate(-2808.556 -2277.497)" fill="url(#linear-gradient-70)"/>
            <path id="Path_118" data-name="Path 118" d="M2924.337,2168.229l-.276-.194c2.537-3.6,2.864-8.8.85-13.568-1.6-3.787-4.461-7.249-9.005-10.9-1.693-1.36-3.49-2.65-5.225-3.9-2.091-1.5-4.252-3.054-6.255-4.743-1.8-1.52-3.7-3.4-4.1-5.869a12.909,12.909,0,0,1,.167-3.8c.281-1.981.545-3.853-.616-5.286l.263-.211c1.254,1.547.966,3.579.688,5.545a12.677,12.677,0,0,0-.168,3.7c.381,2.357,2.226,4.187,3.98,5.665,1.993,1.68,4.15,3.229,6.235,4.728,1.741,1.249,3.539,2.542,5.24,3.907,4.59,3.685,7.484,7.188,9.1,11.028C2927.28,2159.21,2926.941,2164.533,2924.337,2168.229Z" transform="translate(-2851.978 -2113.055)" fill="#bdd0fb"/>
            <path id="Path_119" data-name="Path 119" d="M2948.1,2281.327l-.317-.115c1.726-4.776,1.221-10.644-1.387-16.1-2.585-5.409-6.812-9.819-10.206-13.056l.232-.243c3.414,3.258,7.668,7.7,10.278,13.156C2949.346,2270.5,2949.856,2276.467,2948.1,2281.327Z" transform="translate(-2882.479 -2223.979)" fill="#bdd0fb"/>
          </g>
          <g id="Group_45" data-name="Group 45" transform="translate(0 0)">
            <circle id="Ellipse_14" data-name="Ellipse 14" cx="20.684" cy="20.684" r="20.684" fill="#fff"/>
            <path id="Path_120" data-name="Path 120" d="M2510.38,1874.74a17.41,17.41,0,1,1,17.41,17.409A17.429,17.429,0,0,1,2510.38,1874.74Zm.6,0a16.81,16.81,0,1,0,16.81-16.81A16.828,16.828,0,0,0,2510.98,1874.74Z" transform="translate(-2507.105 -1854.055)" fill="#03a688"/>
            <path id="Path_121" data-name="Path 121" d="M2578.871,2077.889h13.412v-5.828a.261.261,0,0,0-.261-.26H2579.3a.428.428,0,0,0-.427.427v5.662Z" transform="translate(-2564.637 -2034.214)" fill="#027368"/>
            <path id="Path_122" data-name="Path 122" d="M2610.158,2130.564h3.148a.228.228,0,0,0,.228-.228v-32.829a.227.227,0,0,0-.228-.227h-3.148a.227.227,0,0,0-.228.227v32.829A.227.227,0,0,0,2610.158,2130.564Z" transform="translate(-2590.729 -2055.617)" fill="#03a688"/>
            <path id="Path_123" data-name="Path 123" d="M2574.545,2097.992H2589a.146.146,0,0,0,.146-.146v-2.27a.146.146,0,0,0-.146-.146h-14.458a.147.147,0,0,0-.146.146v2.27A.146.146,0,0,0,2574.545,2097.992Z" transform="translate(-2560.883 -2054.063)" fill="#045d54"/>
            <g id="Group_44" data-name="Group 44" transform="translate(8.074 13.066)">
              <path id="Path_124" data-name="Path 124" d="M2540.38,1918.53h3.673a5.007,5.007,0,0,1,3.27.872,3.449,3.449,0,0,1,1.023,2.773,3.79,3.79,0,0,1-.542,2.093,2.188,2.188,0,0,1-1.477,1.019v.1a2.794,2.794,0,0,1,1.763,1.142,4.042,4.042,0,0,1,.542,2.226,4.271,4.271,0,0,1-1.049,3.067,3.76,3.76,0,0,1-2.87,1.109h-4.332v-14.4Zm2.521,5.79h1.23a1.408,1.408,0,0,0,1.192-.453,2.206,2.206,0,0,0,.345-1.349,1.755,1.755,0,0,0-.394-1.285,1.71,1.71,0,0,0-1.24-.389H2542.9v3.475Zm0,2.237v4.028h1.349a1.5,1.5,0,0,0,1.246-.512,2.535,2.535,0,0,0,.408-1.585q0-1.93-1.694-1.931Z" transform="translate(-2540.38 -1918.53)" fill="#03a688"/>
              <path id="Path_125" data-name="Path 125" d="M2607.3,1932.927v-14.4h2.521v14.4Z" transform="translate(-2596.594 -1918.53)" fill="#03a688"/>
              <path id="Path_126" data-name="Path 126" d="M2651.229,1925.59a8.8,8.8,0,0,1-1.453,5.45,4.959,4.959,0,0,1-4.18,1.886h-3.526v-14.4h3.851a4.618,4.618,0,0,1,3.91,1.856A8.494,8.494,0,0,1,2651.229,1925.59Zm-2.747.08q0-4.826-2.659-4.825h-1.074v9.74h.867a2.325,2.325,0,0,0,2.167-1.227A7.648,7.648,0,0,0,2648.482,1925.67Z" transform="translate(-2625.801 -1918.53)" fill="#03a688"/>
            </g>
          </g>
          <path id="Path_127" data-name="Path 127" d="M2594.309,2221.725a13.56,13.56,0,0,0-.028,2.865,1.1,1.1,0,0,0,.458.891c.725.363,2.269-.656,2.883-1.007a1.147,1.147,0,0,0,.553-.526,1.191,1.191,0,0,0-.08-.783,11.243,11.243,0,0,0-1.163-2.641c-.328-.491-1.187-1.466-1.835-1C2594.513,2219.95,2594.389,2221.081,2594.309,2221.725Z" transform="translate(-2577.531 -2158.203)" fill="url(#linear-gradient-71)"/>
        </g>
      </g>
    </g>
  </g>
</svg>
