<svg xmlns="http://www.w3.org/2000/svg" width="113.964" height="115.929" viewBox="0 0 113.964 115.929">
  <g id="Appliances" transform="translate(-0.5)">
    <path id="Path_138" data-name="Path 138" d="M256.5,0h51.087V110.034H256.5Zm0,0" transform="translate(-193.123)" fill="#e3584b"/>
    <path id="Path_139" data-name="Path 139" d="M256.5,144h51.087v3.93H256.5Zm0,0" transform="translate(-193.123 -108.632)" fill="#cc4f43"/>
    <path id="Path_140" data-name="Path 140" d="M288.5,48h3.93V67.649H288.5Zm0,0" transform="translate(-217.264 -36.211)" fill="#d6d9db"/>
    <path id="Path_141" data-name="Path 141" d="M288.5,176h3.93v27.509H288.5Zm0,0" transform="translate(-217.264 -132.772)" fill="#d6d9db"/>
    <path id="Path_142" data-name="Path 142" d="M264.5,448h3.93v5.895H264.5Zm0,0" transform="translate(-199.158 -337.966)" fill="#0a4a7a"/>
    <path id="Path_143" data-name="Path 143" d="M440.5,448h3.93v5.895H440.5Zm0,0" transform="translate(-331.931 -337.966)" fill="#0a4a7a"/>
    <path id="Path_144" data-name="Path 144" d="M.5,168H55.517v68.771H.5Zm0,0" transform="translate(0 -126.737)" fill="#4398d1"/>
    <g id="Group_66" data-name="Group 66" transform="translate(0.5 47.158)">
      <path id="Path_145" data-name="Path 145" d="M.5,224H55.517v3.93H.5Zm0,0" transform="translate(-0.5 -216.14)" fill="#2d81ba"/>
      <path id="Path_146" data-name="Path 146" d="M24.5,192h3.93v3.93H24.5Zm0,0" transform="translate(-18.605 -192)" fill="#2d81ba"/>
      <path id="Path_147" data-name="Path 147" d="M56.5,192h3.93v3.93H56.5Zm0,0" transform="translate(-42.746 -192)" fill="#2d81ba"/>
      <path id="Path_148" data-name="Path 148" d="M88.5,192h3.93v3.93H88.5Zm0,0" transform="translate(-66.886 -192)" fill="#2d81ba"/>
      <path id="Path_149" data-name="Path 149" d="M152.5,192h11.789v3.93H152.5Zm0,0" transform="translate(-115.167 -192)" fill="#2d81ba"/>
    </g>
    <path id="Path_150" data-name="Path 150" d="M.5,0H55.517V33.4H.5Zm0,0" fill="#ffa217"/>
    <path id="Path_151" data-name="Path 151" d="M32.5,32H56.079V49.684H32.5Zm0,0" transform="translate(-24.14 -24.14)" fill="#87ced9"/>
    <path id="Path_152" data-name="Path 152" d="M8.5,448h3.93v5.895H8.5Zm0,0" transform="translate(-6.035 -337.966)" fill="#0a4a7a"/>
    <path id="Path_153" data-name="Path 153" d="M200.5,448h3.93v5.895H200.5Zm0,0" transform="translate(-150.878 -337.966)" fill="#0a4a7a"/>
    <path id="Path_154" data-name="Path 154" d="M75.728,277.614A21.614,21.614,0,1,1,54.114,256,21.614,21.614,0,0,1,75.728,277.614Zm0,0" transform="translate(-24.14 -193.123)" fill="#3e8dc2"/>
    <path id="Path_155" data-name="Path 155" d="M71.8,275.649A19.649,19.649,0,1,1,52.149,256,19.649,19.649,0,0,1,71.8,275.649Zm0,0" transform="translate(-24.14 -193.123)" fill="#d6d9db"/>
    <path id="Path_156" data-name="Path 156" d="M84.009,293.754A13.754,13.754,0,1,1,70.254,280,13.754,13.754,0,0,1,84.009,293.754Zm0,0" transform="translate(-42.246 -211.229)" fill="#71c4d1"/>
    <path id="Path_157" data-name="Path 157" d="M92.149,305.824A9.824,9.824,0,1,1,82.324,296,9.825,9.825,0,0,1,92.149,305.824Zm0,0" transform="translate(-54.316 -223.299)" fill="#87ced9"/>
    <path id="Path_158" data-name="Path 158" d="M144.5,279.434l-8,8v11.789l8,8a19.648,19.648,0,0,0,0-27.787Zm0,0" transform="translate(-102.596 -210.801)" fill="#d6d9db"/>
    <path id="Path_159" data-name="Path 159" d="M32.5,32H56.079v3.93H32.5Zm0,0" transform="translate(-24.14 -24.14)" fill="#71c4d1"/>
    <path id="Path_160" data-name="Path 160" d="M184.5,24h3.93v3.93H184.5Zm0,0" transform="translate(-138.807 -18.105)" fill="#eb8b23"/>
    <path id="Path_161" data-name="Path 161" d="M184.5,56h3.93v3.93H184.5Zm0,0" transform="translate(-138.807 -42.246)" fill="#eb8b23"/>
    <path id="Path_162" data-name="Path 162" d="M183.447,92a2.947,2.947,0,1,0,2.947,2.947A2.947,2.947,0,0,0,183.447,92Zm0,0" transform="translate(-135.79 -69.404)" fill="#eb8b23"/>
    <path id="Path_163" data-name="Path 163" d="M152.5,0h3.93V33.4H152.5Zm0,0" transform="translate(-114.667)" fill="#eb8b23"/>
    <path id="Path_164" data-name="Path 164" d="M292.43,48V67.649H288.5v3.93h7.86V48Zm0,0" transform="translate(-217.264 -36.211)" fill="#cf4e42"/>
    <path id="Path_165" data-name="Path 165" d="M292.43,176v27.509H288.5v3.93h7.86V176Zm0,0" transform="translate(-217.264 -132.772)" fill="#cf4e42"/>
  </g>
</svg>
