<svg xmlns="http://www.w3.org/2000/svg" width="116" height="93.892" viewBox="0 0 116 93.892">
  <g id="furniture" transform="translate(0 -48.789)">
    <g id="Group_69" data-name="Group 69" transform="translate(0 48.789)">
      <ellipse id="Ellipse_27" data-name="Ellipse 27" cx="10.386" cy="19.839" rx="10.386" ry="19.839" transform="translate(3.618 33.714)" fill="#97da7b"/>
      <path id="Path_166" data-name="Path 166" d="M49.859,197.6a6.162,6.162,0,0,0-3.5,1.158c4.013,2.745,6.885,10.071,6.885,18.68s-2.872,15.936-6.885,18.68a6.162,6.162,0,0,0,3.5,1.158c5.736,0,10.386-8.882,10.386-19.839S55.6,197.6,49.859,197.6Z" transform="translate(-35.855 -163.883)" fill="#80d261"/>
      <path id="Path_167" data-name="Path 167" d="M187.928,85.7H132.846a.467.467,0,0,1-.467-.467V56.757a.467.467,0,0,1,.467-.467h55.082a.467.467,0,0,1,.467.467V85.231A.467.467,0,0,1,187.928,85.7Z" transform="translate(-102.387 -54.591)" fill="#6bd9e7"/>
      <path id="Path_168" data-name="Path 168" d="M353.658,56.289h-7a.467.467,0,0,1,.467.467V85.23a.467.467,0,0,1-.467.467h7a.467.467,0,0,0,.467-.467V56.756A.467.467,0,0,0,353.658,56.289Z" transform="translate(-268.117 -54.59)" fill="#2ed1e2"/>
      <g id="Group_68" data-name="Group 68" transform="translate(28.591 56.082)">
        <g id="Group_67" data-name="Group 67" transform="translate(8.986 22.173)">
          <path id="Path_169" data-name="Path 169" d="M165.859,394.189h7v11.2h-7Z" transform="translate(-165.859 -394.189)" fill="#cbc4cc"/>
          <path id="Path_170" data-name="Path 170" d="M315.235,394.189h7v11.2h-7Z" transform="translate(-281.392 -394.189)" fill="#cbc4cc"/>
        </g>
        <path id="Path_171" data-name="Path 171" d="M181.746,370.462H129.465a3.268,3.268,0,0,1-3.268-3.268V363.46a3.268,3.268,0,0,1,3.268-3.268h52.281a3.268,3.268,0,0,1,3.268,3.268v3.734A3.268,3.268,0,0,1,181.746,370.462Z" transform="translate(-126.197 -345.721)" fill="#e94444"/>
        <path id="Path_172" data-name="Path 172" d="M347.477,360.193h-7a3.268,3.268,0,0,1,3.268,3.268V367.2a3.268,3.268,0,0,1-3.268,3.268h7a3.268,3.268,0,0,0,3.268-3.268v-3.734A3.268,3.268,0,0,0,347.477,360.193Z" transform="translate(-291.928 -345.722)" fill="#d83131"/>
        <path id="Path_173" data-name="Path 173" d="M205.3,310.793H163.284v-13.07a1.4,1.4,0,0,1,1.4-1.4H203.9a1.4,1.4,0,0,1,1.4,1.4Z" transform="translate(-154.882 -296.322)" fill="#dd7f66"/>
        <path id="Path_174" data-name="Path 174" d="M205.3,310.793H163.284v-13.07a1.4,1.4,0,0,1,1.4-1.4H203.9a1.4,1.4,0,0,1,1.4,1.4Z" transform="translate(-154.882 -296.322)" fill="#ee6161"/>
        <path id="Path_175" data-name="Path 175" d="M324.813,310.793h-7V296.322h5.6a1.4,1.4,0,0,1,1.4,1.4Z" transform="translate(-274.399 -296.322)" fill="#e94444"/>
      </g>
      <circle id="Ellipse_28" data-name="Ellipse 28" cx="5.602" cy="5.602" r="5.602" transform="translate(41.167 10.102)" fill="#eaf9fa"/>
      <path id="Path_176" data-name="Path 176" d="M279.827,104.58H267.493a1.208,1.208,0,0,1-.84-1.926l6.167-8.819a1,1,0,0,1,1.68,0l6.167,8.819A1.208,1.208,0,0,1,279.827,104.58Z" transform="translate(-206.063 -83.275)" fill="#eaf9fa"/>
      <path id="Path_177" data-name="Path 177" d="M446.964,194.045a1.7,1.7,0,0,0-1.7,1.7v48.08a1.7,1.7,0,1,0,3.4,0v-48.08A1.7,1.7,0,0,0,446.964,194.045Z" transform="translate(-344.385 -161.136)" fill="#7a6d79"/>
      <path id="Path_178" data-name="Path 178" d="M432.53,163.186H418.4a.934.934,0,0,1-.92-1.091l2.631-15.4a.934.934,0,0,1,.92-.776H429.9a.934.934,0,0,1,.92.776l2.631,15.4a.934.934,0,0,1-.921,1.091Z" transform="translate(-322.888 -123.91)" fill="#ffd15b"/>
      <path id="Path_179" data-name="Path 179" d="M451.972,162.1l-2.631-15.4a.933.933,0,0,0-.92-.776h-7a.933.933,0,0,1,.92.776l2.631,15.4a.933.933,0,0,1-.92,1.091h7A.933.933,0,0,0,451.972,162.1Z" transform="translate(-341.41 -123.91)" fill="#ffc344"/>
      <path id="Path_180" data-name="Path 180" d="M26.935,363.457H41.06a.934.934,0,0,1,.92,1.091l-2.631,15.4a.934.934,0,0,1-.92.776H29.566a.934.934,0,0,1-.92-.776l-2.631-15.4A.934.934,0,0,1,26.935,363.457Z" transform="translate(-20.11 -292.165)" fill="#918291"/>
      <path id="Path_181" data-name="Path 181" d="M59.584,363.457h-7a.934.934,0,0,1,.92,1.091l-2.631,15.4a.934.934,0,0,1-.92.776h7a.934.934,0,0,0,.92-.776l2.631-15.4A.933.933,0,0,0,59.584,363.457Z" transform="translate(-38.634 -292.165)" fill="#7a6d79"/>
      <path id="Path_182" data-name="Path 182" d="M434.736,414.156H419.8v-6.441a2.195,2.195,0,0,1,2.2-2.195h10.548a2.195,2.195,0,0,1,2.195,2.195Z" transform="translate(-324.688 -324.698)" fill="#cbc4cc"/>
      <path id="Path_183" data-name="Path 183" d="M452.14,405.521h-7a2.195,2.195,0,0,1,2.195,2.195v6.441h7v-6.441A2.2,2.2,0,0,0,452.14,405.521Z" transform="translate(-344.287 -324.699)" fill="#b5adb6"/>
      <path id="Path_184" data-name="Path 184" d="M112.5,439.307H3.5a3.5,3.5,0,1,1,0-7h109a3.5,3.5,0,1,1,0,7Z" transform="translate(0 -345.415)" fill="#ae6c6c"/>
      <path id="Path_185" data-name="Path 185" d="M472.644,432.305h-7a3.5,3.5,0,1,1,0,7h7a3.5,3.5,0,0,0,0-7Z" transform="translate(-360.145 -345.415)" fill="#9b5e5e"/>
      <path id="Path_186" data-name="Path 186" d="M182.126,48.789H127.043a2.169,2.169,0,0,0-2.166,2.166V79.43a2.169,2.169,0,0,0,2.166,2.166h55.082a2.169,2.169,0,0,0,2.166-2.166V50.955a2.169,2.169,0,0,0-2.166-2.166ZM180.893,78.2H128.276V52.187h52.618Z" transform="translate(-96.585 -48.789)" fill="#7a6d79"/>
    </g>
  </g>
</svg>
