<svg xmlns="http://www.w3.org/2000/svg" width="114.033" height="116" viewBox="0 0 114.033 116">
  <g id="games" transform="translate(-4.341)">
    <path id="Path_220" data-name="Path 220" d="M33.84,251.648a30.64,30.64,0,0,0-3.262.175c-12.606,1.355-24.642,13.341-26.041,25.951a29.489,29.489,0,0,0,44.824,28.44,21.291,21.291,0,0,1,9.514-3.342q1.227-.109,2.489-.108,1.2,0,2.375.085a21.329,21.329,0,0,1,9.657,3.374,29.49,29.49,0,0,0,44.785-28.46c-1.4-12.6-13.436-24.585-26.042-25.939a30.486,30.486,0,0,0-3.252-.175H33.84Z" transform="translate(0 -194.634)" fill="#ffd33f"/>
    <circle id="Ellipse_30" data-name="Ellipse 30" cx="5.898" cy="5.898" r="5.898" transform="translate(69.227 80.605)" fill="#ea3836"/>
    <path id="Path_221" data-name="Path 221" d="M148.635,307.783C124.972,334.3,71.68,344.172,50.866,347.1a29.38,29.38,0,0,0,34.474,2.518,21.292,21.292,0,0,1,9.514-3.342c.822-.065,1.655-.1,2.495-.1q1.2,0,2.375.085a21.329,21.329,0,0,1,9.657,3.374,29.49,29.49,0,0,0,44.785-28.46A27.977,27.977,0,0,0,148.635,307.783Z" transform="translate(-35.984 -238.051)" fill="#ffac3e"/>
    <path id="Path_222" data-name="Path 222" d="M83.631,321.068h7.864v9.83h9.83v7.864h-9.83v9.83H83.631v-9.83H73.8V330.9h9.83Z" transform="translate(-53.723 -248.326)" fill="#383856"/>
    <g id="Group_75" data-name="Group 75" transform="translate(82.989 68.81)">
      <circle id="Ellipse_31" data-name="Ellipse 31" cx="5.898" cy="5.898" r="5.898" fill="#91cece"/>
      <circle id="Ellipse_32" data-name="Ellipse 32" cx="5.898" cy="5.898" r="5.898" transform="translate(0 23.592)" fill="#91cece"/>
    </g>
    <circle id="Ellipse_33" data-name="Ellipse 33" cx="5.898" cy="5.898" r="5.898" transform="translate(96.761 80.605)" fill="#ea3836"/>
    <path id="Path_223" data-name="Path 223" d="M238.674,224.8v-7.864h7.864V224.8" transform="translate(-181.242 -167.788)" fill="#874d1b"/>
    <path id="Path_224" data-name="Path 224" d="M177.457,49.15h-3.932v-5.9a3.931,3.931,0,0,0-3.932-3.932h-9.83a7.864,7.864,0,0,1,0-15.728h31.456a3.932,3.932,0,1,0,0-7.864h-9.83a7.864,7.864,0,0,1-7.864-7.864V0h3.932V7.864a3.931,3.931,0,0,0,3.932,3.932h9.83a7.864,7.864,0,0,1,0,15.728H159.763a3.932,3.932,0,0,0,0,7.864h9.83a7.864,7.864,0,0,1,7.864,7.864v5.9Z" transform="translate(-114.127)" fill="#383856"/>
    <path id="Path_225" data-name="Path 225" d="M302.685,359.649a5.829,5.829,0,0,1,.877,3.055,5.9,5.9,0,0,1-5.9,5.9,5.831,5.831,0,0,1-3.055-.877,5.882,5.882,0,1,0,8.076-8.076Z" transform="translate(-224.505 -278.167)" fill="#d62121"/>
    <path id="Path_226" data-name="Path 226" d="M363.427,307.584a5.829,5.829,0,0,1,.877,3.055,5.9,5.9,0,0,1-5.9,5.9,5.831,5.831,0,0,1-3.055-.877,5.882,5.882,0,1,0,8.076-8.076Z" transform="translate(-271.485 -237.897)" fill="#83b2b7"/>
    <path id="Path_227" data-name="Path 227" d="M424.17,359.649a5.831,5.831,0,0,1,.877,3.055,5.9,5.9,0,0,1-5.9,5.9,5.831,5.831,0,0,1-3.055-.877,5.882,5.882,0,1,0,8.076-8.076Z" transform="translate(-318.466 -278.167)" fill="#d62121"/>
    <path id="Path_228" data-name="Path 228" d="M363.427,411.714a5.829,5.829,0,0,1,.877,3.055,5.9,5.9,0,0,1-5.9,5.9,5.831,5.831,0,0,1-3.055-.877,5.882,5.882,0,1,0,8.076-8.076Z" transform="translate(-271.485 -318.436)" fill="#83b2b7"/>
    <path id="Path_229" data-name="Path 229" d="M73.8,370.4v1.921h9.83v9.83h7.864v-9.83h9.83v-7.864H98.044C90.278,369.87,78.437,370.413,73.8,370.4Z" transform="translate(-53.723 -281.884)" fill="#202033"/>
    <path id="Path_230" data-name="Path 230" d="M238.674,229.064v.537h7.864v-6.458A14.878,14.878,0,0,1,238.674,229.064Z" transform="translate(-181.242 -172.587)" fill="#6b3713"/>
  </g>
</svg>
