<svg xmlns="http://www.w3.org/2000/svg" width="101.128" height="94.062" viewBox="0 0 101.128 94.062">
  <g id="Group_89" data-name="Group 89" transform="translate(7.066 0)">
    <g id="auction" transform="translate(-7.066 -0.09)">
      <g id="Group_77" data-name="Group 77" transform="translate(0 57.867)">
        <g id="Group_76" data-name="Group 76">
          <path id="Path_231" data-name="Path 231" d="M43.147,430.128H40.884A10.289,10.289,0,0,0,30.82,421.91H14.383a10.289,10.289,0,0,0-10.065,8.218H2.056a2.055,2.055,0,1,0,0,4.109H43.147a2.055,2.055,0,0,0,0-4.109Z" transform="translate(-0.001 -421.91)" fill="#fff"/>
        </g>
      </g>
      <g id="Group_79" data-name="Group 79" transform="translate(29.056 0.09)">
        <g id="Group_78" data-name="Group 78" transform="translate(0 0)">
          <path id="Path_232" data-name="Path 232" d="M236.582,18.727,219.148,1.294a4.109,4.109,0,1,0-5.811,5.811l17.434,17.434a4.109,4.109,0,1,0,5.811-5.811Z" transform="translate(-212.134 -0.09)" fill="#fff"/>
        </g>
      </g>
      <g id="Group_81" data-name="Group 81" transform="translate(0 29.146)">
        <g id="Group_80" data-name="Group 80">
          <path id="Path_233" data-name="Path 233" d="M24.449,230.86,7.015,213.426A4.109,4.109,0,0,0,1.2,219.237l17.434,17.434a4.109,4.109,0,1,0,5.811-5.811Z" transform="translate(0 -212.223)" fill="#fff"/>
        </g>
      </g>
      <g id="Group_83" data-name="Group 83" transform="translate(9.92 10.011)">
        <g id="Group_82" data-name="Group 82">
          <rect id="Rectangle_32" data-name="Rectangle 32" width="24.655" height="24.655" transform="translate(0 17.433) rotate(-45)" fill="#fff"/>
        </g>
      </g>
      <g id="Group_85" data-name="Group 85" transform="translate(56.684 56.5)">
        <g id="Group_84" data-name="Group 84">
          <path id="Path_234" data-name="Path 234" d="M425.479,415.1l-2.923-3.173-8.717,8.717,2.923,3.173a6.164,6.164,0,0,0,8.717-8.717Z" transform="translate(-413.839 -411.928)" fill="#fff"/>
        </g>
      </g>
      <g id="Group_87" data-name="Group 87" transform="translate(34.867 34.957)">
        <g id="Group_86" data-name="Group 86">
          <path id="Path_235" data-name="Path 235" d="M268.393,259.765a4.051,4.051,0,0,0-1.007-3.913,4.109,4.109,0,0,0-5.811,0l-5.811,5.811a4.109,4.109,0,0,0,0,5.811,4.051,4.051,0,0,0,3.913,1.007L273.47,282l8.717-8.717Z" transform="translate(-254.559 -254.648)" fill="#fff"/>
        </g>
      </g>
    </g>
    <g id="Path_252" data-name="Path 252" transform="translate(25.948 25.943)" fill="#fff">
      <path d="M 39.72391891479492 66.11846160888672 C 25.1724681854248 66.11846160888672 13.33399868011475 54.27746963500977 13.33399868011475 39.7229118347168 C 13.33399868011475 25.17146110534668 25.1724681854248 13.33300113677979 39.72391891479492 13.33300113677979 C 54.27536773681641 13.33300113677979 66.11383819580078 25.17399024963379 66.11383819580078 39.72854232788086 C 66.11383819580078 54.27999114990234 54.27536773681641 66.11846160888672 39.72391891479492 66.11846160888672 Z M 31.81131553649902 54.44355392456055 C 34.26422882080078 55.78774642944336 36.96094131469727 56.48958969116211 39.72391891479492 56.48958969116211 C 48.96598815917969 56.48957061767578 56.48495864868164 48.9705924987793 56.48495864868164 39.72853088378906 C 56.48495864868164 36.95645141601562 55.78402709960938 34.25905227661133 54.44142532348633 31.81342697143555 L 31.81131553649902 54.44355392456055 Z M 39.72391891479492 22.96187019348145 C 35.25420761108398 22.96188163757324 31.04651832580566 24.70836067199707 27.87594985961914 27.87959098815918 C 24.70527839660645 31.0509204864502 22.96044921875 35.25857162475586 22.9628791809082 39.72746276855469 C 22.9628791809082 42.49234390258789 23.66418647766113 45.18744277954102 25.00775718688965 47.63669204711914 L 47.63652801513672 25.00791358947754 C 45.18360137939453 23.66372108459473 42.48688888549805 22.96187019348145 39.72391891479492 22.96187019348145 Z" stroke="none"/>
      <path d="M 39.72391891479492 15.33300018310547 C 26.27653884887695 15.33300018310547 15.33399963378906 26.27553176879883 15.33399963378906 39.7229118347168 C 15.33399963378906 53.1702880859375 26.27090835571289 64.11846160888672 39.72391891479492 64.11846160888672 C 53.17691802978516 64.11846160888672 64.11383819580078 53.17591857910156 64.11383819580078 39.72854232788086 C 64.11383819580078 26.28116226196289 53.17129898071289 15.33300018310547 39.72391891479492 15.33300018310547 M 24.66667938232422 50.80619049072266 C 22.37009048461914 47.69342041015625 20.9628791809082 43.88267135620117 20.9628791809082 39.72854995727539 C 20.95724868774414 29.3826904296875 29.37804794311523 20.96187973022461 39.72391891479492 20.96187973022461 L 39.72391891479492 20.96187210083008 C 43.88365936279297 20.96187210083008 47.68878173828125 22.36909103393555 50.80717849731445 24.66567993164062 L 24.66667938232422 50.80619049072266 M 39.72391891479492 58.48957824707031 C 35.56417846679688 58.48957824707031 31.75904846191406 57.08237075805664 28.64067077636719 54.78578186035156 L 54.78115081787109 28.64528274536133 C 57.08335876464844 31.75804901123047 58.48495864868164 35.56879043579102 58.48495864868164 39.72853088378906 C 58.48495864868164 50.07440185546875 50.06978607177734 58.48957061767578 39.72391891479492 58.48957061767578 L 39.72391891479492 58.48957824707031 M 39.72391891479492 11.33300018310547 C 55.37816619873047 11.33300018310547 68.11383819580078 24.07118988037109 68.11383819580078 39.72854232788086 C 68.11383819580078 55.38278961181641 55.37816619873047 68.11846160888672 39.72391891479492 68.11846160888672 C 24.06966781616211 68.11846160888672 11.33399963378906 55.38027191162109 11.33399963378906 39.7229118347168 C 11.33399963378906 24.06866073608398 24.06966781616211 11.33300018310547 39.72391891479492 11.33300018310547 Z M 44.14881134033203 25.66719055175781 C 42.71979522705078 25.20115280151367 41.23240280151367 24.96187210083008 39.72391891479492 24.96187210083008 C 35.78850936889648 24.96187210083008 32.08311080932617 26.50025939941406 29.29030990600586 29.29365158081055 C 26.49757766723633 32.08695983886719 24.96073913574219 35.79204177856445 24.9628791809082 39.72637176513672 C 24.9628791809082 41.2354621887207 25.20168685913086 42.72203826904297 25.66682052612305 44.14918899536133 L 44.14881134033203 25.66719055175781 Z M 39.72391891479492 54.48957824707031 C 47.86317825317383 54.48957061767578 54.48495864868164 47.86779022216797 54.48495864868164 39.72853088378906 C 54.48495864868164 38.21621704101562 54.24650573730469 36.72794342041016 53.78215789794922 35.30113220214844 L 35.29903411865234 53.78427124023438 C 36.72804641723633 54.25030899047852 38.21542739868164 54.48957824707031 39.72391891479492 54.48957824707031 Z" stroke="none" fill="#f94f5f"/>
    </g>
  </g>
</svg>
