<svg xmlns="http://www.w3.org/2000/svg" width="129.2" height="93.799" viewBox="0 0 129.2 93.799">
  <g id="live" transform="translate(0)" style="mix-blend-mode: hard-light;isolation: isolate">
    <g id="Group_88" data-name="Group 88" transform="translate(0 0)">
      <path id="Path_236" data-name="Path 236" d="M236.977,218.954a12.445,12.445,0,0,1-2.079,6.907c-2.239,3.373-6.072,4.07-10.424,4.07-6.905,0-10.641-4.072-10.641-10.977,0-4.357.366-8.193,3.745-10.431a12.505,12.505,0,0,1,19.4,10.431Z" transform="translate(-159.874 -172.055)" fill="#fff"/>
      <path id="Path_237" data-name="Path 237" d="M222.472,234.081a12.5,12.5,0,0,1-10.412-19.418A12.5,12.5,0,1,0,229.379,232,12.451,12.451,0,0,1,222.472,234.081Z" transform="translate(-154.355 -178.195)" fill="#f3cbd1"/>
      <path id="Path_238" data-name="Path 238" d="M21.868,70.145a4.153,4.153,0,0,1,2.947,1.221q.057.057.112.116l-2.3,5.778a56.264,56.264,0,0,0,0,79.57l2.3,5.776q-.055.059-.113.117a4.166,4.166,0,0,1-5.893,0,64.6,64.6,0,0,1,0-91.357,4.152,4.152,0,0,1,2.947-1.221Z" transform="translate(0 -70.145)" fill="#ffe6e7"/>
      <path id="Path_239" data-name="Path 239" d="M144.275,163.573a4.152,4.152,0,0,1,2.947,1.221q.124.124.235.256l-2.826,5.638a22.951,22.951,0,0,0,0,32.418l2.832,5.632q-.114.135-.241.262a4.166,4.166,0,0,1-5.894,0,31.292,31.292,0,0,1,0-44.2,4.152,4.152,0,0,1,2.947-1.221Z" transform="translate(-98.831 -139.997)" fill="#ff9a9f"/>
      <path id="Path_240" data-name="Path 240" d="M83.119,116.859a4.153,4.153,0,0,1,2.947,1.221c.047.047.093.1.138.145l-3.557,5.749a39.642,39.642,0,0,0,0,55.994l3.56,5.746q-.068.075-.141.148a4.166,4.166,0,0,1-5.893,0,47.986,47.986,0,0,1,0-67.781,4.155,4.155,0,0,1,2.947-1.221Z" transform="translate(-49.463 -105.071)" fill="#ffcccf"/>
      <path id="Path_241" data-name="Path 241" d="M148.645,191.271a27.057,27.057,0,0,0,11.122,21.841,4.163,4.163,0,0,0-.241-5.632,22.951,22.951,0,0,1,0-32.418,4.171,4.171,0,0,0,.235-5.638A27.064,27.064,0,0,0,148.645,191.271Z" transform="translate(-111.135 -144.372)" fill="#ff8086"/>
      <path id="Path_242" data-name="Path 242" d="M82.581,156.017a43.7,43.7,0,0,0,15.9,33.743,4.165,4.165,0,0,0-.141-5.746,39.642,39.642,0,0,1,0-55.994,4.169,4.169,0,0,0,.138-5.749,43.7,43.7,0,0,0-15.9,33.746Z" transform="translate(-61.742 -109.117)" fill="#ff9a9f"/>
      <path id="Path_243" data-name="Path 243" d="M16.516,121.005a60.3,60.3,0,0,0,20.76,45.561,4.165,4.165,0,0,0-.113-5.776,56.263,56.263,0,0,1,0-79.57,4.167,4.167,0,0,0,.112-5.778A60.3,60.3,0,0,0,16.516,121.005Z" transform="translate(-12.348 -74.106)" fill="#ffcccf"/>
      <path id="Path_244" data-name="Path 244" d="M416.274,163.944a4.154,4.154,0,0,1-2.947-1.221q-.057-.057-.112-.116l2.3-5.778a56.264,56.264,0,0,0,0-79.57l-2.3-5.776q.055-.059.113-.117a4.166,4.166,0,0,1,5.893,0,64.6,64.6,0,0,1,0,91.357A4.152,4.152,0,0,1,416.274,163.944Z" transform="translate(-308.943 -70.145)" fill="#ffe6e7"/>
      <path id="Path_245" data-name="Path 245" d="M322.467,210.218A4.152,4.152,0,0,1,319.52,209q-.124-.124-.235-.256l2.826-5.638a22.951,22.951,0,0,0,0-32.418l-2.832-5.632q.114-.135.241-.262a4.166,4.166,0,0,1,5.894,0,31.292,31.292,0,0,1,0,44.2A4.151,4.151,0,0,1,322.467,210.218Z" transform="translate(-238.711 -139.996)" fill="#ff9a9f"/>
      <path id="Path_246" data-name="Path 246" d="M369.481,187.082a4.153,4.153,0,0,1-2.947-1.221c-.047-.047-.093-.1-.138-.145l3.557-5.749a39.642,39.642,0,0,0,0-55.994l-3.56-5.746q.068-.075.141-.148a4.166,4.166,0,0,1,5.893,0,47.986,47.986,0,0,1,0,67.781A4.154,4.154,0,0,1,369.481,187.082Z" transform="translate(-273.936 -105.071)" fill="#ffcccf"/>
      <path id="Path_247" data-name="Path 247" d="M327.493,191.29a27.057,27.057,0,0,0-11.122-21.841,4.163,4.163,0,0,0,.241,5.632,22.951,22.951,0,0,1,0,32.418,4.171,4.171,0,0,0-.235,5.638A27.064,27.064,0,0,0,327.493,191.29Z" transform="translate(-235.803 -144.39)" fill="#ff8086"/>
      <path id="Path_248" data-name="Path 248" d="M379.1,156.026a43.7,43.7,0,0,0-15.9-33.743,4.165,4.165,0,0,0,.141,5.746,39.642,39.642,0,0,1,0,55.994,4.169,4.169,0,0,0-.138,5.749,43.7,43.7,0,0,0,15.9-33.746Z" transform="translate(-270.734 -109.126)" fill="#ff9a9f"/>
      <path id="Path_249" data-name="Path 249" d="M430.69,121.009a60.3,60.3,0,0,0-20.76-45.561,4.165,4.165,0,0,0,.113,5.776,56.264,56.264,0,0,1,0,79.57,4.167,4.167,0,0,0-.112,5.778,60.3,60.3,0,0,0,20.759-45.562Z" transform="translate(-305.657 -74.11)" fill="#ffcccf"/>
    </g>
  </g>
</svg>
