<svg xmlns="http://www.w3.org/2000/svg" width="72.319" height="116" viewBox="0 0 72.319 116">
  <g id="mobile" transform="translate(-96.4)">
    <g id="Group_70" data-name="Group 70" transform="translate(96.4 0)">
      <path id="Path_187" data-name="Path 187" d="M154.4,116H110.719A14.312,14.312,0,0,1,96.4,101.681V14.319A14.31,14.31,0,0,1,110.719,0H154.4a14.31,14.31,0,0,1,14.319,14.319v87.363A14.312,14.312,0,0,1,154.4,116Z" transform="translate(-96.4 0)" fill="#29435e"/>
      <path id="Path_188" data-name="Path 188" d="M292.159,101.681V14.319A14.31,14.31,0,0,0,277.841,0H256V116h21.841a14.312,14.312,0,0,0,14.319-14.319Z" transform="translate(-219.841 0)" fill="#223a53"/>
      <path id="Path_189" data-name="Path 189" d="M177.6,30a3.886,3.886,0,0,0-3.882,3.882A10.691,10.691,0,0,1,163.044,44.56h-14.56A10.691,10.691,0,0,1,137.8,33.882,3.886,3.886,0,0,0,133.923,30a7.516,7.516,0,0,0-7.522,7.522v87.363a7.519,7.519,0,0,0,7.522,7.522H177.6a7.519,7.519,0,0,0,7.522-7.522V37.522A7.517,7.517,0,0,0,177.6,30Z" transform="translate(-119.604 -23.203)" fill="#f4f1f1"/>
      <path id="Path_190" data-name="Path 190" d="M285.362,124.884V37.522A7.516,7.516,0,0,0,277.841,30a3.886,3.886,0,0,0-3.882,3.882A10.691,10.691,0,0,1,263.28,44.56H256v87.846h21.841A7.519,7.519,0,0,0,285.362,124.884Z" transform="translate(-219.841 -23.203)" fill="#e7dfdd"/>
      <circle id="Ellipse_29" data-name="Ellipse 29" cx="3.398" cy="3.398" r="3.398" transform="translate(50.961 76.442)" fill="#d0c8c3"/>
      <path id="Path_191" data-name="Path 191" d="M185.906,344.2H164.065a3.4,3.4,0,0,1,0-6.8h21.841a3.4,3.4,0,0,1,0,6.8Z" transform="translate(-146.106 -260.958)" fill="#e7dfdd"/>
      <path id="Path_192" data-name="Path 192" d="M200.466,168.091h-36.4a3.4,3.4,0,0,1-3.4-3.4V131.931a3.4,3.4,0,0,1,3.4-3.4h36.4a3.4,3.4,0,0,1,3.4,3.4v32.761A3.4,3.4,0,0,1,200.466,168.091Z" transform="translate(-146.107 -99.412)" fill="#98f9ff"/>
      <path id="Path_193" data-name="Path 193" d="M200.466,401.667h-36.4a3.4,3.4,0,0,0-3.4,3.4v14.8h43.2v-14.8A3.4,3.4,0,0,0,200.466,401.667Z" transform="translate(-146.107 -310.664)" fill="#ff7038"/>
      <path id="Path_194" data-name="Path 194" d="M263.039,340.8a3.4,3.4,0,0,0-3.4-3.4H256v6.8h3.64A3.4,3.4,0,0,0,263.039,340.8Z" transform="translate(-219.841 -260.958)" fill="#dad0cb"/>
      <path id="Path_195" data-name="Path 195" d="M277.6,164.693V131.931a3.4,3.4,0,0,0-3.4-3.4H256v39.558h18.2A3.4,3.4,0,0,0,277.6,164.693Z" transform="translate(-219.841 -99.412)" fill="#7dd5f4"/>
      <path id="Path_196" data-name="Path 196" d="M277.6,405.065a3.4,3.4,0,0,0-3.4-3.4H256v18.2h21.6Z" transform="translate(-219.841 -310.664)" fill="#ff405c"/>
    </g>
  </g>
</svg>
