<svg xmlns="http://www.w3.org/2000/svg" width="116" height="85.072" viewBox="0 0 116 85.072">
  <g id="vehicles" transform="translate(0 -53.151)">
    <g id="Group_74" data-name="Group 74" transform="translate(0 53.151)">
      <g id="Group_73" data-name="Group 73" transform="translate(0 20.383)">
        <path id="Path_204" data-name="Path 204" d="M327.683,265.227l8.527-.051a2.943,2.943,0,0,1,2.961,2.925l.1,16.931a2.943,2.943,0,0,1-2.925,2.961l-8.527.051a2.943,2.943,0,0,1-2.961-2.925l-.1-16.931A2.943,2.943,0,0,1,327.683,265.227Z" transform="translate(-230.271 -223.871)" fill="#2f4859"/>
        <path id="Path_205" data-name="Path 205" d="M29.451,267l8.527-.051a2.943,2.943,0,0,1,2.961,2.925l.1,16.931a2.943,2.943,0,0,1-2.925,2.961l-8.527.051a2.943,2.943,0,0,1-2.961-2.925l-.1-16.931A2.944,2.944,0,0,1,29.451,267Z" transform="translate(-18.808 -225.13)" fill="#2f4859"/>
        <path id="Path_206" data-name="Path 206" d="M354.841,123.327a1.376,1.376,0,0,0-1.246,1.384,2.782,2.782,0,0,1-2.084,3.045l-2.121.013,1.089,3.179s13.657-.082,13.249-4.568C363.411,122.9,357.484,123.074,354.841,123.327Z" transform="translate(-247.737 -123.208)" fill="#2f4859"/>
        <path id="Path_207" data-name="Path 207" d="M8.9,123.327a1.376,1.376,0,0,1,1.246,1.384,2.782,2.782,0,0,0,2.084,3.045l2.121.013-1.089,3.179S-.4,130.867.009,126.381c.317-3.481,6.244-3.307,8.887-3.054Z" transform="translate(0 -123.208)" fill="#2f4859"/>
      </g>
      <path id="Path_208" data-name="Path 208" d="M120.026,100.291a23.5,23.5,0,0,0-2.829-9.513L111.44,80.221s-10.222-23.04-14.481-24.874c-4.117-1.773-30.4-2.172-32.14-2.2h-.1c-1.741.046-28.016.758-32.111,2.58-4.237,1.884-14.188,25.041-14.188,25.041L12.8,91.4a23.52,23.52,0,0,0-2.716,9.544,68.789,68.789,0,0,0,2.353,21.886,7.671,7.671,0,0,0,7.471,5.643l45.265-.262h.1l45.265-.269a7.672,7.672,0,0,0,7.4-5.732,68.726,68.726,0,0,0,2.093-21.918Z" transform="translate(-7.079 -53.151)" fill="#fe7058"/>
      <path id="Path_209" data-name="Path 209" d="M120.221,261.593l44.11-.263a1.429,1.429,0,0,1,1.438,1.42l.045,7.511a1.429,1.429,0,0,1-1.42,1.438l-44.11.263a1.429,1.429,0,0,1-1.438-1.42l-.045-7.511A1.429,1.429,0,0,1,120.221,261.593Z" transform="translate(-84.237 -200.761)" fill="#3a556a"/>
      <path id="Path_210" data-name="Path 210" d="M131.048,67.051a2.878,2.878,0,0,0-2.557-1.677l-30.161-.619h-.095l-30.153.979a2.878,2.878,0,0,0-2.536,1.707L56.894,86.9l41.468-.248h.095l41.474-.248Z" transform="translate(-40.341 -61.379)" fill="#2f4859"/>
      <path id="Path_211" data-name="Path 211" d="M332.757,256.968a5.264,5.264,0,1,0,5.295,5.234v0A5.264,5.264,0,0,0,332.757,256.968Z" transform="translate(-232.232 -197.668)" fill="#ebf0f3"/>
      <path id="Path_212" data-name="Path 212" d="M42.219,258.7a5.264,5.264,0,1,0,5.3,5.233,5.264,5.264,0,0,0-5.3-5.233Z" transform="translate(-26.226 -198.899)" fill="#ebf0f3"/>
      <path id="Path_213" data-name="Path 213" d="M131.61,216.343H170v4.792H131.61Z" transform="translate(-93.319 -168.863)" fill="#3a556a"/>
      <path id="Path_214" data-name="Path 214" d="M309.7,186.023a2.043,2.043,0,0,0-2.26-1.8,2.02,2.02,0,0,0-.26.047l-17.557,4.293a2.045,2.045,0,0,0-1.262.928l-3.478,5.757a2.041,2.041,0,0,0,1.747,3.1h17.154a2.055,2.055,0,0,0,1.131-.33C308.964,195.333,310.231,191.158,309.7,186.023Z" transform="translate(-201.791 -146.079)" fill="#e1e6e9"/>
      <path id="Path_215" data-name="Path 215" d="M333.31,196.035a3.847,3.847,0,1,0,4,3.687,3.847,3.847,0,0,0-4-3.687Z" transform="translate(-233.719 -154.462)" fill="#bdbec1"/>
      <path id="Path_216" data-name="Path 216" d="M307.446,208.655a2.926,2.926,0,1,0,3.041,2.806v0A2.926,2.926,0,0,0,307.446,208.655Z" transform="translate(-216.005 -163.41)" fill="#bdbec1"/>
      <path id="Path_217" data-name="Path 217" d="M27.523,186.023a2.043,2.043,0,0,1,2.26-1.8,2.02,2.02,0,0,1,.26.047L47.6,188.562a2.045,2.045,0,0,1,1.262.928l3.478,5.757a2.041,2.041,0,0,1-1.747,3.1H33.44a2.055,2.055,0,0,1-1.131-.33C28.261,195.333,27,191.158,27.523,186.023Z" transform="translate(-19.435 -146.079)" fill="#e1e6e9"/>
      <path id="Path_218" data-name="Path 218" d="M46.641,196.035a3.847,3.847,0,1,1-4,3.687,3.847,3.847,0,0,1,4-3.687Z" transform="translate(-30.232 -154.462)" fill="#bdbec1"/>
      <path id="Path_219" data-name="Path 219" d="M77,208.655a2.926,2.926,0,1,1-3.041,2.806v0A2.926,2.926,0,0,1,77,208.655Z" transform="translate(-52.436 -163.41)" fill="#bdbec1"/>
    </g>
  </g>
</svg>
