<svg xmlns="http://www.w3.org/2000/svg" xmlns:xlink="http://www.w3.org/1999/xlink" width="438" height="440.501"><defs><linearGradient id="g" x1="1.06" y1="1.13" x2=".324" y2=".337" gradientUnits="objectBoundingBox"><stop offset="0" stop-color="#f6f9ff"/><stop offset="1" stop-color="#e9effd"/></linearGradient><linearGradient id="a" x1="3.169" y1="-1.686" x2="2.611" y2="-1.229" gradientUnits="objectBoundingBox"><stop offset="0" stop-color="#012e40"/><stop offset="1" stop-color="#025373"/></linearGradient><linearGradient id="b" x1=".551" y1="-7.221" x2=".424" y2="12.6" gradientUnits="objectBoundingBox"><stop offset="0" stop-color="#025373"/><stop offset="1" stop-color="#012e40"/></linearGradient><linearGradient id="h" x1=".812" y1="-1.059" x2=".623" y2="-.131" xlink:href="#a"/><linearGradient id="i" x1=".777" y1="-3.581" x2=".276" y2="3.86" xlink:href="#b"/><linearGradient id="j" y1=".5" x2="1" y2=".5" gradientUnits="objectBoundingBox"><stop offset="0" stop-color="#dae3fe"/><stop offset="1" stop-color="#e9effd"/></linearGradient><linearGradient id="k" x1="-.126" y1="-1.117" x2=".659" y2=".896" xlink:href="#a"/><linearGradient id="l" x1=".852" y1="-15.474" x2=".682" y2="-7.661" xlink:href="#b"/><linearGradient id="m" x1=".566" y1="-.144" x2=".666" y2="-1.671" xlink:href="#a"/><linearGradient id="n" x1=".482" y1="-10.531" x2=".512" y2="8.107" gradientUnits="objectBoundingBox"><stop offset="0" stop-color="#012e40"/><stop offset="1" stop-color="#052d3d"/></linearGradient><linearGradient id="o" x1=".995" y1="-7.398" x2=".138" y2="6.215" xlink:href="#b"/><linearGradient id="p" x1="-7.846" y1="-26.528" x2="-1.419" y2="-19.588" xlink:href="#b"/><linearGradient id="q" x1="1.458" y1="-7.863" x2=".914" y2="-3.11" gradientUnits="objectBoundingBox"><stop offset="0" stop-color="#012e40"/><stop offset="1" stop-color="#043041"/></linearGradient><linearGradient id="r" x1=".266" y1=".252" x2=".781" y2=".798" xlink:href="#b"/><linearGradient id="s" x1=".684" y1="-.014" x2=".388" y2=".814" xlink:href="#b"/><linearGradient id="t" x1="1.665" y1="-.134" x2="1.4" y2=".01" gradientUnits="objectBoundingBox"><stop offset="0" stop-color="#012e40"/><stop offset="1" stop-color="#042a39"/></linearGradient><linearGradient id="u" x1=".739" y1="-.262" x2="1.454" y2="-2.545" gradientUnits="objectBoundingBox"><stop offset="0" stop-color="#012e40"/><stop offset="1" stop-color="#031b24"/></linearGradient><linearGradient id="v" x1="1.546" y1=".143" x2="1.177" y2=".269" gradientUnits="objectBoundingBox"><stop offset="0" stop-color="#012e40"/><stop offset="1" stop-color="#052b3a"/></linearGradient><linearGradient id="c" x1="2.705" y1=".092" x2="1.74" y2=".717" gradientUnits="objectBoundingBox"><stop offset="0" stop-color="#febbba"/><stop offset="1" stop-color="#ff928e"/></linearGradient><linearGradient id="w" x1="14.147" y1="-.083" x2="7.29" y2="3.035" xlink:href="#c"/><linearGradient id="x" x1="3.138" y1="-1.001" x2="2.394" y2="-.573" gradientUnits="objectBoundingBox"><stop offset="0" stop-color="#027368"/><stop offset="1" stop-color="#08806a"/></linearGradient><linearGradient id="y" x1="96.268" y1=".02" x2="96.028" y2="1.02" xlink:href="#c"/><linearGradient id="z" x1="-21.415" y1=".968" x2="-19.171" y2="-.531" gradientUnits="objectBoundingBox"><stop offset="0" stop-color="#021a24"/><stop offset="1" stop-color="#012e40"/></linearGradient><linearGradient id="A" x1="-81.298" y1="-.843" x2="-81.805" y2="2.39" xlink:href="#c"/><linearGradient id="B" x1="-21.407" y1=".794" x2="-19.324" y2="-.625" gradientUnits="objectBoundingBox"><stop offset="0" stop-color="#021923"/><stop offset="1" stop-color="#012e40"/></linearGradient><linearGradient id="C" x1="-82.7" y1="-.224" x2="-83.214" y2="2.539" xlink:href="#c"/><linearGradient id="D" x1="3.397" y1="-.047" x2="2.9" y2="1.702" gradientUnits="objectBoundingBox"><stop offset="0" stop-color="#011b26"/><stop offset="1" stop-color="#012e40"/></linearGradient><linearGradient id="E" x1="-170.656" y1=".429" x2="-166.945" y2="-1.257" gradientUnits="objectBoundingBox"><stop offset="0" stop-color="#4f52ff"/><stop offset="1" stop-color="#4042e2"/></linearGradient><linearGradient id="d" x1="2.802" y1="-1.572" x2="2.321" y2="-1.126" gradientUnits="objectBoundingBox"><stop offset="0" stop-color="#03a688"/><stop offset="1" stop-color="#027368"/></linearGradient><linearGradient id="F" x1="-18.284" y1=".5" x2="-17.284" y2=".5" xlink:href="#c"/><linearGradient id="G" x1="-33.969" y1="-.222" x2="-34.787" y2="2.966" xlink:href="#c"/><linearGradient id="H" x1="-50.703" y1="-28.121" x2="-52.267" y2="-26.747" xlink:href="#c"/><linearGradient id="I" x1="-29.845" y1="-16.732" x2="-28.762" y2="-16.732" gradientUnits="objectBoundingBox"><stop offset="0" stop-color="#011923"/><stop offset="1" stop-color="#012e40"/></linearGradient><linearGradient id="J" x1="-122.721" y1="-79.01" x2="-119.832" y2="-81.432" xlink:href="#c"/><linearGradient id="K" x1="-.184" y1="1.294" x2=".486" y2=".516" xlink:href="#d"/><linearGradient id="e" x1=".878" y1="-.071" x2="-1.173" y2="3.028" gradientUnits="objectBoundingBox"><stop offset="0" stop-color="#04d99d"/><stop offset="1" stop-color="#03a688"/></linearGradient><linearGradient id="L" x1="1.132" y1="-.422" x2=".482" y2=".52" gradientUnits="objectBoundingBox"><stop offset="0" stop-color="#04d99d"/><stop offset="1" stop-color="#09c993"/></linearGradient><linearGradient id="M" x1="35.858" y1="1.685" x2="36.639" y2=".309" xlink:href="#a"/><linearGradient id="f" x1=".841" y1=".155" x2="-.561" y2="1.333" gradientUnits="objectBoundingBox"><stop offset="0" stop-color="#a22b25"/><stop offset="1" stop-color="#c0423c"/></linearGradient><linearGradient id="N" x1="4.431" y1="-1.544" x2="3.397" y2="-.998" xlink:href="#e"/><linearGradient id="O" x1=".179" y1="1.902" x2=".967" y2="-1.463" xlink:href="#f"/><linearGradient id="P" x1="-47.597" y1="54.206" x2="-49.226" y2="55.65" xlink:href="#f"/><linearGradient id="Q" x1="148.463" y1="7.562" x2="151.742" y2=".724" gradientUnits="objectBoundingBox"><stop offset="0" stop-color="#012e40"/><stop offset="1" stop-color="#021e29"/></linearGradient><linearGradient id="R" x1="-133.313" y1="199.272" x2="-137.828" y2="204.605" xlink:href="#f"/><linearGradient id="S" x1="1.335" y1=".455" x2="3.441" y2=".35" xlink:href="#f"/><linearGradient id="T" x1="-124.09" y1="1.733" x2="-123.085" y2="1.733" gradientUnits="objectBoundingBox"><stop offset="0" stop-color="#031b24"/><stop offset="1" stop-color="#012e40"/></linearGradient><linearGradient id="U" x1="4.531" y1="-.695" x2="2.877" y2="-.236" xlink:href="#f"/><linearGradient id="V" x1="3.596" y1="-1.282" x2="2.266" y2="-.496" xlink:href="#a"/><linearGradient id="W" x1="-63.943" y1="-4.878" x2="-60.951" y2="-7.055" xlink:href="#f"/><linearGradient id="X" x1="476.902" y1=".5" x2="477.903" y2=".5" xlink:href="#f"/></defs><g data-name="20945144 [Converted]"><g data-name="Group 47"><path data-name="Path 13" d="M921.123 765.912C877.068 868.756 760.779 912.929 669.663 905.4c-24.878-2.056-74.933-6.195-114.017-43.108-75.058-70.89-63.5-219.073 8.354-306.313 9.254-11.234 73.3-86.507 173.108-85.5 73.073.737 124.362 41.964 130.6 47.1a200.979 200.979 0 0140.916 46.365c36.794 57.47 40.027 137.7 12.499 201.968z" transform="translate(-501.543 -467.992)" fill="url(#g)"/><g data-name="Group 10"><g data-name="Group 8"><path data-name="Path 14" d="M51.661 2.623c-6.876 37.243-38.19 255.638 157.9 322.357 0 0 56.983-138.377-152.742-324.192a3.135 3.135 0 00-5.158 1.835z" fill="#cdedfb"/><path data-name="Path 15" d="M68.026 36.854c2.542 11.836 5.321 23.6 8.2 35.349s5.9 23.455 9.055 35.128c6.3 23.347 13.12 46.555 20.636 69.537 7.532 22.972 15.726 45.743 25.134 68.019q7 16.729 15.211 32.918a307.034 307.034 0 0018.144 31.407 1.267 1.267 0 001.779.344 1.317 1.317 0 00.338-1.809 304.66 304.66 0 01-18.147-31.048q-8.254-16.041-15.313-32.697c-9.485-22.148-17.779-44.828-25.417-67.723-7.62-22.9-14.547-46.051-20.964-69.342q-4.811-17.468-9.225-35.049c-2.936-11.719-5.774-23.471-8.37-35.265a.541.541 0 00-.648-.418.549.549 0 00-.413.649z" fill="#fff" opacity=".43"/></g><g data-name="Group 9"><path data-name="Path 16" d="M119.384 337.32s4.808-29.611-19.4-64.933c-22.462-32.773-78.411-109.322-87.5-147.681a1.612 1.612 0 00-3.155.05c-3.577 18.387-8.914 65.142 14.474 116.9 30.163 66.75 95.581 95.664 95.581 95.664z" fill="#cdedfb"/><path data-name="Path 17" d="M17.169 159.662a69.16 69.16 0 00.608 12.4c.063.515.115 1.03.187 1.544l.245 1.536.491 3.072.619 3.049c.216 1.014.389 2.04.667 3.04a146.841 146.841 0 007.843 23.609c.744 1.942 1.688 3.793 2.561 5.676l1.329 2.817c.227.466.429.947.678 1.4l.731 1.375 2.928 5.5c.467.928 1.032 1.8 1.56 2.694l1.6 2.669 1.606 2.668.806 1.333.867 1.293 3.469 5.172c.584.857 1.142 1.736 1.749 2.574l1.816 2.518 3.632 5.038 3.688 5c1.235 1.662 2.453 3.335 3.71 4.979q3.741 4.955 7.556 9.853c2.529 3.276 5.11 6.512 7.673 9.761l7.788 9.661c5.2 6.433 10.405 12.855 15.389 19.436 1.269 1.63 2.454 3.316 3.668 4.984.618.827 1.178 1.693 1.757 2.544s1.165 1.7 1.716 2.571c1.064 1.762 2.195 3.488 3.134 5.321l.739 1.357c.12.227.254.449.362.682l.322.7 1.289 2.806v.011a.224.224 0 00.413-.174 73.33 73.33 0 00-5.593-11.119c-.536-.889-1.113-1.75-1.669-2.627s-1.109-1.755-1.709-2.6c-1.182-1.7-2.336-3.429-3.571-5.091l-1.827-2.515c-.616-.834-1.25-1.651-1.873-2.476l-1.88-2.474-1.9-2.452c-2.531-3.275-5.1-6.518-7.654-9.772-5.111-6.5-10.225-13-15.263-19.55s-9.986-13.168-14.874-19.83l-3.62-5.03-1.809-2.515c-.6-.839-1.163-1.7-1.747-2.55l-3.469-5.113-.867-1.278-.806-1.317-1.606-2.638a182.14 182.14 0 01-11.53-21.83 145.7 145.7 0 01-8.26-23.268c-.3-.989-.485-2-.738-3l-.712-3.009-.586-3.036-.293-1.52c-.088-.509-.157-1.019-.235-1.528-.146-1.021-.323-2.038-.443-3.062l-.336-3.078a60.512 60.512 0 01-.282-6.185.027.027 0 00-.026-.031.036.036 0 00-.018.025z" fill="#fff" opacity=".45"/></g></g><g data-name="Group 14"><g data-name="Group 12"><g data-name="Group 11"><path data-name="Path 18" d="M361.642 125.794a64.5 64.5 0 01-6.676-23.548c-1.491-21.224 10.845-40.767 19.91-59.039 8.33-16.794 14.521-41.818-13.586-39.591-22.393 1.774-48.718 24.09-51.723 47.36-3.554 27.541 9.853 62.272-6.042 87.291-22.24 35-38.28 26.978-38.28 86.038 0 25.236 13.978 39.156 29.989 46.824a67 67 0 0075.539-12.274c17.786-17.214 28.363-41.961 24.788-66.806-3.615-25.094-23.296-44.124-33.919-66.255z" fill="#cdedfb"/><path data-name="Path 19" d="M342.85 315.681a.784.784 0 01-.76-.593c-13.93-55.6-21.513-106.01-22.539-149.817-.821-35.078 2.539-66.033 9.985-92.008 12.716-44.363 32.661-58.612 33.5-59.2a.784.784 0 01.894 1.288c-.2.141-20.41 14.626-32.95 58.549-11.591 40.6-18.807 115.328 12.627 240.8a.783.783 0 01-.569.95.79.79 0 01-.188.031z" fill="#fff"/></g><path data-name="Path 20" d="M383.955 63.531a9.372 9.372 0 00-3.539-.24c-7.006.8-9.883 8.193-11.94 13.968-1.763 4.947-3.84 10.949-2.8 16.309 1.125 5.793 7.277 10.519 11.743 4.638 5.074-6.686 12.688-16.952 12.735-25.812.024-4.404-2.448-7.845-6.199-8.863z" fill="#b4dcee"/></g><g data-name="Group 13"><path data-name="Path 21" d="M435.811 271.52c2.865-18.876-4-40.546-7.42-60.507-1.812-10.554-2.648-21.028-.952-31.661 1.684-10.572 6.652-22.006 2.073-32.537-9.229-21.219-31.168-11.562-43.735 4.412-14.583 18.537-18.569 48.829-24.108 72.155-3.338 14.061-8.369 28.485-10.129 42.813-2.918 23.737 2.449 40.217 13.805 51.347a34.362 34.362 0 0040.8 5.469c12.035-6.711 25.043-21.044 29.666-51.491z" fill="#cdedfb"/><path data-name="Path 22" d="M385.62 359.162a.792.792 0 01-.78-.659c-.047-.287-4.819-29.076-4.943-68.8-.115-36.679 3.817-90.466 23.208-138.41a.791.791 0 111.467.594c-19.294 47.706-23.207 101.275-23.092 137.813.125 39.6 4.875 68.262 4.922 68.547a.793.793 0 01-.648.912 1.26 1.26 0 01-.134.003z" fill="#fff"/></g></g><g data-name="Group 23"><path data-name="Rectangle 16" transform="translate(361.413 135.743)" fill="url(#a)" d="M0 0h21.249v34.6H0z"/><path data-name="Path 23" d="M2741.427 1282.736h-34.347v-9.65a.976.976 0 01.976-.976h31.886a1.485 1.485 0 011.485 1.485z" transform="translate(-2351.762 -1141.386)" fill="url(#b)"/><g data-name="Group 17"><path data-name="Path 128" d="M332.291 233.356h89.182V405.35h-89.182z" fill="#5ab3d6"/><path data-name="Path 24" d="M2625.956 1581.606h-105.374l-3.052-80.926 85.865 3.422 26.713 71a4.576 4.576 0 01-4.152 6.504z" transform="translate(-2192.537 -1333.388)" fill="url(#h)"/><path data-name="Path 25" d="M2643.865 1486.518l-78.676.856.367-8.486 73.53-1.078a5.15 5.15 0 014.923 5.368z" transform="translate(-2232.572 -1314.177)" fill="url(#i)"/><g data-name="Group 16" opacity=".89"><path data-name="Path 26" d="M2735.05 2284.175h-50.6a.18.18 0 01-.179-.18v-78.206a.18.18 0 01.179-.179h50.6a.179.179 0 01.179.179V2284a.179.179 0 01-.179.175z" transform="translate(-2332.6 -1925.54)" fill="url(#j)"/><g data-name="Group 15" fill="#7d97f4"><path data-name="Path 27" d="M375.07 354.389h-19.587a.1.1 0 01-.1-.1v-69.872a.1.1 0 01.1-.1h19.587a.1.1 0 01.1.1v69.872a.1.1 0 01-.1.1z"/><path data-name="Path 28" d="M398.813 354.389h-19.586a.1.1 0 01-.1-.1v-69.872a.1.1 0 01.1-.1h19.586a.1.1 0 01.1.1v69.872a.1.1 0 01-.1.1z"/></g></g></g><g data-name="Group 20"><path data-name="Rectangle 18" fill="#63b5da" d="M19.721 233.356h89.182V405.35H19.721z"/><path data-name="Path 29" d="M510.674 1599.583h105.374l4.3-75.85-87.111-1.653-26.712 71a4.576 4.576 0 004.149 6.503z" transform="translate(-502.898 -1351.364)" fill="url(#k)"/><g data-name="Group 19" opacity=".89"><path data-name="Path 30" d="M727.369 2284.175h50.6a.179.179 0 00.179-.18v-78.206a.179.179 0 00-.179-.179h-50.6a.179.179 0 00-.179.179V2284a.179.179 0 00.179.175z" transform="translate(-688.623 -1925.539)" fill="url(#j)"/><g data-name="Group 18" fill="#63b5da"><path data-name="Path 31" d="M66.125 354.39h19.587a.1.1 0 00.1-.1v-69.872a.1.1 0 00-.1-.1H66.125a.1.1 0 00-.1.1v69.872a.1.1 0 00.1.1z"/><path data-name="Path 32" d="M42.382 354.39h19.587a.1.1 0 00.1-.1v-69.872a.1.1 0 00-.1-.1H42.382a.1.1 0 00-.1.1v69.872a.1.1 0 00.1.1z"/></g></g><path data-name="Path 33" d="M672.387 1494.454l83.734-.936-.525-8.478-78.263.6a5.323 5.323 0 00-5.153 5.479z" transform="translate(-642.406 -1320.25)" fill="url(#l)"/></g><path data-name="Rectangle 19" fill="#bdd0fb" d="M97.112 209.467h247.803V405.35H97.112z"/><path data-name="Path 34" d="M1191.967 1170.36H949.895l-26.82 92.162a7.589 7.589 0 00.985 6.345l2.758 4.132a8.025 8.025 0 006.682 3.531h274.07a7.986 7.986 0 007.245-4.526l2.653-5.633a7.57 7.57 0 00.432-5.315z" transform="translate(-852.916 -1055.914)" fill="url(#m)"/><path data-name="Path 35" d="M1331.5 1114.85h-243.27v-4.177a2.929 2.929 0 012.925-2.891l237.328-3.5a2.932 2.932 0 013.014 2.891v7.681z" transform="translate(-991.902 -1000.404)" fill="url(#b)"/><path data-name="Path 36" d="M253.592 405.35h-76.831v-11.363a1.672 1.672 0 011.672-1.672h73.487a1.672 1.672 0 011.672 1.672z" fill="#5297b7"/><path data-name="Path 37" d="M241.396 392.316h-52.44V291.89a1.876 1.876 0 011.877-1.876h48.687a1.876 1.876 0 011.876 1.876z" fill="#63b5da"/><path data-name="Path 38" d="M237.695 283.128h-45.034a3.7 3.7 0 01-3.7-3.7v-3.241a3.7 3.7 0 013.446-3.695l45.034-3.127a3.7 3.7 0 013.96 3.694v6.363a3.7 3.7 0 01-3.706 3.706z" fill="#fff" opacity=".46"/><g data-name="Group 21" fill="#5ab3d6"><path data-name="Path 39" d="M283.04 237.683h-.5c-12.953 0-24.291 9.169-24.291 22.121v23.324h24.788v-45.445z" opacity=".9"/><path data-name="Path 40" d="M258.252 290.014v68.62c0 2.311 2.712 5.893 5.024 5.893h19.766v-74.513z" opacity=".9"/><path data-name="Path 41" d="M289.81 237.683h-1.259v45.445h24.788v-23.324c-.003-12.951-10.579-22.121-23.529-22.121z" opacity=".9"/><path data-name="Path 42" d="M288.549 364.528h20.528c2.31 0 4.262-3.582 4.262-5.892v-68.62h-24.788v74.513z" opacity=".9"/></g><g data-name="Group 22" fill="#63b5da"><path data-name="Path 43" d="M146.508 237.683h-.5c-12.952 0-24.29 9.169-24.29 22.121v23.324h24.788z" opacity=".9"/><path data-name="Path 44" d="M121.719 290.014v68.62c0 2.311 2.712 5.893 5.024 5.893h19.766v-74.513z" opacity=".9"/><path data-name="Path 45" d="M153.276 237.683h-1.259v45.445h24.788v-23.324c0-12.951-10.577-22.121-23.529-22.121z" opacity=".9"/><path data-name="Path 46" d="M152.017 364.528h20.528c2.31 0 4.262-3.582 4.262-5.892v-68.62h-24.788v74.513z" opacity=".9"/></g><path data-name="Path 47" d="M164.383 209.755H88.626a5.876 5.876 0 01-5.635-7.535l21.641-73.445a.288.288 0 01.552.162l-21.641 73.445a5.3 5.3 0 005.084 6.8h75.757a.288.288 0 110 .576z" fill="#bdd0fb"/><path data-name="Path 48" d="M207.893 364.815h-7.914a4.792 4.792 0 01-4.787-4.787v-58.511a4.792 4.792 0 014.787-4.787h7.914a4.792 4.792 0 014.787 4.787v58.511a4.792 4.792 0 01-4.787 4.787zm-7.914-67.509a4.217 4.217 0 00-4.213 4.211v58.511a4.217 4.217 0 004.213 4.212h7.914a4.217 4.217 0 004.212-4.212v-58.511a4.216 4.216 0 00-4.212-4.211z" fill="#fff"/><path data-name="Path 49" d="M229.981 364.815h-7.914a4.792 4.792 0 01-4.787-4.787v-58.511a4.792 4.792 0 014.787-4.787h7.914a4.792 4.792 0 014.786 4.787v58.511a4.793 4.793 0 01-4.786 4.787zm-7.916-67.509a4.217 4.217 0 00-4.212 4.211v58.511a4.217 4.217 0 004.212 4.212h7.915a4.217 4.217 0 004.212-4.212v-58.511a4.217 4.217 0 00-4.212-4.211z" fill="#fff"/><path data-name="Path 50" d="M207.893 384.54h-7.914a4.792 4.792 0 01-4.787-4.787v-6.727a4.792 4.792 0 014.787-4.786h7.914a4.792 4.792 0 014.787 4.786v6.731a4.792 4.792 0 01-4.787 4.783zm-7.914-15.727a4.217 4.217 0 00-4.213 4.211v6.731a4.218 4.218 0 004.213 4.212h7.914a4.216 4.216 0 004.212-4.212v-6.729a4.217 4.217 0 00-4.212-4.211z" fill="#fff"/><path data-name="Path 51" d="M229.981 384.54h-7.914a4.792 4.792 0 01-4.787-4.787v-6.727a4.792 4.792 0 014.787-4.786h7.914a4.791 4.791 0 014.786 4.786v6.731a4.793 4.793 0 01-4.786 4.783zm-7.916-15.727a4.217 4.217 0 00-4.212 4.211v6.731a4.218 4.218 0 004.212 4.212h7.915a4.217 4.217 0 004.212-4.212v-6.729a4.217 4.217 0 00-4.212-4.211z" fill="#fff"/><path data-name="Path 52" d="M315.482 368.814h-59.671a6.212 6.212 0 01-6.206-6.206V259.293a29.662 29.662 0 0129.629-29.629h12.822a29.663 29.663 0 0129.629 29.629v103.314a6.21 6.21 0 01-6.203 6.207zM279.236 230.24a29.088 29.088 0 00-29.055 29.055v103.314a5.638 5.638 0 005.63 5.632h59.671a5.637 5.637 0 005.63-5.632V259.293a29.088 29.088 0 00-29.055-29.055z" fill="#fff"/><path data-name="Path 53" d="M178.978 368.814h-59.671a6.212 6.212 0 01-6.206-6.206V259.293a29.662 29.662 0 0129.629-29.629h12.823a29.664 29.664 0 0129.631 29.629v103.314a6.214 6.214 0 01-6.206 6.207zm-36.247-138.575a29.087 29.087 0 00-29.055 29.055v103.314a5.638 5.638 0 005.63 5.632h59.671a5.636 5.636 0 005.63-5.632V259.293a29.087 29.087 0 00-29.055-29.055z" fill="#fff"/><path data-name="Path 54" d="M347.333 188.263a.289.289 0 01-.275-.205l-16.83-55.622a8.977 8.977 0 00-8.558-6.407c-44.062-.347-71.042-.334-72.17.037a.293.293 0 01-.366-.171.282.282 0 01.154-.363c1.35-.555 45.933-.288 72.388-.078a9.55 9.55 0 019.1 6.815l16.83 55.622a.286.286 0 01-.192.358.21.21 0 01-.081.014z" fill="#bdd0fb"/></g><g data-name="Group 26"><g data-name="Group 24"><path data-name="Rectangle 20" transform="translate(76.577 394.022)" fill="url(#n)" d="M0 0h138.199v32.208H0z"/><path data-name="Path 55" d="M1089.484 3041.377H948.037a1.236 1.236 0 01-1.237-1.237v-11.13h143.51v11.541a.828.828 0 01-.826.826z" transform="translate(-873.1 -2617.209)" fill="url(#o)"/><path data-name="Path 56" d="M1089.075 2953.6H948.321a1.531 1.531 0 01-1.531-1.531v-10.839h143.51v11.141a1.226 1.226 0 01-1.225 1.229z" transform="translate(-873.091 -2543.472)" fill="url(#o)"/><path data-name="Path 57" d="M1090.309 2916.878H946.8v-3.378a1.264 1.264 0 011.264-1.263h140.967a1.28 1.28 0 011.28 1.28v3.358z" transform="translate(-873.1 -2519.12)" fill="url(#n)"/></g><g data-name="Group 25"><path data-name="Path 58" d="M2556.481 3003.736c4.65 2.26 6.29 8.475 3.664 13.876s-8.526 7.948-13.176 5.687-6.291-8.474-3.664-13.875 8.525-7.951 13.176-5.688z" transform="translate(-2213.137 -2595.285)" fill="url(#p)"/><path data-name="Path 59" d="M2522.22 3003.16l-4.507 9.268a1 1 0 01-1.337.462l-5.435-2.643a1 1 0 01-.462-1.338l4.507-9.268a1 1 0 011.337-.462l5.435 2.642a1 1 0 01.462 1.339z" transform="translate(-2186.53 -2592.066)" fill="url(#q)"/><path data-name="Path 60" d="M1800.584 2646.81a25.487 25.487 0 01-5.761 11.783 6.958 6.958 0 01-6.716 2.211c-24.4-4.9-75.524-36.5-125.177-64.1-3.291-1.83-5.564-3.905-4.014-7.094l3.424-7.042c1.541-3.17 5.228-1.385 8.69.037 52.521 21.579 108.228 40.388 127.352 57.792a6.915 6.915 0 012.202 6.413z" transform="translate(-1470.87 -2240.703)" fill="url(#r)"/><path data-name="Path 61" d="M1633.065 2526.811l-11.38 23.4a.961.961 0 01-1.283.444l-5.628-2.738a.959.959 0 01-.443-1.282l11.38-23.4a.959.959 0 011.283-.443l5.628 2.737a.96.96 0 01.443 1.282z" transform="translate(-1433.754 -2191.895)" fill="url(#q)"/><path data-name="Path 62" d="M1310.075 2377.641l-11.38 23.4a.96.96 0 01-1.283.444l-5.628-2.738a.959.959 0 01-.443-1.283l11.379-23.4a.96.96 0 011.284-.443l5.628 2.737a.962.962 0 01.443 1.283z" transform="translate(-1162.437 -2066.59)" fill="url(#q)"/><path data-name="Path 63" d="M1303 2270.255l-36.734 75.541-51.177-24.887 36.734-75.54z" transform="translate(-1098.467 -1958.939)" fill="url(#r)"/><path data-name="Path 64" d="M1254.118 2717.527l-4.619 9.5-51.179-24.887 4.62-9.5z" transform="translate(-1084.38 -2334.652)" fill="url(#s)"/><path data-name="Path 65" d="M1248.733 2750.087l-2.3 4.721a3.282 3.282 0 01-3.885 1.711A159.349 159.349 0 011196.3 2734a3.232 3.232 0 01-1.053-4.06l2.306-4.742z" transform="translate(-1081.528 -2362.004)" fill="url(#q)"/><path data-name="Path 66" d="M1265.333 2694.564l-1.765 3.628a.877.877 0 01-1.174.407l-53.275-25.906a.879.879 0 01-.406-1.175l1.765-3.628a.878.878 0 011.174-.407l53.275 25.907a.877.877 0 01.406 1.174z" transform="translate(-1093.036 -2313.446)" fill="url(#t)"/><path data-name="Path 67" d="M1266.453 2698.253l-1.3 2.669a.647.647 0 01-.864.3l-53.692-26.109a.647.647 0 01-.3-.864l1.3-2.668a.646.646 0 01.864-.3l53.692 26.109a.646.646 0 01.3.863z" transform="translate(-1094.389 -2316.656)" fill="url(#u)"/><path data-name="Path 68" d="M1497.739 2216.537l4.619-9.5-51.177-24.887-4.62 9.5z" transform="translate(-1292.906 -1905.833)" fill="url(#s)"/><path data-name="Path 69" d="M1513.577 2199.415l2.3-4.721a3.281 3.281 0 00-1.052-4.111 159.415 159.415 0 00-46.271-22.475 3.233 3.233 0 00-3.844 1.68l-2.306 4.742z" transform="translate(-1306.212 -1893.921)" fill="url(#q)"/><path data-name="Path 70" d="M1479.208 2254.752l1.765-3.628a.878.878 0 00-.407-1.175l-53.275-25.906a.877.877 0 00-1.174.406l-1.765 3.629a.878.878 0 00.407 1.175l53.275 25.906a.879.879 0 001.174-.407z" transform="translate(-1274.177 -1940.95)" fill="url(#v)"/><path data-name="Path 71" d="M1480.792 2257.468l1.3-2.668a.646.646 0 00-.3-.864l-53.692-26.11a.645.645 0 00-.864.3l-1.3 2.668a.646.646 0 00.3.864l53.692 26.11a.646.646 0 00.864-.3z" transform="translate(-1275.526 -1944.147)" fill="url(#u)"/></g></g><g data-name="Group 33"><path data-name="Path 72" d="M804.241 2171.288c-3.828-2.061-9.62 5.486-9.62 5.486s-20.268 2.942-25.716 1.63-10.88-22.526-10.88-22.526-13.152-5.4-5.62 20.385c7.025 24.052 42.218 5.108 42.218 5.108s10.111.421 12.565-1.641.882-6.382-2.947-8.442z" transform="translate(-707.848 -1883.368)" fill="url(#c)"/><path data-name="Path 73" d="M1034.46 2250.143s1.208-4.619 4.858-5.676 3.613-.344 3.089.67-6.47 7.098-7.947 5.006z" transform="translate(-946.735 -1957.741)" fill="url(#w)"/><path data-name="Path 74" d="M794.223 2187.242c-7.4-1.385-8.207-18.729-8.207-18.729s-13.917-9.9-9.748 16.64c2.011 12.8 11.652 15.729 25.39 12.144a.4.4 0 00.3-.373c.043-3.395-1.456-6.058-.659-9.435-.799-.057-6.499-.139-7.076-.247z" transform="translate(-729.195 -1892.86)" fill="url(#x)"/><g data-name="Group 28" transform="translate(73.137 224.021)"><circle data-name="Ellipse 1" cx="22.814" cy="22.814" r="22.814" fill="#fff"/><path data-name="Path 75" d="M22.814 42.014a19.2 19.2 0 1119.2-19.2 19.223 19.223 0 01-19.2 19.2zm0-37.742a18.54 18.54 0 1018.54 18.539 18.562 18.562 0 00-18.54-18.539z" fill="#027368"/><path data-name="Path 76" d="M29.928 48.171H15.134v-6.456a.261.261 0 01.261-.261h14.106a.428.428 0 01.427.427v6.289z" fill="#027368"/><path data-name="Path 77" d="M24.224 82.663h-3.52a.227.227 0 01-.227-.227V46.181a.227.227 0 01.227-.227h3.52a.227.227 0 01.227.227v36.255a.228.228 0 01-.227.227z" fill="#027368"/><path data-name="Path 78" d="M30.572 48.451H14.596a.146.146 0 01-.146-.146V45.77a.146.146 0 01.146-.145h15.976a.146.146 0 01.146.145v2.535a.147.147 0 01-.146.146z" fill="#025048"/><g data-name="Group 27" fill="#027368"><path data-name="Path 79" d="M9.919 14.41h4.053a5.513 5.513 0 013.606.961 3.8 3.8 0 011.129 3.057 4.183 4.183 0 01-.6 2.309 2.413 2.413 0 01-1.629 1.125v.108a3.08 3.08 0 011.944 1.26 4.464 4.464 0 01.6 2.454 4.722 4.722 0 01-1.157 3.384 4.15 4.15 0 01-3.166 1.222H9.92V14.41zm2.781 6.386h1.358a1.551 1.551 0 001.313-.5 2.44 2.44 0 00.381-1.488 1.937 1.937 0 00-.435-1.417 1.882 1.882 0 00-1.368-.429h-1.25zm0 2.466v4.443h1.488a1.654 1.654 0 001.374-.565 2.783 2.783 0 00.451-1.749q0-2.129-1.869-2.129z"/><path data-name="Path 80" d="M21.726 30.29V14.41h2.781v15.88z"/><path data-name="Path 81" d="M37.964 22.198a9.7 9.7 0 01-1.6 6.012 5.47 5.47 0 01-4.611 2.08h-3.889V14.41h4.248a5.089 5.089 0 014.311 2.048 9.355 9.355 0 011.541 5.74zm-3.03.087q0-5.323-2.932-5.323h-1.184v10.743h.955a2.567 2.567 0 002.39-1.352 8.414 8.414 0 00.768-4.068z"/></g></g><path data-name="Path 82" d="M1061.324 2258.956s-4.254-.262-4.188 2.421-.2 6.476 2.094 6.641 6.529.594 6.863-2.892-4.375-7.413-4.769-6.17z" transform="translate(-965.783 -1970.154)" fill="url(#y)"/><g data-name="Group 29"><path data-name="Path 83" d="M603.4 3108.692a3.677 3.677 0 00-3.656-2.682l-1.673.053a25.85 25.85 0 00-15.221 9.735.157.157 0 00.115.248c2.782.225 9.245.672 14.717.519 3.649-.1 5.6-.245 6.574-.645a30.43 30.43 0 00-.856-7.228z" transform="translate(-567.353 -2681.89)" fill="url(#z)"/><path data-name="Path 84" d="M30.393 434.485a19.7 19.7 0 006.513-.931c0 .364 0 .732-.011 1.115a.721.721 0 01-.688.732l-20.038-.129a.916.916 0 01-.736-1.333c2.627.218 9.318.704 14.96.546z" fill="#025373"/></g><path data-name="Path 85" d="M660.57 3070.41l1.4 6.737a1.1 1.1 0 00.941.907 9.31 9.31 0 002.168-.035 1.385 1.385 0 001.1-1.627l-.973-5.982z" transform="translate(-632.662 -2651.986)" fill="url(#A)"/><g data-name="Group 30"><path data-name="Path 86" d="M56.903 434.484a19.7 19.7 0 01-6.513-.931c0 .364 0 .732.011 1.115a.721.721 0 00.688.732l20.038-.129a.916.916 0 00.736-1.333c-2.627.218-9.317.704-14.96.546z" fill="#025373"/><path data-name="Path 87" d="M822.565 3115.857a.856.856 0 00-.08-.15c-1.77-2.473-6.276-7.4-15.182-9.532l-4.273-.134s-1.9 3.306-1.939 9.43a19.726 19.726 0 006.513.931c5.643.157 12.334-.329 14.961-.545z" transform="translate(-750.701 -2681.917)" fill="url(#B)"/></g><path data-name="Path 88" d="M808.27 3060.125c.048.318.634 5.158.859 7.036a.932.932 0 00.784.84 9.785 9.785 0 002.934-.045 1.265 1.265 0 00.958-1.269v-7.6z" transform="translate(-756.732 -2642.477)" fill="url(#C)"/><path data-name="Path 89" d="M644.307 2513.411s10.3 39.162 10.119 88.444a1.906 1.906 0 01-1.513 1.859 22.179 22.179 0 01-4.777.552 1.77 1.77 0 01-1.686-1.479c-1.445-8.473-9.737-56.208-14.461-63.958 0 0-3.109 42.515-2.115 64.572a1.048 1.048 0 01-.922 1.088 17.536 17.536 0 01-3.835-.011 1.4 1.4 0 01-1.246-1.187c-1.029-7.172-6.953-49.858-6.7-80.608.015-1.734 4.585-9.274 4.585-9.274h22.553z" transform="translate(-596.198 -2184.096)" fill="url(#D)"/><path data-name="Path 90" d="M575.744 2211.186c-2.8-7.667-1.786-16.923-1.774-17.016l.771.088c-.01.091-1 9.17 1.733 16.661z" transform="translate(-559.758 -1915.93)" fill="url(#E)"/><path data-name="Path 91" d="M497.789 2132.089a17.653 17.653 0 014.272-3.165c2.041-.993 4.508-1.24 6.739-1.632q3.852-.677 7.743-1.08a88.45 88.45 0 0111.154-.064c1.256.024 5.582 1.282 8.812 2.234a9.821 9.821 0 017.057 8.8c.032.541.043 1.078.038 1.6a77.737 77.737 0 01-1.769 18.141c-.048-.048-7.543 23.948-6.2 33.651a1.514 1.514 0 01-1.267 1.717c-4.486.667-17.869 2.326-24.817-.46a1.058 1.058 0 01-.667-.992 117.249 117.249 0 00-5.55-33.857q-.29-.936-.488-1.9c-3.828 8.079-3.68 14.664-1.851 19.817a30.741 30.741 0 01-7.161 5.237c-6.383-7.891-9.191-17.749-6.934-27.728a43.65 43.65 0 014.544-11.349 37.1 37.1 0 016.345-8.97z" transform="translate(-486.125 -1858.665)" fill="url(#d)"/><path data-name="Path 92" d="M553.006 2445.721c-1.907-1.07-9.3-5.663-12.276-14.042a30.8 30.8 0 01-7.161 5.235 59.514 59.514 0 0013.087 11.639c.2 4.353 3.547 5.964 4.313 7.375s-.322 1.088.162 2.861 5.559-2.821 6.769-3.869.483-3.948.483-3.948a16.1 16.1 0 01.4-1.812c.325-1.207-5.751-3.429-5.777-3.439z" transform="translate(-525.98 -2115.443)" fill="url(#F)"/><g data-name="Group 32"><path data-name="Path 93" d="M665.979 2055.284l-1.339 13.686s7.7 2.318 13.3-1.632L674 2054.9z" transform="translate(-636.08 -1798.942)" fill="url(#G)"/><g data-name="Group 31"><path data-name="Path 94" d="M692.4 1976.5c.091.237.478 17.057.478 17.057l-9.609.016-2.736-15.886s10.332-5.161 11.867-1.187z" transform="translate(-649.428 -1731.823)" fill="url(#H)"/><path data-name="Path 95" d="M653.809 1947.524a1.388 1.388 0 00-.432 1.138l.774 8.353a1.327 1.327 0 00.086.368c.256.653 1.238 2.668 3.283 1.551 1.744-.954 3.358-1.8 4.67-1.846a1.379 1.379 0 011.413 1.36 51.562 51.562 0 01-.373 7.594 1.376 1.376 0 01-1.451 1.173 38.321 38.321 0 01-8.518-1.411 1.381 1.381 0 01-.936-1.065c-.406-2.2-1.573-8.381-2.171-10.074-.555-1.573-2.713-2.116-3.721-2.288a1.388 1.388 0 01-.931-.608 3.04 3.04 0 01.973-4.667 1.381 1.381 0 00.427-1.877 3.053 3.053 0 01.822-4.411 4.3 4.3 0 015.19-.036 1.435 1.435 0 001.718-.1.913.913 0 01.885-.2 1.339 1.339 0 001.659-.948 3.534 3.534 0 013.534-2.795c4.254-.234 5.753 4.2 5.279 7.1s-5.1 2.9-7.612 2.058c-1.842-.614-3.707.824-4.568 1.631z" transform="translate(-619.415 -1699.673)" fill="url(#I)"/><path data-name="Path 96" d="M655.235 2036.066s.171-4.96-1.822-5.72-4.417.424-3.075 3.71c1.672 4.088 4.897 2.01 4.897 2.01z" transform="translate(-623.741 -1778.13)" fill="url(#J)"/></g></g></g><g data-name="Group 42"><g data-name="Group 41" transform="translate(192.98 47.899)"><circle data-name="Ellipse 11" cx="27.41" cy="27.41" r="27.41" transform="translate(3.733 3.729)" fill="url(#K)"/><circle data-name="Ellipse 12" cx="26.5" cy="26.5" r="26.5" transform="translate(4.644 4.639)" fill="url(#e)"/><path data-name="Path 103" d="M9.292 20.981a.832.832 0 01-.381-.091.847.847 0 01-.374-1.139 25.2 25.2 0 0122.607-13.92 25.477 25.477 0 014.566.411.848.848 0 11-.3 1.669 23.876 23.876 0 00-4.262-.384 23.518 23.518 0 00-21.094 12.988.85.85 0 01-.762.466z" fill="#fff" opacity=".7"/><circle data-name="Ellipse 13" cx="22.428" cy="22.428" r="22.428" transform="rotate(-45 38.287 15.859)" fill="#fff" opacity=".78"/><g data-name="Group 40"><path data-name="Path 104" d="M1836.584 885.986v-2.44a19.912 19.912 0 01-6.847-1.484 1.412 1.412 0 01-.781-1.667l.619-2.273a1.423 1.423 0 011.931-.931 16.534 16.534 0 006.321 1.331c2.449 0 4.277-.83 4.277-2.532 0-1.536-1.411-2.449-4.817-3.363-4.859-1.329-8.346-3.446-8.346-7.724 0-3.862 2.824-6.81 7.724-7.6v-2.44a1.422 1.422 0 011.422-1.422h1.433a1.422 1.422 0 011.423 1.422v2.19a18.127 18.127 0 015.426.974 1.417 1.417 0 01.885 1.709l-.57 2.1a1.416 1.416 0 01-1.871.957 14.806 14.806 0 00-5.323-.966c-2.907 0-3.737 1.2-3.737 2.285 0 1.33 1.744 2.243 5.522 3.4 5.4 1.619 7.641 3.862 7.641 7.89 0 3.7-2.74 7.019-8.055 7.849v2.731a1.422 1.422 0 01-1.422 1.422H1838a1.424 1.424 0 01-1.416-1.418z" transform="translate(-1807.062 -837.596)" fill="url(#L)"/></g></g><g data-name="Group 48" transform="translate(133.626 87.498)"><circle data-name="Ellipse 11" cx="37.411" cy="37.411" r="37.411" transform="translate(5.095 5.089)" fill="url(#K)"/><circle data-name="Ellipse 12" cx="36.169" cy="36.169" r="36.169" transform="translate(6.338 6.332)" fill="url(#e)"/><path data-name="Path 103" d="M12.684 28.634a1.138 1.138 0 01-.52-.125 1.157 1.157 0 01-.511-1.555 34.4 34.4 0 0130.856-19 34.786 34.786 0 016.232.561 1.158 1.158 0 11-.415 2.278 32.584 32.584 0 00-5.817-.524 32.1 32.1 0 00-28.79 17.726 1.16 1.16 0 01-1.035.639z" fill="#fff" opacity=".7"/><circle data-name="Ellipse 13" cx="30.611" cy="30.611" r="30.611" transform="rotate(-45 52.257 21.645)" fill="#fff" opacity=".78"/><g data-name="Group 40"><path data-name="Path 104" d="M1839.385 897.86v-3.33a27.174 27.174 0 01-9.345-2.026 1.927 1.927 0 01-1.065-2.275l.845-3.1a1.941 1.941 0 012.635-1.271 22.567 22.567 0 008.627 1.817c3.343 0 5.837-1.133 5.837-3.457 0-2.1-1.926-3.343-6.575-4.59-6.631-1.814-11.392-4.7-11.392-10.542 0-5.271 3.854-9.3 10.542-10.372v-3.33a1.941 1.941 0 011.941-1.941h1.957a1.941 1.941 0 011.941 1.941v2.989a24.763 24.763 0 017.407 1.33 1.935 1.935 0 011.208 2.332l-.778 2.869a1.934 1.934 0 01-2.555 1.306 20.21 20.21 0 00-7.264-1.319c-3.968 0-5.1 1.644-5.1 3.118 0 1.815 2.38 3.061 7.537 4.647 7.367 2.21 10.429 5.271 10.429 10.769 0 5.044-3.741 9.579-10.994 10.713v3.727a1.942 1.942 0 01-1.941 1.941h-1.957a1.944 1.944 0 01-1.94-1.946z" transform="translate(-1799.093 -831.815)" fill="url(#L)"/></g></g><g data-name="Group 49" transform="translate(108.529 7.49)"><circle data-name="Ellipse 11" cx="37.411" cy="37.411" r="37.411" transform="translate(5.095 5.089)" fill="url(#K)"/><circle data-name="Ellipse 12" cx="36.169" cy="36.169" r="36.169" transform="translate(6.338 6.332)" fill="url(#e)"/><path data-name="Path 103" d="M12.684 28.634a1.138 1.138 0 01-.52-.125 1.157 1.157 0 01-.511-1.555 34.4 34.4 0 0130.856-19 34.786 34.786 0 016.232.561 1.158 1.158 0 11-.415 2.278 32.584 32.584 0 00-5.817-.524 32.1 32.1 0 00-28.79 17.726 1.16 1.16 0 01-1.035.639z" fill="#fff" opacity=".7"/><circle data-name="Ellipse 13" cx="30.611" cy="30.611" r="30.611" transform="rotate(-45 52.257 21.645)" fill="#fff" opacity=".78"/><g data-name="Group 40"><path data-name="Path 104" d="M1839.385 897.86v-3.33a27.174 27.174 0 01-9.345-2.026 1.927 1.927 0 01-1.065-2.275l.845-3.1a1.941 1.941 0 012.635-1.271 22.567 22.567 0 008.627 1.817c3.343 0 5.837-1.133 5.837-3.457 0-2.1-1.926-3.343-6.575-4.59-6.631-1.814-11.392-4.7-11.392-10.542 0-5.271 3.854-9.3 10.542-10.372v-3.33a1.941 1.941 0 011.941-1.941h1.957a1.941 1.941 0 011.941 1.941v2.989a24.763 24.763 0 017.407 1.33 1.935 1.935 0 011.208 2.332l-.778 2.869a1.934 1.934 0 01-2.555 1.306 20.21 20.21 0 00-7.264-1.319c-3.968 0-5.1 1.644-5.1 3.118 0 1.815 2.38 3.061 7.537 4.647 7.367 2.21 10.429 5.271 10.429 10.769 0 5.044-3.741 9.579-10.994 10.713v3.727a1.942 1.942 0 01-1.941 1.941h-1.957a1.944 1.944 0 01-1.94-1.946z" transform="translate(-1799.093 -831.815)" fill="url(#L)"/></g></g><g data-name="Group 50" transform="translate(67.878 49.834)"><circle data-name="Ellipse 11" cx="20.885" cy="20.885" r="20.885" transform="translate(2.845 2.841)" fill="url(#K)"/><circle data-name="Ellipse 12" cx="20.192" cy="20.192" r="20.192" transform="translate(3.538 3.535)" fill="url(#e)"/><path data-name="Path 103" d="M7.081 15.986a.635.635 0 01-.29-.069.646.646 0 01-.285-.868A19.2 19.2 0 0123.732 4.442a19.425 19.425 0 013.479.313.646.646 0 11-.232 1.272 18.183 18.183 0 00-3.247-.293 17.919 17.919 0 00-16.073 9.9.648.648 0 01-.578.352z" fill="#fff" opacity=".7"/><circle data-name="Ellipse 13" cx="17.089" cy="17.089" r="17.089" transform="rotate(-45 29.173 12.084)" fill="#fff" opacity=".78"/><g data-name="Group 40"><path data-name="Path 104" d="M1834.756 878.239v-1.859a15.179 15.179 0 01-5.218-1.131 1.077 1.077 0 01-.595-1.27l.472-1.732a1.084 1.084 0 011.471-.71 12.6 12.6 0 004.816 1.014c1.866 0 3.258-.633 3.258-1.93 0-1.17-1.075-1.866-3.67-2.562-3.7-1.013-6.36-2.626-6.36-5.885 0-2.943 2.152-5.189 5.885-5.79v-1.859a1.084 1.084 0 011.084-1.084h1.093a1.084 1.084 0 011.083 1.084v1.669a13.817 13.817 0 014.135.742 1.08 1.08 0 01.674 1.3l-.434 1.6a1.079 1.079 0 01-1.426.729 11.284 11.284 0 00-4.056-.736c-2.215 0-2.848.918-2.848 1.741 0 1.013 1.328 1.709 4.208 2.594 4.113 1.234 5.822 2.943 5.822 6.012 0 2.816-2.088 5.348-6.138 5.98v2.081a1.084 1.084 0 01-1.084 1.084h-1.092a1.085 1.085 0 01-1.08-1.082z" transform="translate(-1812.262 -841.367)" fill="url(#L)"/></g></g></g><g data-name="Group 46"><g data-name="Group 43"><path data-name="Path 105" d="M2805.017 2118.666c-3.044-11.261-12.451-20.512-22.934-22.849a3.53 3.53 0 01-2.588-4.312c0-.013.006-.028.01-.04 1.518-6.548-2.68-11.766-9.011-13.235s-12.4 1.368-13.915 7.918a14.5 14.5 0 003.195 12.61 3.522 3.522 0 01.133 4.667c-6.388 7.484-8.986 18.906-6.223 29.122 4.068 15.048 18.219 21.771 32.394 17.937s23.007-16.77 18.939-31.818z" transform="translate(-2389.989 -1818.221)" fill="url(#M)"/><path data-name="Path 106" d="M2601.152 2217a1.146 1.146 0 01.312-.1c.946-.15 1.319.92 2.147 1a.414.414 0 00.414-.156c.224-.41-.068-.7-.181-1.064a1.982 1.982 0 01.055-1.153 4.127 4.127 0 01.728-1.331 3.721 3.721 0 001.258 2.371 3.573 3.573 0 01.841 4.009c-1.289 5.43-3.236 12.615 4.976 17.682s19.353-10.221 19.353-10.221l-5.333 18.084s-8.631 6.625-18.985-2.265-3.863-22.215-3.854-22.235a12.171 12.171 0 01-1.5-.76 3.587 3.587 0 01-.894-2.3 2.053 2.053 0 01.029-.832 1.215 1.215 0 01.634-.729z" transform="translate(-2262.203 -1932.747)" fill="url(#f)"/><path data-name="Path 107" d="M2748.587 2284.4a16.574 16.574 0 0116.293 3.824 4.168 4.168 0 011.279 4.125c-1.68 6.681-6.073 26.407-1.736 34.825 0 0-7.208 8.252-15.36 1.865 0 0-3.9-15.633-8.748-22.437-3.348-4.7 4.858-17.97 6.937-21.177a2.5 2.5 0 011.335-1.025z" transform="translate(-2379.013 -1991.106)" fill="url(#N)"/><path data-name="Path 108" d="M2811.429 2204.94s3.781 10.086 4.136 14.558a7.68 7.68 0 01-7.729-1.1s-.584-10.133-1.185-11.938z" transform="translate(-2435.403 -1924.977)" fill="url(#O)"/><path data-name="Path 109" d="M2775.8 2118.412s-9.139 13.316-3.455 17.026 12.19-5.753 12.19-5.753 2.043-7.233-.282-9.629-8.453-1.644-8.453-1.644z" transform="translate(-2405.017 -1852.198)" fill="url(#P)"/><path data-name="Path 110" d="M2804.8 2097.752s-4.294 1.1-4.862 3.067 6.187 3.646 8.071 3.7l1.665 7.845s4.346-7.492 2.488-11.736-7.362-2.876-7.362-2.876z" transform="translate(-2429.74 -1834.76)" fill="url(#Q)"/><path data-name="Path 111" d="M2846.83 2170.622s3.574-4.3 5.079-1.569-3.2 4.893-4.865 3.569z" transform="translate(-2469.154 -1894.068)" fill="url(#R)"/><path data-name="Path 112" d="M2734.85 2774.48c.042.712-1.1 6.389-1.728 9.419a4.969 4.969 0 00.6 3.552l24.339 39.256a5.411 5.411 0 01.648 1.532 34.077 34.077 0 011.061 10.567l-1.173 2.558 5.255-1.3.88-14.194-1.512-.883a7.11 7.11 0 01-2.934-3.307c-2.23-5.14-7.777-18.23-9.264-24.631-1.689-7.276-9.914-13.055-9.914-13.055l1.361-3.4z" transform="translate(-2373.551 -2403.4)" fill="url(#S)"/><path data-name="Path 113" d="M2895.642 3099.316s-2.936-4.465-3.3-6.217-1.36-4.841-3.1-3.873c0 0-.667 8.559-.319 11.893s-3.713 3.3-3.713 3.3a3.783 3.783 0 00-1.919 1.012.951.951 0 00.667 1.587 22.812 22.812 0 005.647-.427 1.73 1.73 0 001.365-1.622l.4-9.844 3.682 4.471z" transform="translate(-2499.567 -2667.638)" fill="url(#T)"/><path data-name="Path 114" d="M2813.482 2807.02s1.5 35.5 1.71 40.538-.49 16.237-5.483 19.673l2.23 1.587a29.407 29.407 0 005.307-6.937c2.923-5.111 3.817-6.049 3.817-6.049l-1.04-2.031a4.511 4.511 0 01-.421-2.885c.992-5.309 4.3-22.968 5.227-26.773 1.089-4.494 1.061-10.466-3.118-15.387s-8.229-1.736-8.229-1.736z" transform="translate(-2437.973 -2429.881)" fill="url(#U)"/><path data-name="Path 115" d="M2806.551 3127.463a.311.311 0 00.307-.272c.146-1.187.757-5.947 1.307-7.186.63-1.421 2.663-7.385-.149-7.834 0 0-6.776 10.311-8.088 11.707a2.619 2.619 0 01-3.016.536 5.04 5.04 0 00-2.254 1.685.923.923 0 00.755 1.468l4.694-.043a3.3 3.3 0 003.056-2.139c.787-2.078 2.149-5.132 3.777-6.506l-.7 8.246a.312.312 0 00.313.339z" transform="translate(-2425.176 -2687.065)" fill="url(#T)"/><path data-name="Path 116" d="M2740.06 2529.741s1.121 3.35-.4 8.933l-9.414 35.384a1.091 1.091 0 00.707 1.313 67.254 67.254 0 0026.513 2.708 1.537 1.537 0 001.378-1.223l4.171-20.6c2.183-10.761 4.63-22.37-7.223-29.138-5.357 2.416-10.368 3.874-15.732 2.623z" transform="translate(-2371.193 -2195.614)" fill="url(#V)"/><path data-name="Path 117" d="M2857.149 2316.294s11.647 9.313 14.738 22.281-16.487 14.725-16.487 14.725-2.717-2.921-5.858-1.8-.342-5.182 3.354-5.235 2.04 2.9 7.223.436c5.051-2.4 8.063-9.6-5.137-20.169a5.893 5.893 0 01-1.76-2.305c-2.639-6.313-.714-10.518 3.927-7.933z" transform="translate(-2470.295 -2017.866)" fill="url(#W)"/><path data-name="Path 118" d="M410.62 314.805l-.276-.194c2.537-3.6 2.864-8.8.85-13.568-1.6-3.787-4.461-7.249-9.005-10.9-1.693-1.36-3.49-2.65-5.225-3.9-2.091-1.5-4.252-3.054-6.255-4.743-1.8-1.52-3.7-3.4-4.1-5.869a12.909 12.909 0 01.167-3.8c.281-1.981.545-3.853-.616-5.286l.263-.211c1.254 1.547.966 3.579.688 5.545a12.677 12.677 0 00-.168 3.7c.381 2.357 2.226 4.187 3.98 5.665 1.993 1.68 4.15 3.229 6.235 4.728 1.741 1.249 3.539 2.542 5.24 3.907 4.59 3.685 7.484 7.188 9.1 11.028 2.065 4.879 1.726 10.202-.878 13.898z" fill="#bdd0fb"/><path data-name="Path 119" d="M403.882 316.979l-.317-.115c1.726-4.776 1.221-10.644-1.387-16.1-2.585-5.409-6.812-9.819-10.206-13.056l.232-.243c3.414 3.258 7.668 7.7 10.278 13.156 2.646 5.531 3.156 11.498 1.4 16.358z" fill="#bdd0fb"/></g><g data-name="Group 45" transform="translate(320.574 221.076)"><circle data-name="Ellipse 14" cx="20.684" cy="20.684" r="20.684" fill="#fff"/><path data-name="Path 120" d="M3.275 20.685a17.41 17.41 0 1117.41 17.409 17.429 17.429 0 01-17.41-17.409zm.6 0a16.81 16.81 0 1016.81-16.81 16.828 16.828 0 00-16.81 16.81z" fill="#03a688"/><path data-name="Path 121" d="M14.234 43.675h13.412v-5.828a.261.261 0 00-.261-.26H14.663a.428.428 0 00-.427.427v5.662z" fill="#027368"/><path data-name="Path 122" d="M19.429 74.947h3.148a.228.228 0 00.228-.228V41.89a.227.227 0 00-.228-.227h-3.148a.227.227 0 00-.228.227v32.829a.227.227 0 00.228.228z" fill="#03a688"/><path data-name="Path 123" d="M13.662 43.929h14.455a.146.146 0 00.146-.146v-2.27a.146.146 0 00-.146-.146H13.659a.147.147 0 00-.146.146v2.27a.146.146 0 00.149.146z" fill="#045d54"/><g data-name="Group 44" fill="#03a688"><path data-name="Path 124" d="M8.074 13.066h3.673a5.007 5.007 0 013.27.872 3.449 3.449 0 011.023 2.773 3.79 3.79 0 01-.542 2.093 2.188 2.188 0 01-1.477 1.019v.1a2.794 2.794 0 011.763 1.142 4.042 4.042 0 01.542 2.226 4.271 4.271 0 01-1.049 3.067 3.76 3.76 0 01-2.87 1.109H8.075v-14.4zm2.521 5.79h1.23a1.408 1.408 0 001.192-.453 2.206 2.206 0 00.345-1.349 1.755 1.755 0 00-.394-1.285 1.71 1.71 0 00-1.24-.389h-1.134v3.475zm0 2.237v4.028h1.349a1.5 1.5 0 001.246-.512 2.535 2.535 0 00.408-1.585q0-1.93-1.694-1.931z"/><path data-name="Path 125" d="M18.78 27.463v-14.4h2.521v14.4z"/><path data-name="Path 126" d="M33.502 20.126a8.8 8.8 0 01-1.453 5.45 4.959 4.959 0 01-4.18 1.886h-3.526v-14.4h3.851a4.618 4.618 0 013.91 1.856 8.494 8.494 0 011.398 5.208zm-2.747.08q0-4.826-2.659-4.825h-1.074v9.74h.867a2.325 2.325 0 002.167-1.227 7.648 7.648 0 00.699-3.688z"/></g></g><path data-name="Path 127" d="M2594.309 2221.725a13.56 13.56 0 00-.028 2.865 1.1 1.1 0 00.458.891c.725.363 2.269-.656 2.883-1.007a1.147 1.147 0 00.553-.526 1.191 1.191 0 00-.08-.783 11.243 11.243 0 00-1.163-2.641c-.328-.491-1.187-1.466-1.835-1-.584.426-.708 1.557-.788 2.201z" transform="translate(-2256.957 -1937.127)" fill="url(#X)"/></g></g></g></svg>