<svg xmlns="http://www.w3.org/2000/svg" width="113.964" height="115.929"><path data-name="Path 138" d="M62.877 0h51.087v110.034H62.877zm0 0" fill="#e3584b"/><path data-name="Path 139" d="M62.877 35.368h51.087v3.93H62.877zm0 0" fill="#cc4f43"/><path data-name="Path 140" d="M70.736 11.789h3.93v19.649h-3.93zm0 0" fill="#d6d9db"/><path data-name="Path 141" d="M70.736 43.228h3.93v27.509h-3.93zm0 0" fill="#d6d9db"/><path data-name="Path 142" d="M64.842 110.034h3.93v5.895h-3.93zm0 0" fill="#0a4a7a"/><path data-name="Path 143" d="M108.069 110.034h3.93v5.895h-3.93zm0 0" fill="#0a4a7a"/><path data-name="Path 144" d="M0 41.263h55.017v68.771H0zm0 0" fill="#4398d1"/><g data-name="Group 66" fill="#2d81ba"><path data-name="Path 145" d="M0 55.018h55.017v3.93H0zm0 0"/><path data-name="Path 146" d="M5.895 47.158h3.93v3.93h-3.93zm0 0"/><path data-name="Path 147" d="M13.754 47.158h3.93v3.93h-3.93zm0 0"/><path data-name="Path 148" d="M21.614 47.158h3.93v3.93h-3.93zm0 0"/><path data-name="Path 149" d="M37.333 47.158h11.789v3.93H37.333zm0 0"/></g><path data-name="Path 150" d="M0 0h55.017v33.4H0zm0 0" fill="#ffa217"/><path data-name="Path 151" d="M7.86 7.86h23.579v17.684H7.86zm0 0" fill="#87ced9"/><path data-name="Path 152" d="M1.965 110.034h3.93v5.895h-3.93zm0 0" fill="#0a4a7a"/><path data-name="Path 153" d="M49.122 110.034h3.93v5.895h-3.93zm0 0" fill="#0a4a7a"/><path data-name="Path 154" d="M51.088 84.491a21.614 21.614 0 11-21.614-21.614 21.614 21.614 0 0121.614 21.614zm0 0" fill="#3e8dc2"/><path data-name="Path 155" d="M47.16 82.526a19.649 19.649 0 11-19.651-19.649A19.649 19.649 0 0147.16 82.526zm0 0" fill="#d6d9db"/><path data-name="Path 156" d="M41.263 82.525a13.754 13.754 0 11-13.755-13.754 13.754 13.754 0 0113.755 13.754zm0 0" fill="#71c4d1"/><path data-name="Path 157" d="M37.333 82.525a9.824 9.824 0 11-9.825-9.824 9.825 9.825 0 019.825 9.824zm0 0" fill="#87ced9"/><path data-name="Path 158" d="M41.404 68.633l-8 8v11.789l8 8a19.648 19.648 0 000-27.787zm0 0" fill="#d6d9db"/><path data-name="Path 159" d="M7.86 7.86h23.579v3.93H7.86zm0 0" fill="#71c4d1"/><path data-name="Path 160" d="M45.193 5.895h3.93v3.93h-3.93zm0 0" fill="#eb8b23"/><path data-name="Path 161" d="M45.193 13.754h3.93v3.93h-3.93zm0 0" fill="#eb8b23"/><path data-name="Path 162" d="M47.157 22.596a2.947 2.947 0 102.947 2.947 2.947 2.947 0 00-2.947-2.947zm0 0" fill="#eb8b23"/><path data-name="Path 163" d="M37.333 0h3.93v33.4h-3.93zm0 0" fill="#eb8b23"/><path data-name="Path 164" d="M74.666 11.789v19.649h-3.93v3.93h7.86V11.789zm0 0" fill="#cf4e42"/><path data-name="Path 165" d="M74.666 43.228v27.509h-3.93v3.93h7.86V43.228zm0 0" fill="#cf4e42"/></svg>