<svg data-name="Component 2 – 2" xmlns="http://www.w3.org/2000/svg" width="42" height="31"><defs><clipPath id="a"><rect data-name="Rectangle 11" width="26" height="17" rx="2" transform="translate(521.93 42.247)" fill="#fff"/></clipPath></defs><rect data-name="Rectangle 12" width="42" height="31" rx="3" fill="#032330"/><g data-name="Mask Group 1" transform="translate(-513.93 -35.247)" clip-path="url(#a)"><path data-name="Path 9" d="M522 42h26.241v17.494H522z" fill="#f0f0f0"/><path data-name="Path 10" d="M522 44.187h26.241v2.187H522zm0 4.374h26.241v2.187H522zm0 4.373h26.241v2.187H522zm0 4.374h26.241v2.185H522z" fill="#d80027"/><path data-name="Path 11" d="M522 42h13.12v9.42H522z" fill="#2e52b2"/><path data-name="Path 12" d="M527.116 45.863l-.211.65h-.683l.553.4-.211.65.553-.4.553.4-.211-.65.553-.4h-.68zm.211 3l-.211-.65-.211.65h-.683l.553.4-.211.65.553-.4.553.4-.211-.65.553-.4zm-2.889 0l-.211-.65-.211.65h-.684l.553.4-.211.65.553-.4.553.4-.211-.65.553-.4zm-.211-3l-.211.65h-.684l.553.4-.211.65.553-.4.553.4-.211-.65.553-.4h-.683zm2.889-2.346l-.211.65h-.683l.553.4-.211.65.553-.4.553.4-.211-.65.553-.4h-.68zm-2.889 0l-.211.65h-.684l.553.4-.211.65.553-.4.553.4-.211-.65.553-.4h-.683zm5.778 2.346l-.211.65h-.683l.553.4-.211.65.553-.4.553.4-.211-.65.553-.4h-.683zm.211 3l-.211-.65-.211.65h-.683l.553.4-.211.65.553-.4.553.4-.211-.65.553-.4zm2.889 0l-.211-.65-.211.65H532l.553.4-.211.65.553-.4.553.4-.211-.65.553-.4zm-.211-3l-.211.65H532l.553.4-.211.65.553-.4.553.4-.211-.65.553-.4h-.683zm-2.889-2.35l-.211.65h-.683l.553.4-.211.65.553-.4.553.4-.211-.65.553-.4h-.683zm2.889 0l-.211.65H532l.553.4-.211.65.553-.4.553.4-.216-.65.553-.4h-.683z" fill="#f0f0f0"/></g></svg>