<svg xmlns="http://www.w3.org/2000/svg" width="116" height="93.892"><g data-name="Group 69"><ellipse data-name="Ellipse 27" cx="10.386" cy="19.839" rx="10.386" ry="19.839" transform="translate(3.618 33.714)" fill="#97da7b"/><path data-name="Path 166" d="M14.004 33.717a6.162 6.162 0 00-3.5 1.158c4.013 2.745 6.885 10.071 6.885 18.68s-2.872 15.936-6.885 18.68a6.162 6.162 0 003.5 1.158c5.736 0 10.386-8.882 10.386-19.839s-4.645-19.837-10.386-19.837z" fill="#80d261"/><path data-name="Path 167" d="M85.541 31.109H30.459a.467.467 0 01-.467-.467V2.166a.467.467 0 01.467-.467h55.082a.467.467 0 01.467.467V30.64a.467.467 0 01-.467.469z" fill="#6bd9e7"/><path data-name="Path 168" d="M85.541 1.699h-7a.467.467 0 01.467.467V30.64a.467.467 0 01-.467.467h7a.467.467 0 00.467-.467V2.166a.467.467 0 00-.467-.467z" fill="#2ed1e2"/><g data-name="Group 68"><g data-name="Group 67" fill="#cbc4cc"><path data-name="Path 169" d="M37.577 78.255h7v11.2h-7z"/><path data-name="Path 170" d="M71.42 78.255h7v11.2h-7z"/></g><path data-name="Path 171" d="M84.14 80.823H31.859a3.268 3.268 0 01-3.268-3.268v-3.734a3.268 3.268 0 013.268-3.268H84.14a3.268 3.268 0 013.268 3.268v3.734a3.268 3.268 0 01-3.268 3.268z" fill="#e94444"/><path data-name="Path 172" d="M84.14 70.553h-7a3.268 3.268 0 013.268 3.268v3.739a3.268 3.268 0 01-3.268 3.268h7a3.268 3.268 0 003.268-3.268v-3.734a3.268 3.268 0 00-3.268-3.273z" fill="#d83131"/><path data-name="Path 173" d="M79.009 70.553H36.993v-13.07a1.4 1.4 0 011.4-1.4h39.216a1.4 1.4 0 011.4 1.4z" fill="#dd7f66"/><path data-name="Path 174" d="M79.009 70.553H36.993v-13.07a1.4 1.4 0 011.4-1.4h39.216a1.4 1.4 0 011.4 1.4z" fill="#ee6161"/><path data-name="Path 175" d="M79.005 70.553h-7V56.082h5.6a1.4 1.4 0 011.4 1.4z" fill="#e94444"/></g><circle data-name="Ellipse 28" cx="5.602" cy="5.602" r="5.602" transform="translate(41.167 10.102)" fill="#eaf9fa"/><path data-name="Path 176" d="M73.764 21.305H61.43a1.208 1.208 0 01-.84-1.926l6.167-8.819a1 1 0 011.68 0l6.167 8.819a1.208 1.208 0 01-.84 1.926z" fill="#eaf9fa"/><path data-name="Path 177" d="M102.579 32.909a1.7 1.7 0 00-1.7 1.7v48.08a1.7 1.7 0 103.4 0v-48.08a1.7 1.7 0 00-1.7-1.7z" fill="#7a6d79"/><path data-name="Path 178" d="M109.642 39.276h-14.13a.934.934 0 01-.92-1.091l2.631-15.4a.934.934 0 01.92-.776h8.869a.934.934 0 01.92.776l2.631 15.4a.934.934 0 01-.921 1.091z" fill="#ffd15b"/><path data-name="Path 179" d="M110.562 38.19l-2.631-15.4a.933.933 0 00-.92-.776h-7a.933.933 0 01.92.776l2.631 15.4a.933.933 0 01-.92 1.091h7a.933.933 0 00.92-1.091z" fill="#ffc344"/><path data-name="Path 180" d="M6.825 71.292H20.95a.934.934 0 01.92 1.091l-2.631 15.4a.934.934 0 01-.92.776H9.456a.934.934 0 01-.92-.776l-2.631-15.4a.934.934 0 01.92-1.091z" fill="#918291"/><path data-name="Path 181" d="M20.95 71.292h-7a.934.934 0 01.92 1.091l-2.631 15.4a.934.934 0 01-.92.776h7a.934.934 0 00.92-.776l2.631-15.4a.933.933 0 00-.92-1.091z" fill="#7a6d79"/><path data-name="Path 182" d="M110.048 89.458H95.112v-6.441a2.195 2.195 0 012.2-2.195h10.548a2.195 2.195 0 012.195 2.195z" fill="#cbc4cc"/><path data-name="Path 183" d="M107.853 80.822h-7a2.195 2.195 0 012.195 2.195v6.441h7v-6.441a2.2 2.2 0 00-2.195-2.195z" fill="#b5adb6"/><path data-name="Path 184" d="M112.5 93.892H3.5a3.5 3.5 0 110-7h109a3.5 3.5 0 110 7z" fill="#ae6c6c"/><path data-name="Path 185" d="M112.499 86.89h-7a3.5 3.5 0 110 7h7a3.5 3.5 0 000-7z" fill="#9b5e5e"/><path data-name="Path 186" d="M85.541 0H30.458a2.169 2.169 0 00-2.166 2.166v28.475a2.169 2.169 0 002.166 2.166H85.54a2.169 2.169 0 002.166-2.166V2.166A2.169 2.169 0 0085.54 0zm-1.233 29.411H31.691V3.398h52.618z" fill="#7a6d79"/></g></svg>