<svg xmlns="http://www.w3.org/2000/svg" width="114.033" height="116"><g transform="translate(-4.341)"><path data-name="Path 220" d="M33.84 57.014a30.64 30.64 0 00-3.262.175C17.972 58.544 5.936 70.53 4.537 83.14a29.489 29.489 0 0044.824 28.44 21.291 21.291 0 019.514-3.342q1.227-.109 2.489-.108 1.2 0 2.375.085a21.329 21.329 0 019.657 3.374 29.49 29.49 0 0044.785-28.46c-1.4-12.6-13.436-24.585-26.042-25.939a30.486 30.486 0 00-3.252-.175H33.84z" fill="#ffd33f"/><circle data-name="Ellipse 30" cx="5.898" cy="5.898" r="5.898" transform="translate(69.227 80.605)" fill="#ea3836"/><path data-name="Path 221" d="M112.651 69.732c-23.663 26.517-76.955 36.389-97.769 39.317a29.38 29.38 0 0034.474 2.518 21.292 21.292 0 019.514-3.342 31.66 31.66 0 012.495-.1q1.2 0 2.375.085a21.329 21.329 0 019.657 3.374 29.49 29.49 0 0044.785-28.46 27.977 27.977 0 00-5.531-13.392z" fill="#ffac3e"/><path data-name="Path 222" d="M29.908 72.742h7.864v9.83h9.83v7.864h-9.83v9.83h-7.864v-9.83h-9.831v-7.862h9.83z" fill="#383856"/><g data-name="Group 75" transform="translate(82.989 68.81)" fill="#91cece"><circle data-name="Ellipse 31" cx="5.898" cy="5.898" r="5.898"/><circle data-name="Ellipse 32" cx="5.898" cy="5.898" r="5.898" transform="translate(0 23.592)"/></g><circle data-name="Ellipse 33" cx="5.898" cy="5.898" r="5.898" transform="translate(96.761 80.605)" fill="#ea3836"/><path data-name="Path 223" d="M57.432 57.012v-7.864h7.864v7.864" fill="#874d1b"/><path data-name="Path 224" d="M63.33 49.15h-3.932v-5.9a3.931 3.931 0 00-3.932-3.932h-9.83a7.864 7.864 0 010-15.728h31.456a3.932 3.932 0 100-7.864h-9.83a7.864 7.864 0 01-7.864-7.864V0h3.932v7.864a3.931 3.931 0 003.932 3.932h9.83a7.864 7.864 0 010 15.728H45.636a3.932 3.932 0 000 7.864h9.83a7.864 7.864 0 017.864 7.864v5.9z" fill="#383856"/><path data-name="Path 225" d="M78.18 81.482a5.829 5.829 0 01.877 3.055 5.9 5.9 0 01-5.9 5.9 5.831 5.831 0 01-3.055-.877 5.882 5.882 0 108.076-8.076z" fill="#d62121"/><path data-name="Path 226" d="M91.942 69.687a5.829 5.829 0 01.877 3.055 5.9 5.9 0 01-5.9 5.9 5.831 5.831 0 01-3.055-.877 5.882 5.882 0 108.076-8.076z" fill="#83b2b7"/><path data-name="Path 227" d="M105.704 81.482a5.831 5.831 0 01.877 3.055 5.9 5.9 0 01-5.9 5.9 5.831 5.831 0 01-3.055-.877 5.882 5.882 0 108.076-8.076z" fill="#d62121"/><path data-name="Path 228" d="M91.942 93.278a5.829 5.829 0 01.877 3.055 5.9 5.9 0 01-5.9 5.9 5.831 5.831 0 01-3.055-.877 5.882 5.882 0 108.076-8.076z" fill="#83b2b7"/><path data-name="Path 229" d="M20.077 88.516v1.921h9.83v9.83h7.864v-9.83h9.83v-7.864h-3.28c-7.766 5.413-19.607 5.956-24.244 5.943z" fill="#202033"/><path data-name="Path 230" d="M57.432 56.477v.537h7.864v-6.458a14.878 14.878 0 01-7.864 5.921z" fill="#6b3713"/></g></svg>