<svg xmlns="http://www.w3.org/2000/svg" width="101.128" height="94.062"><g data-name="Group 89"><g data-name="Group 77"><g data-name="Group 76"><path data-name="Path 231" d="M43.146 65.995h-2.263a10.289 10.289 0 00-10.064-8.218H14.382a10.289 10.289 0 00-10.065 8.218H2.055a2.055 2.055 0 100 4.109h41.091a2.055 2.055 0 000-4.109z" fill="#fff"/></g></g><g data-name="Group 79"><g data-name="Group 78"><path data-name="Path 232" d="M53.504 18.637L36.07 1.204a4.109 4.109 0 10-5.811 5.811l17.434 17.434a4.109 4.109 0 105.811-5.811z" fill="#fff"/></g></g><g data-name="Group 81"><g data-name="Group 80"><path data-name="Path 233" d="M24.449 47.693L7.015 30.259A4.11 4.11 0 001.2 36.07l17.434 17.434a4.109 4.109 0 105.811-5.811z" fill="#fff"/></g></g><g data-name="Group 83"><g data-name="Group 82"><path data-name="Rectangle 32" fill="#fff" d="M9.92 27.354L27.354 9.92l17.433 17.434-17.433 17.434z"/></g></g><g data-name="Group 85"><g data-name="Group 84"><path data-name="Path 234" d="M68.324 59.582l-2.923-3.173-8.717 8.717 2.923 3.173a6.164 6.164 0 008.717-8.717z" fill="#fff"/></g></g><g data-name="Group 87"><g data-name="Group 86"><path data-name="Path 235" d="M48.701 39.984a4.051 4.051 0 00-1.007-3.913 4.109 4.109 0 00-5.811 0l-5.811 5.811a4.109 4.109 0 000 5.811 4.051 4.051 0 003.913 1.007l13.793 13.519 8.717-8.717z" fill="#fff"/></g></g><g data-name="Path 252" fill="#fff"><path d="M72.738 92.061c-14.552 0-26.39-11.84-26.39-26.395 0-14.552 11.838-26.39 26.39-26.39 14.551 0 26.39 11.841 26.39 26.396 0 14.551-11.839 26.39-26.39 26.39zm-7.913-11.674a16.404 16.404 0 007.913 2.046c9.242 0 16.761-7.52 16.761-16.761 0-2.773-.701-5.47-2.044-7.916l-22.63 22.63zm7.913-31.482c-4.47 0-8.677 1.746-11.848 4.918-3.17 3.17-4.916 7.379-4.913 11.847 0 2.765.701 5.46 2.045 7.91L80.65 50.95a16.404 16.404 0 00-7.913-2.045z"/><path d="M72.738 41.276c-13.447 0-24.39 10.943-24.39 24.39 0 13.447 10.937 24.395 24.39 24.395 13.453 0 24.39-10.942 24.39-24.39 0-13.447-10.943-24.395-24.39-24.395M57.68 76.749c-2.297-3.113-3.704-6.923-3.704-11.077-.006-10.346 8.415-18.767 18.76-18.767 4.16 0 7.966 1.407 11.084 3.704l-26.14 26.14m15.057 7.684c-4.16 0-7.965-1.408-11.083-3.704l26.14-26.14C90.097 57.7 91.5 61.511 91.5 65.671c0 10.345-8.415 18.76-18.761 18.76m0-47.156c15.654 0 28.39 12.738 28.39 28.396 0 15.654-12.736 28.39-28.39 28.39s-28.39-12.739-28.39-28.396c0-15.654 12.736-28.39 28.39-28.39zm4.425 14.334a14.245 14.245 0 00-4.425-.705c-3.935 0-7.64 1.538-10.434 4.332a14.652 14.652 0 00-4.327 10.432c0 1.51.239 2.996.704 4.423L77.163 51.61zm-4.425 28.823c8.14 0 14.761-6.622 14.761-14.761 0-1.513-.238-3.001-.703-4.428L68.313 79.727c1.429.466 2.916.706 4.425.706z" fill="#f94f5f"/></g></g></svg>