<svg xmlns="http://www.w3.org/2000/svg" width="129.2" height="93.799"><g data-name="Group 88"><path data-name="Path 236" d="M77.103 46.899a12.445 12.445 0 01-2.079 6.907c-2.239 3.373-6.072 4.07-10.424 4.07-6.905 0-10.641-4.072-10.641-10.977 0-4.357.366-8.193 3.745-10.431a12.505 12.505 0 0119.4 10.431z" fill="#fff"/><path data-name="Path 237" d="M68.117 55.886a12.5 12.5 0 01-10.412-19.418 12.5 12.5 0 1017.319 17.337 12.451 12.451 0 01-6.907 2.081z" fill="#f3cbd1"/><path data-name="Path 238" d="M21.868 0a4.153 4.153 0 012.947 1.221q.057.057.112.116l-2.3 5.778a56.264 56.264 0 000 79.57l2.3 5.776q-.055.059-.113.117a4.166 4.166 0 01-5.893 0 64.6 64.6 0 010-91.357A4.152 4.152 0 0121.868 0z" fill="#ffe6e7"/><path data-name="Path 239" d="M45.444 23.576a4.152 4.152 0 012.947 1.221q.124.124.235.256L45.8 30.691a22.951 22.951 0 000 32.418l2.832 5.632q-.114.135-.241.262a4.166 4.166 0 01-5.894 0 31.292 31.292 0 010-44.2 4.152 4.152 0 012.947-1.221z" fill="#ff9a9f"/><path data-name="Path 240" d="M33.656 11.788a4.153 4.153 0 012.947 1.221c.047.047.093.1.138.145l-3.557 5.749a39.642 39.642 0 000 55.994l3.56 5.746q-.068.075-.141.148a4.166 4.166 0 01-5.893 0 47.986 47.986 0 010-67.781 4.155 4.155 0 012.947-1.221z" fill="#ffcccf"/><path data-name="Path 241" d="M37.51 46.899A27.057 27.057 0 0048.632 68.74a4.163 4.163 0 00-.241-5.632 22.951 22.951 0 010-32.418 4.171 4.171 0 00.235-5.638A27.064 27.064 0 0037.51 46.899z" fill="#ff8086"/><path data-name="Path 242" d="M20.839 46.9a43.7 43.7 0 0015.9 33.743 4.165 4.165 0 00-.141-5.746 39.642 39.642 0 010-55.994 4.169 4.169 0 00.138-5.749 43.7 43.7 0 00-15.9 33.746z" fill="#ff9a9f"/><path data-name="Path 243" d="M4.168 46.899a60.3 60.3 0 0020.76 45.561 4.165 4.165 0 00-.113-5.776 56.263 56.263 0 010-79.57 4.167 4.167 0 00.112-5.778A60.3 60.3 0 004.168 46.899z" fill="#ffcccf"/><path data-name="Path 244" d="M107.331 93.799a4.154 4.154 0 01-2.947-1.221q-.057-.057-.112-.116l2.3-5.778a56.264 56.264 0 000-79.57l-2.3-5.776q.055-.059.113-.117a4.166 4.166 0 015.893 0 64.6 64.6 0 010 91.357 4.152 4.152 0 01-2.947 1.221z" fill="#ffe6e7"/><path data-name="Path 245" d="M83.756 70.222a4.152 4.152 0 01-2.947-1.218q-.124-.124-.235-.256L83.4 63.11a22.951 22.951 0 000-32.418l-2.832-5.632q.114-.135.241-.262a4.166 4.166 0 015.894 0 31.292 31.292 0 010 44.2 4.151 4.151 0 01-2.947 1.224z" fill="#ff9a9f"/><path data-name="Path 246" d="M95.545 82.011a4.153 4.153 0 01-2.947-1.221c-.047-.047-.093-.1-.138-.145l3.557-5.749a39.642 39.642 0 000-55.994l-3.56-5.746q.068-.075.141-.148a4.166 4.166 0 015.893 0 47.986 47.986 0 010 67.781 4.154 4.154 0 01-2.946 1.222z" fill="#ffcccf"/><path data-name="Path 247" d="M91.69 46.9a27.057 27.057 0 00-11.122-21.841 4.163 4.163 0 00.241 5.632 22.951 22.951 0 010 32.418 4.171 4.171 0 00-.235 5.638A27.064 27.064 0 0091.69 46.9z" fill="#ff8086"/><path data-name="Path 248" d="M108.366 46.9a43.7 43.7 0 00-15.9-33.743 4.165 4.165 0 00.141 5.746 39.642 39.642 0 010 55.994 4.169 4.169 0 00-.138 5.749 43.7 43.7 0 0015.9-33.746z" fill="#ff9a9f"/><path data-name="Path 249" d="M125.033 46.899a60.3 60.3 0 00-20.76-45.561 4.165 4.165 0 00.113 5.776 56.264 56.264 0 010 79.57 4.167 4.167 0 00-.112 5.778A60.3 60.3 0 00125.033 46.9z" fill="#ffcccf"/></g></svg>