<svg xmlns="http://www.w3.org/2000/svg" width="59.018" height="55.89"><defs><filter id="a" x="0" y="0" width="59.018" height="55.89" filterUnits="userSpaceOnUse"><feOffset dx="-3" dy="-3"/><feGaussianBlur stdDeviation="3" result="blur"/><feFlood flood-opacity=".161"/><feComposite operator="in" in2="blur"/><feComposite in="SourceGraphic"/></filter></defs><g data-name="Group 90"><g data-name="Group 2"><path data-name="Path 1" d="M18.2 41.354a2.657 2.657 0 01-2.616-3.119l4.617-26.129a2.652 2.652 0 012.616-2.195h19.63a2.65 2.65 0 012.621 2.219l4.369 26.129a2.656 2.656 0 01-2.621 3.094z" fill="#03a688"/><g data-name="Group 1"><path data-name="Path 2" d="M42.447 10.576a1.993 1.993 0 011.969 1.665l4.369 26.129a1.994 1.994 0 01-1.965 2.322H18.2a1.992 1.992 0 01-1.962-2.341l4.617-26.129a1.993 1.993 0 011.961-1.646h19.63m0-1.328h-19.63a3.317 3.317 0 00-3.27 2.744L14.93 38.121a3.321 3.321 0 003.27 3.9h28.616a3.321 3.321 0 003.275-3.869l-4.375-26.13a3.3 3.3 0 00-3.274-2.774z" fill="#04d99d"/></g></g><g transform="translate(.003)" filter="url(#a)"><path data-name="Path 3" d="M20.312 12h24.7a2.508 2.508 0 012.468 2.095l5.5 32.873a2.508 2.508 0 01-2.473 2.922h-36a2.508 2.508 0 01-2.47-2.943l5.807-32.875A2.509 2.509 0 0120.312 12z" fill="#04d99d"/></g><path data-name="Path 4" d="M26.36 15.025a6.5 6.5 0 01-.022-.543V7.09c0-3.252 2.3-5.888 5.139-5.888h2.39c2.839 0 5.139 2.636 5.139 5.888v7.394a6.5 6.5 0 01-.022.543" fill="none" stroke="#03a688" stroke-linecap="round" stroke-width="2"/><path data-name="Path 5" d="M33.258 25.538v4.1a.7.7 0 00.7.7h3.891a.7.7 0 01.7.7h0a.7.7 0 01-.7.7h-3.891a.7.7 0 00-.7.7v4.15a.7.7 0 01-.7.7h-.093a.7.7 0 01-.7-.7v-4.134a.7.7 0 00-.7-.7h-3.893a.7.7 0 01-.7-.7h0a.7.7 0 01.7-.7h3.893a.7.7 0 00.7-.7v-4.1a.7.7 0 01.7-.7h.093a.7.7 0 01.7.684z" fill="#fff" stroke="#fff"/></g></svg>