<svg xmlns="http://www.w3.org/2000/svg" width="72.319" height="116"><g data-name="Group 70"><path data-name="Path 187" d="M58 116H14.319A14.312 14.312 0 010 101.681V14.319A14.31 14.31 0 0114.319 0H58a14.31 14.31 0 0114.319 14.319v87.363A14.312 14.312 0 0158 116z" fill="#29435e"/><path data-name="Path 188" d="M72.318 101.681V14.319A14.31 14.31 0 0058 0H36.159v116H58a14.312 14.312 0 0014.319-14.319z" fill="#223a53"/><path data-name="Path 189" d="M57.996 6.797a3.886 3.886 0 00-3.882 3.882A10.691 10.691 0 0143.44 21.357H28.88a10.691 10.691 0 01-10.684-10.678 3.886 3.886 0 00-3.877-3.882 7.516 7.516 0 00-7.522 7.522v87.363a7.519 7.519 0 007.522 7.522h43.677a7.519 7.519 0 007.522-7.522V14.319a7.517 7.517 0 00-7.522-7.522z" fill="#f4f1f1"/><path data-name="Path 190" d="M65.521 101.681V14.319A7.516 7.516 0 0058 6.797a3.886 3.886 0 00-3.882 3.882 10.691 10.691 0 01-10.679 10.678h-7.28v87.846H58a7.519 7.519 0 007.521-7.522z" fill="#e7dfdd"/><circle data-name="Ellipse 29" cx="3.398" cy="3.398" r="3.398" transform="translate(50.961 76.442)" fill="#d0c8c3"/><path data-name="Path 191" d="M39.8 83.242H17.959a3.4 3.4 0 010-6.8H39.8a3.4 3.4 0 010 6.8z" fill="#e7dfdd"/><path data-name="Path 192" d="M54.359 68.679h-36.4a3.4 3.4 0 01-3.4-3.4v-32.76a3.4 3.4 0 013.4-3.4h36.4a3.4 3.4 0 013.4 3.4V65.28a3.4 3.4 0 01-3.4 3.399z" fill="#98f9ff"/><path data-name="Path 193" d="M54.359 91.003h-36.4a3.4 3.4 0 00-3.4 3.4v14.8h43.2v-14.8a3.4 3.4 0 00-3.4-3.4z" fill="#ff7038"/><path data-name="Path 194" d="M43.198 79.842a3.4 3.4 0 00-3.4-3.4h-3.639v6.8h3.64a3.4 3.4 0 003.399-3.4z" fill="#dad0cb"/><path data-name="Path 195" d="M57.759 65.281V32.519a3.4 3.4 0 00-3.4-3.4h-18.2v39.558h18.2a3.4 3.4 0 003.4-3.396z" fill="#7dd5f4"/><path data-name="Path 196" d="M57.759 94.401a3.4 3.4 0 00-3.4-3.4h-18.2v18.2h21.6z" fill="#ff405c"/></g></svg>