<svg data-name="real estate" xmlns="http://www.w3.org/2000/svg" width="116.071" height="115.929"><g data-name="076---Real-Estate-Investing"><path d="M44.027 24.015l4 60.037H8.002a4.014 4.014 0 01-4-4V24.015z" fill="#7d6599" fill-rule="evenodd"/><path data-name="Path" d="M52.027 84.051h-8V4.002h48.029v49.03z" fill="#3b97d3" fill-rule="evenodd"/><rect width="56.034" height="8.005" rx="1" transform="translate(40.025)" fill="#2980ba"/><path data-name="Path" d="M44.027 20.012v8H2a2 2 0 01-2-2v-4a2 2 0 012-2zM18.01 68.042h12.009a2 2 0 012 2v14.01H16.01v-14.01a2 2 0 012-2z" fill="#5d4c72" fill-rule="evenodd"/><g data-name="Group 71" transform="translate(12.007 18.011)" fill="#67b9cc"><rect data-name="Rectangle" width="8.005" height="8.005" rx="1" transform="translate(0 34.021)"/><rect data-name="Rectangle" width="8.005" height="8.005" rx="1" transform="translate(16.01 34.021)"/><rect data-name="Rectangle" width="8.005" height="8.005" rx="1" transform="translate(0 18.011)"/><rect data-name="Rectangle" width="8.005" height="8.005" rx="1" transform="translate(16.01 18.011)"/><rect data-name="Rectangle" width="8.005" height="8.005" rx="1" transform="translate(42.026 16.01)"/><rect data-name="Rectangle" width="8.005" height="8.005" rx="1" transform="translate(62.038 16.01)"/><rect data-name="Rectangle" width="8.005" height="8.005" rx="1" transform="translate(42.026)"/><rect data-name="Rectangle" width="8.005" height="8.005" rx="1" transform="translate(62.038)"/></g><path data-name="Path" d="M116.071 84.052a31.948 31.948 0 11-24.015-31.021 31.947 31.947 0 0124.015 31.021z" fill="#f0c419" fill-rule="evenodd"/><circle cx="24.015" cy="24.015" r="24.015" transform="translate(60.037 60.037)" fill="#f3d55b"/><path data-name="Path" d="M84.047 82.05a4 4 0 114-4 2 2 0 004 0 8 8 0 00-6-7.721V68.04a2 2 0 10-4 0v2.285a7.989 7.989 0 002 15.726 4 4 0 11-4 4 2 2 0 10-4 0 8 8 0 006 7.721v2.285a2 2 0 004 0v-2.282a7.989 7.989 0 00-2-15.725z" fill="#b19046" fill-rule="evenodd"/></g></svg>