<svg xmlns="http://www.w3.org/2000/svg" width="116" height="85.072"><g data-name="Group 74"><g data-name="Group 73" fill="#2f4859"><path data-name="Path 204" d="M97.412 61.739l8.527-.051a2.943 2.943 0 012.961 2.925l.1 16.931a2.943 2.943 0 01-2.925 2.961l-8.527.051a2.943 2.943 0 01-2.961-2.925l-.1-16.931a2.943 2.943 0 012.925-2.961z"/><path data-name="Path 205" d="M10.643 62.253l8.527-.051a2.943 2.943 0 012.961 2.925l.1 16.931a2.943 2.943 0 01-2.925 2.961l-8.527.051a2.943 2.943 0 01-2.961-2.925l-.1-16.931a2.944 2.944 0 012.925-2.961z"/><path data-name="Path 206" d="M107.104 20.502a1.376 1.376 0 00-1.246 1.384 2.782 2.782 0 01-2.084 3.045l-2.121.013 1.089 3.179s13.657-.082 13.249-4.568c-.317-3.48-6.244-3.306-8.887-3.053z"/><path data-name="Path 207" d="M8.9 20.502a1.376 1.376 0 011.246 1.384 2.782 2.782 0 002.084 3.045l2.121.013-1.089 3.179S-.4 28.042.009 23.556c.317-3.481 6.244-3.307 8.887-3.054z"/></g><path data-name="Path 208" d="M112.947 47.14a23.5 23.5 0 00-2.829-9.513l-5.757-10.557S94.139 4.03 89.88 2.196C85.763.423 59.48.024 57.74-.004h-.1c-1.741.046-28.016.758-32.111 2.58-4.237 1.884-14.188 25.041-14.188 25.041l-5.62 10.632a23.52 23.52 0 00-2.716 9.544 68.789 68.789 0 002.353 21.886 7.671 7.671 0 007.471 5.643l45.265-.262h.1l45.265-.269a7.672 7.672 0 007.4-5.732 68.726 68.726 0 002.093-21.918z" fill="#fe7058"/><path data-name="Path 209" d="M35.984 60.832l44.11-.263a1.429 1.429 0 011.438 1.42l.045 7.511a1.429 1.429 0 01-1.42 1.438l-44.11.263a1.429 1.429 0 01-1.438-1.42l-.045-7.511a1.429 1.429 0 011.42-1.438z" fill="#3a556a"/><path data-name="Path 210" d="M90.707 5.672a2.878 2.878 0 00-2.557-1.677l-30.161-.619h-.095l-30.153.979a2.878 2.878 0 00-2.536 1.707l-8.652 19.459 41.468-.248h.095l41.474-.248z" fill="#2f4859"/><path data-name="Path 211" d="M100.525 59.3a5.264 5.264 0 105.295 5.234 5.264 5.264 0 00-5.295-5.234z" fill="#ebf0f3"/><path data-name="Path 212" d="M15.993 59.801a5.264 5.264 0 105.3 5.233 5.264 5.264 0 00-5.3-5.233z" fill="#ebf0f3"/><path data-name="Path 213" d="M38.291 47.48h38.39v4.792h-38.39z" fill="#3a556a"/><path data-name="Path 214" d="M107.909 39.944a2.043 2.043 0 00-2.26-1.8 2.02 2.02 0 00-.26.047l-17.557 4.293a2.045 2.045 0 00-1.262.928l-3.478 5.757a2.041 2.041 0 001.747 3.1h17.154a2.055 2.055 0 001.131-.33c4.049-2.685 5.316-6.86 4.785-11.995z" fill="#e1e6e9"/><path data-name="Path 215" d="M99.591 41.573a3.847 3.847 0 104 3.687 3.847 3.847 0 00-4-3.687z" fill="#bdbec1"/><path data-name="Path 216" d="M91.441 45.245a2.926 2.926 0 103.041 2.806 2.926 2.926 0 00-3.041-2.806z" fill="#bdbec1"/><path data-name="Path 217" d="M8.088 39.944a2.043 2.043 0 012.26-1.8 2.02 2.02 0 01.26.047l17.557 4.292a2.045 2.045 0 011.262.928l3.478 5.757a2.041 2.041 0 01-1.747 3.1H14.005a2.055 2.055 0 01-1.131-.33c-4.048-2.684-5.309-6.859-4.786-11.994z" fill="#e1e6e9"/><path data-name="Path 218" d="M16.409 41.573a3.847 3.847 0 11-4 3.687 3.847 3.847 0 014-3.687z" fill="#bdbec1"/><path data-name="Path 219" d="M24.564 45.245a2.926 2.926 0 11-3.041 2.806 2.926 2.926 0 013.041-2.806z" fill="#bdbec1"/></g></svg>